M48
; DRILL file {KiCad (6.0.9)} date Sun Nov 20 21:47:47 2022
; FORMAT={-:-/ absolute / metric / decimal}
; #@! TF.CreationDate,2022-11-20T21:47:47+01:00
; #@! TF.GenerationSoftware,Kicad,Pcbnew,(6.0.9)
; #@! TF.FileFunction,Plated,1,2,PTH
FMAT,2
METRIC
; #@! TA.AperFunction,Plated,PTH,ViaDrill
T1C0.400
; #@! TA.AperFunction,Plated,PTH,ComponentDrill
T2C0.650
; #@! TA.AperFunction,Plated,PTH,ComponentDrill
T3C1.000
%
G90
G05
T1
X146.685Y-93.98
X151.13Y-99.06
X153.035Y-81.915
X153.67Y-100.33
X156.66Y-93.98
X156.845Y-81.915
X160.02Y-83.82
X161.925Y-86.995
X164.465Y-79.375
X165.735Y-100.33
X167.005Y-86.36
X167.64Y-90.17
X168.275Y-92.71
X172.72Y-76.835
X178.435Y-98.425
X186.055Y-116.84
X195.58Y-97.155
T2
X152.4Y-95.885
X152.4Y-97.155
X153.67Y-95.885
X153.67Y-97.155
X154.94Y-95.885
X154.94Y-97.155
X156.21Y-95.885
X156.21Y-97.155
X157.48Y-95.885
X157.48Y-97.155
X158.75Y-95.885
X158.75Y-97.155
X160.02Y-95.885
X160.02Y-97.155
X161.29Y-95.885
X161.29Y-97.155
X162.56Y-95.885
X162.56Y-97.155
X163.83Y-95.885
X163.83Y-97.155
X165.1Y-95.885
X165.1Y-97.155
X166.37Y-95.885
X166.37Y-97.155
X167.64Y-95.885
X167.64Y-97.155
X168.91Y-95.885
X168.91Y-97.155
X170.18Y-95.885
X170.18Y-97.155
X171.45Y-95.885
X171.45Y-97.155
X172.72Y-95.885
X172.72Y-97.155
X173.99Y-95.885
X173.99Y-97.155
X175.26Y-95.885
X175.26Y-97.155
X176.53Y-95.885
X176.53Y-97.155
T3
X142.24Y-78.74
X142.24Y-81.28
X142.24Y-83.82
X142.24Y-86.36
X142.24Y-88.9
X142.24Y-91.44
X142.24Y-96.52
X142.24Y-101.6
X142.24Y-104.14
X142.24Y-106.68
X142.24Y-109.22
X142.24Y-111.76
X142.24Y-114.3
X144.78Y-78.74
X144.78Y-81.28
X144.78Y-83.82
X144.78Y-86.36
X144.78Y-88.9
X144.78Y-91.44
X144.78Y-101.6
X144.78Y-104.14
X144.78Y-106.68
X144.78Y-109.22
X144.78Y-111.76
X144.78Y-114.3
X148.59Y-96.52
X151.13Y-78.74
X179.07Y-78.74
X185.42Y-78.74
X185.42Y-81.28
X185.42Y-83.82
X185.42Y-86.36
X185.42Y-88.9
X185.42Y-91.44
X185.42Y-101.6
X185.42Y-104.14
X185.42Y-106.68
X185.42Y-109.22
X185.42Y-111.76
X185.42Y-114.3
X187.96Y-78.74
X187.96Y-81.28
X187.96Y-83.82
X187.96Y-86.36
X187.96Y-88.9
X187.96Y-91.44
X187.96Y-101.6
X187.96Y-104.14
X187.96Y-106.68
X187.96Y-109.22
X187.96Y-111.76
X187.96Y-114.3
T0
M30
