G04 #@! TF.GenerationSoftware,KiCad,Pcbnew,(6.0.9)*
G04 #@! TF.CreationDate,2022-11-20T21:47:37+01:00*
G04 #@! TF.ProjectId,iCE40HX8K-EVB EXT2PMOD adapter,69434534-3048-4583-984b-2d4556422045,V1.0*
G04 #@! TF.SameCoordinates,Original*
G04 #@! TF.FileFunction,Soldermask,Top*
G04 #@! TF.FilePolarity,Negative*
%FSLAX46Y46*%
G04 Gerber Fmt 4.6, Leading zero omitted, Abs format (unit mm)*
G04 Created by KiCad (PCBNEW (6.0.9)) date 2022-11-20 21:47:37*
%MOMM*%
%LPD*%
G01*
G04 APERTURE LIST*
G04 Aperture macros list*
%AMRoundRect*
0 Rectangle with rounded corners*
0 $1 Rounding radius*
0 $2 $3 $4 $5 $6 $7 $8 $9 X,Y pos of 4 corners*
0 Add a 4 corners polygon primitive as box body*
4,1,4,$2,$3,$4,$5,$6,$7,$8,$9,$2,$3,0*
0 Add four circle primitives for the rounded corners*
1,1,$1+$1,$2,$3*
1,1,$1+$1,$4,$5*
1,1,$1+$1,$6,$7*
1,1,$1+$1,$8,$9*
0 Add four rect primitives between the rounded corners*
20,1,$1+$1,$2,$3,$4,$5,0*
20,1,$1+$1,$4,$5,$6,$7,0*
20,1,$1+$1,$6,$7,$8,$9,0*
20,1,$1+$1,$8,$9,$2,$3,0*%
G04 Aperture macros list end*
%ADD10C,1.500000*%
%ADD11R,2.000000X2.000000*%
%ADD12R,1.700000X1.700000*%
%ADD13O,1.700000X1.700000*%
%ADD14R,3.800000X2.000000*%
%ADD15R,1.500000X2.000000*%
%ADD16RoundRect,0.250000X0.350000X0.450000X-0.350000X0.450000X-0.350000X-0.450000X0.350000X-0.450000X0*%
%ADD17RoundRect,0.250000X0.450000X-0.350000X0.450000X0.350000X-0.450000X0.350000X-0.450000X-0.350000X0*%
%ADD18RoundRect,0.250000X0.325000X0.450000X-0.325000X0.450000X-0.325000X-0.450000X0.325000X-0.450000X0*%
%ADD19RoundRect,0.250000X-0.475000X0.337500X-0.475000X-0.337500X0.475000X-0.337500X0.475000X0.337500X0*%
%ADD20RoundRect,0.250000X0.475000X-0.337500X0.475000X0.337500X-0.475000X0.337500X-0.475000X-0.337500X0*%
%ADD21R,1.000000X1.000000*%
%ADD22O,1.000000X1.000000*%
G04 APERTURE END LIST*
D10*
X157480000Y-91440000D03*
D11*
X151130000Y-78740000D03*
X179070000Y-78740000D03*
D12*
X185420000Y-101600000D03*
D13*
X185420000Y-104140000D03*
X185420000Y-106680000D03*
X185420000Y-109220000D03*
X185420000Y-111760000D03*
X185420000Y-114300000D03*
X187960000Y-101600000D03*
X187960000Y-104140000D03*
X187960000Y-106680000D03*
X187960000Y-109220000D03*
X187960000Y-111760000D03*
X187960000Y-114300000D03*
D12*
X185420000Y-78740000D03*
D13*
X185420000Y-81280000D03*
X185420000Y-83820000D03*
X185420000Y-86360000D03*
X185420000Y-88900000D03*
X185420000Y-91440000D03*
X187960000Y-78740000D03*
X187960000Y-81280000D03*
X187960000Y-83820000D03*
X187960000Y-86360000D03*
X187960000Y-88900000D03*
X187960000Y-91440000D03*
D12*
X144780000Y-91440000D03*
D13*
X144780000Y-88900000D03*
X144780000Y-86360000D03*
X144780000Y-83820000D03*
X144780000Y-81280000D03*
X144780000Y-78740000D03*
X142240000Y-91440000D03*
X142240000Y-88900000D03*
X142240000Y-86360000D03*
X142240000Y-83820000D03*
X142240000Y-81280000D03*
X142240000Y-78740000D03*
D11*
X148590000Y-96520000D03*
X142240000Y-96520000D03*
D12*
X144780000Y-114300000D03*
D13*
X144780000Y-111760000D03*
X144780000Y-109220000D03*
X144780000Y-106680000D03*
X144780000Y-104140000D03*
X144780000Y-101600000D03*
X142240000Y-114300000D03*
X142240000Y-111760000D03*
X142240000Y-109220000D03*
X142240000Y-106680000D03*
X142240000Y-104140000D03*
X142240000Y-101600000D03*
D14*
X164465000Y-76860000D03*
D15*
X162165000Y-83160000D03*
X164465000Y-83160000D03*
X166765000Y-83160000D03*
D16*
X165465000Y-91440000D03*
X163465000Y-91440000D03*
D17*
X158750000Y-81010000D03*
X158750000Y-79010000D03*
D18*
X165490000Y-87630000D03*
X163440000Y-87630000D03*
D19*
X154940000Y-78972500D03*
X154940000Y-81047500D03*
D20*
X170180000Y-81047500D03*
X170180000Y-78972500D03*
D21*
X152400000Y-97155000D03*
D22*
X152400000Y-95885000D03*
X153670000Y-97155000D03*
X153670000Y-95885000D03*
X154940000Y-97155000D03*
X154940000Y-95885000D03*
X156210000Y-97155000D03*
X156210000Y-95885000D03*
X157480000Y-97155000D03*
X157480000Y-95885000D03*
X158750000Y-97155000D03*
X158750000Y-95885000D03*
X160020000Y-97155000D03*
X160020000Y-95885000D03*
X161290000Y-97155000D03*
X161290000Y-95885000D03*
X162560000Y-97155000D03*
X162560000Y-95885000D03*
X163830000Y-97155000D03*
X163830000Y-95885000D03*
X165100000Y-97155000D03*
X165100000Y-95885000D03*
X166370000Y-97155000D03*
X166370000Y-95885000D03*
X167640000Y-97155000D03*
X167640000Y-95885000D03*
X168910000Y-97155000D03*
X168910000Y-95885000D03*
X170180000Y-97155000D03*
X170180000Y-95885000D03*
X171450000Y-97155000D03*
X171450000Y-95885000D03*
X172720000Y-97155000D03*
X172720000Y-95885000D03*
X173990000Y-97155000D03*
X173990000Y-95885000D03*
X175260000Y-97155000D03*
X175260000Y-95885000D03*
X176530000Y-97155000D03*
X176530000Y-95885000D03*
M02*
