G04 #@! TF.GenerationSoftware,KiCad,Pcbnew,(6.0.9)*
G04 #@! TF.CreationDate,2022-11-20T21:47:37+01:00*
G04 #@! TF.ProjectId,iCE40HX8K-EVB EXT2PMOD adapter,69434534-3048-4583-984b-2d4556422045,V1.0*
G04 #@! TF.SameCoordinates,Original*
G04 #@! TF.FileFunction,Legend,Bot*
G04 #@! TF.FilePolarity,Positive*
%FSLAX46Y46*%
G04 Gerber Fmt 4.6, Leading zero omitted, Abs format (unit mm)*
G04 Created by KiCad (PCBNEW (6.0.9)) date 2022-11-20 21:47:37*
%MOMM*%
%LPD*%
G01*
G04 APERTURE LIST*
%ADD10R,2.000000X2.000000*%
%ADD11R,1.700000X1.700000*%
%ADD12O,1.700000X1.700000*%
%ADD13R,1.000000X1.000000*%
%ADD14O,1.000000X1.000000*%
G04 APERTURE END LIST*
%LPC*%
D10*
X151130000Y-78740000D03*
X179070000Y-78740000D03*
D11*
X185420000Y-101600000D03*
D12*
X185420000Y-104140000D03*
X185420000Y-106680000D03*
X185420000Y-109220000D03*
X185420000Y-111760000D03*
X185420000Y-114300000D03*
X187960000Y-101600000D03*
X187960000Y-104140000D03*
X187960000Y-106680000D03*
X187960000Y-109220000D03*
X187960000Y-111760000D03*
X187960000Y-114300000D03*
D11*
X185420000Y-78740000D03*
D12*
X185420000Y-81280000D03*
X185420000Y-83820000D03*
X185420000Y-86360000D03*
X185420000Y-88900000D03*
X185420000Y-91440000D03*
X187960000Y-78740000D03*
X187960000Y-81280000D03*
X187960000Y-83820000D03*
X187960000Y-86360000D03*
X187960000Y-88900000D03*
X187960000Y-91440000D03*
D11*
X144780000Y-91440000D03*
D12*
X144780000Y-88900000D03*
X144780000Y-86360000D03*
X144780000Y-83820000D03*
X144780000Y-81280000D03*
X144780000Y-78740000D03*
X142240000Y-91440000D03*
X142240000Y-88900000D03*
X142240000Y-86360000D03*
X142240000Y-83820000D03*
X142240000Y-81280000D03*
X142240000Y-78740000D03*
D10*
X148590000Y-96520000D03*
X142240000Y-96520000D03*
D11*
X144780000Y-114300000D03*
D12*
X144780000Y-111760000D03*
X144780000Y-109220000D03*
X144780000Y-106680000D03*
X144780000Y-104140000D03*
X144780000Y-101600000D03*
X142240000Y-114300000D03*
X142240000Y-111760000D03*
X142240000Y-109220000D03*
X142240000Y-106680000D03*
X142240000Y-104140000D03*
X142240000Y-101600000D03*
D13*
X152400000Y-97155000D03*
D14*
X152400000Y-95885000D03*
X153670000Y-97155000D03*
X153670000Y-95885000D03*
X154940000Y-97155000D03*
X154940000Y-95885000D03*
X156210000Y-97155000D03*
X156210000Y-95885000D03*
X157480000Y-97155000D03*
X157480000Y-95885000D03*
X158750000Y-97155000D03*
X158750000Y-95885000D03*
X160020000Y-97155000D03*
X160020000Y-95885000D03*
X161290000Y-97155000D03*
X161290000Y-95885000D03*
X162560000Y-97155000D03*
X162560000Y-95885000D03*
X163830000Y-97155000D03*
X163830000Y-95885000D03*
X165100000Y-97155000D03*
X165100000Y-95885000D03*
X166370000Y-97155000D03*
X166370000Y-95885000D03*
X167640000Y-97155000D03*
X167640000Y-95885000D03*
X168910000Y-97155000D03*
X168910000Y-95885000D03*
X170180000Y-97155000D03*
X170180000Y-95885000D03*
X171450000Y-97155000D03*
X171450000Y-95885000D03*
X172720000Y-97155000D03*
X172720000Y-95885000D03*
X173990000Y-97155000D03*
X173990000Y-95885000D03*
X175260000Y-97155000D03*
X175260000Y-95885000D03*
X176530000Y-97155000D03*
X176530000Y-95885000D03*
M02*
