G04 #@! TF.GenerationSoftware,KiCad,Pcbnew,(6.0.9)*
G04 #@! TF.CreationDate,2022-11-20T21:47:37+01:00*
G04 #@! TF.ProjectId,iCE40HX8K-EVB EXT2PMOD adapter,69434534-3048-4583-984b-2d4556422045,V1.0*
G04 #@! TF.SameCoordinates,Original*
G04 #@! TF.FileFunction,Copper,L2,Bot*
G04 #@! TF.FilePolarity,Positive*
%FSLAX46Y46*%
G04 Gerber Fmt 4.6, Leading zero omitted, Abs format (unit mm)*
G04 Created by KiCad (PCBNEW (6.0.9)) date 2022-11-20 21:47:37*
%MOMM*%
%LPD*%
G01*
G04 APERTURE LIST*
G04 #@! TA.AperFunction,ComponentPad*
%ADD10R,2.000000X2.000000*%
G04 #@! TD*
G04 #@! TA.AperFunction,ComponentPad*
%ADD11R,1.700000X1.700000*%
G04 #@! TD*
G04 #@! TA.AperFunction,ComponentPad*
%ADD12O,1.700000X1.700000*%
G04 #@! TD*
G04 #@! TA.AperFunction,ComponentPad*
%ADD13R,1.000000X1.000000*%
G04 #@! TD*
G04 #@! TA.AperFunction,ComponentPad*
%ADD14O,1.000000X1.000000*%
G04 #@! TD*
G04 #@! TA.AperFunction,ViaPad*
%ADD15C,0.800000*%
G04 #@! TD*
G04 #@! TA.AperFunction,Conductor*
%ADD16C,0.440000*%
G04 #@! TD*
G04 APERTURE END LIST*
D10*
X151130000Y-78740000D03*
X179070000Y-78740000D03*
D11*
X185420000Y-101600000D03*
D12*
X185420000Y-104140000D03*
X185420000Y-106680000D03*
X185420000Y-109220000D03*
X185420000Y-111760000D03*
X185420000Y-114300000D03*
X187960000Y-101600000D03*
X187960000Y-104140000D03*
X187960000Y-106680000D03*
X187960000Y-109220000D03*
X187960000Y-111760000D03*
X187960000Y-114300000D03*
D11*
X185420000Y-78740000D03*
D12*
X185420000Y-81280000D03*
X185420000Y-83820000D03*
X185420000Y-86360000D03*
X185420000Y-88900000D03*
X185420000Y-91440000D03*
X187960000Y-78740000D03*
X187960000Y-81280000D03*
X187960000Y-83820000D03*
X187960000Y-86360000D03*
X187960000Y-88900000D03*
X187960000Y-91440000D03*
D11*
X144780000Y-91440000D03*
D12*
X144780000Y-88900000D03*
X144780000Y-86360000D03*
X144780000Y-83820000D03*
X144780000Y-81280000D03*
X144780000Y-78740000D03*
X142240000Y-91440000D03*
X142240000Y-88900000D03*
X142240000Y-86360000D03*
X142240000Y-83820000D03*
X142240000Y-81280000D03*
X142240000Y-78740000D03*
D10*
X148590000Y-96520000D03*
X142240000Y-96520000D03*
D11*
X144780000Y-114300000D03*
D12*
X144780000Y-111760000D03*
X144780000Y-109220000D03*
X144780000Y-106680000D03*
X144780000Y-104140000D03*
X144780000Y-101600000D03*
X142240000Y-114300000D03*
X142240000Y-111760000D03*
X142240000Y-109220000D03*
X142240000Y-106680000D03*
X142240000Y-104140000D03*
X142240000Y-101600000D03*
D13*
X152400000Y-97155000D03*
D14*
X152400000Y-95885000D03*
X153670000Y-97155000D03*
X153670000Y-95885000D03*
X154940000Y-97155000D03*
X154940000Y-95885000D03*
X156210000Y-97155000D03*
X156210000Y-95885000D03*
X157480000Y-97155000D03*
X157480000Y-95885000D03*
X158750000Y-97155000D03*
X158750000Y-95885000D03*
X160020000Y-97155000D03*
X160020000Y-95885000D03*
X161290000Y-97155000D03*
X161290000Y-95885000D03*
X162560000Y-97155000D03*
X162560000Y-95885000D03*
X163830000Y-97155000D03*
X163830000Y-95885000D03*
X165100000Y-97155000D03*
X165100000Y-95885000D03*
X166370000Y-97155000D03*
X166370000Y-95885000D03*
X167640000Y-97155000D03*
X167640000Y-95885000D03*
X168910000Y-97155000D03*
X168910000Y-95885000D03*
X170180000Y-97155000D03*
X170180000Y-95885000D03*
X171450000Y-97155000D03*
X171450000Y-95885000D03*
X172720000Y-97155000D03*
X172720000Y-95885000D03*
X173990000Y-97155000D03*
X173990000Y-95885000D03*
X175260000Y-97155000D03*
X175260000Y-95885000D03*
X176530000Y-97155000D03*
X176530000Y-95885000D03*
D15*
X164465000Y-79375000D03*
X167005000Y-86360000D03*
X161925000Y-86995000D03*
X160020000Y-83820000D03*
X156845000Y-81915000D03*
X153035000Y-81915000D03*
X172720000Y-76835000D03*
X195580000Y-97155000D03*
X186055000Y-116840000D03*
X153670000Y-100330000D03*
X151130000Y-99060000D03*
X146685000Y-93980000D03*
X156660500Y-93980000D03*
X178435000Y-98425000D03*
X165735000Y-100330000D03*
X168275000Y-92710000D03*
X167640000Y-90170000D03*
D16*
X147320000Y-100330000D02*
X152146000Y-100330000D01*
X143510000Y-96520000D02*
X147320000Y-100330000D01*
X142240000Y-96520000D02*
X143510000Y-96520000D01*
X152146000Y-100330000D02*
X153670000Y-98806000D01*
X153670000Y-98806000D02*
X153670000Y-97155000D01*
X154051000Y-99187000D02*
X153670000Y-98806000D01*
X154940000Y-97155000D02*
X154940000Y-98679000D01*
X154940000Y-98679000D02*
X154432000Y-99187000D01*
X154432000Y-99187000D02*
X154051000Y-99187000D01*
X148590000Y-95123000D02*
X148590000Y-96520000D01*
X149733000Y-93980000D02*
X148590000Y-95123000D01*
X154051000Y-93980000D02*
X149733000Y-93980000D01*
X154940000Y-94869000D02*
X154051000Y-93980000D01*
X154940000Y-95885000D02*
X154940000Y-94869000D01*
X157480000Y-92710000D02*
X143510000Y-92710000D01*
X158750000Y-93980000D02*
X157480000Y-92710000D01*
X158750000Y-95885000D02*
X158750000Y-93980000D01*
X143510000Y-92710000D02*
X142240000Y-91440000D01*
X160020000Y-93980000D02*
X157480000Y-91440000D01*
X157480000Y-91440000D02*
X144780000Y-91440000D01*
X160020000Y-95885000D02*
X160020000Y-93980000D01*
X161290000Y-93980000D02*
X157480000Y-90170000D01*
X157480000Y-90170000D02*
X143510000Y-90170000D01*
X161290000Y-95885000D02*
X161290000Y-93980000D01*
X143510000Y-90170000D02*
X142240000Y-88900000D01*
X157480000Y-88900000D02*
X144780000Y-88900000D01*
X162560000Y-93980000D02*
X157480000Y-88900000D01*
X162560000Y-95885000D02*
X162560000Y-93980000D01*
X143510000Y-87630000D02*
X142240000Y-86360000D01*
X163830000Y-93980000D02*
X157480000Y-87630000D01*
X157480000Y-87630000D02*
X143510000Y-87630000D01*
X163830000Y-95885000D02*
X163830000Y-93980000D01*
X157480000Y-86360000D02*
X144780000Y-86360000D01*
X165100000Y-95885000D02*
X165100000Y-93980000D01*
X165100000Y-93980000D02*
X157480000Y-86360000D01*
X143510000Y-85090000D02*
X142240000Y-83820000D01*
X166370000Y-93943947D02*
X157516053Y-85090000D01*
X157516053Y-85090000D02*
X143510000Y-85090000D01*
X166370000Y-95885000D02*
X166370000Y-93943947D01*
X167640000Y-93980000D02*
X157480000Y-83820000D01*
X157480000Y-83820000D02*
X144780000Y-83820000D01*
X167640000Y-95885000D02*
X167640000Y-93980000D01*
X156210000Y-99060000D02*
X156210000Y-97155000D01*
X149860000Y-105410000D02*
X156210000Y-99060000D01*
X143510000Y-105410000D02*
X149860000Y-105410000D01*
X142240000Y-106680000D02*
X143510000Y-105410000D01*
X157480000Y-98933000D02*
X157480000Y-97155000D01*
X149733000Y-106680000D02*
X157480000Y-98933000D01*
X144780000Y-106680000D02*
X149733000Y-106680000D01*
X158750000Y-98933000D02*
X158750000Y-97155000D01*
X149733000Y-107950000D02*
X158750000Y-98933000D01*
X142240000Y-109220000D02*
X143510000Y-107950000D01*
X143510000Y-107950000D02*
X149733000Y-107950000D01*
X160020000Y-99060000D02*
X160020000Y-97155000D01*
X144780000Y-109220000D02*
X149860000Y-109220000D01*
X149860000Y-109220000D02*
X160020000Y-99060000D01*
X149860000Y-110490000D02*
X161290000Y-99060000D01*
X161290000Y-99060000D02*
X161290000Y-97155000D01*
X143510000Y-110490000D02*
X149860000Y-110490000D01*
X142240000Y-111760000D02*
X143510000Y-110490000D01*
X149860000Y-111760000D02*
X162560000Y-99060000D01*
X162560000Y-99060000D02*
X162560000Y-97155000D01*
X144780000Y-111760000D02*
X149860000Y-111760000D01*
X163830000Y-99123500D02*
X163830000Y-97155000D01*
X149923500Y-113030000D02*
X163830000Y-99123500D01*
X143510000Y-113030000D02*
X149923500Y-113030000D01*
X142240000Y-114300000D02*
X143510000Y-113030000D01*
X165100000Y-99060000D02*
X165100000Y-97155000D01*
X149860000Y-114300000D02*
X165100000Y-99060000D01*
X144780000Y-114300000D02*
X149860000Y-114300000D01*
X175260000Y-99060000D02*
X175260000Y-97155000D01*
X175895000Y-99695000D02*
X175260000Y-99060000D01*
X186055000Y-99695000D02*
X175895000Y-99695000D01*
X187960000Y-101600000D02*
X186055000Y-99695000D01*
X173990000Y-99060000D02*
X173990000Y-97155000D01*
X176530000Y-101600000D02*
X173990000Y-99060000D01*
X185420000Y-101600000D02*
X176530000Y-101600000D01*
X172720000Y-99060000D02*
X172720000Y-97155000D01*
X176530000Y-102870000D02*
X172720000Y-99060000D01*
X186690000Y-102870000D02*
X176530000Y-102870000D01*
X187960000Y-104140000D02*
X186690000Y-102870000D01*
X176530000Y-104140000D02*
X185420000Y-104140000D01*
X171450000Y-97155000D02*
X171450000Y-99060000D01*
X171450000Y-99060000D02*
X176530000Y-104140000D01*
X176530000Y-105410000D02*
X186690000Y-105410000D01*
X170180000Y-99060000D02*
X176530000Y-105410000D01*
X170180000Y-97155000D02*
X170180000Y-99060000D01*
X186690000Y-105410000D02*
X187960000Y-106680000D01*
X168910000Y-99060000D02*
X176530000Y-106680000D01*
X176530000Y-106680000D02*
X185420000Y-106680000D01*
X168910000Y-97155000D02*
X168910000Y-99060000D01*
X186690000Y-107950000D02*
X187960000Y-109220000D01*
X167640000Y-99060000D02*
X176530000Y-107950000D01*
X176530000Y-107950000D02*
X186690000Y-107950000D01*
X167640000Y-97155000D02*
X167640000Y-99060000D01*
X176530000Y-109220000D02*
X185420000Y-109220000D01*
X166370000Y-99060000D02*
X176530000Y-109220000D01*
X166370000Y-97155000D02*
X166370000Y-99060000D01*
X186690000Y-87630000D02*
X187960000Y-86360000D01*
X177800000Y-94034474D02*
X184204474Y-87630000D01*
X177800000Y-96592106D02*
X177800000Y-94034474D01*
X177237106Y-97155000D02*
X177800000Y-96592106D01*
X184204474Y-87630000D02*
X186690000Y-87630000D01*
X176530000Y-97155000D02*
X177237106Y-97155000D01*
X184150000Y-86360000D02*
X185420000Y-86360000D01*
X176530000Y-93980000D02*
X184150000Y-86360000D01*
X176530000Y-95885000D02*
X176530000Y-93980000D01*
X184204974Y-85089500D02*
X186690500Y-85089500D01*
X186690500Y-85089500D02*
X187960000Y-83820000D01*
X175260000Y-94034474D02*
X184204974Y-85089500D01*
X175260000Y-95885000D02*
X175260000Y-94034474D01*
X184150000Y-83820000D02*
X185420000Y-83820000D01*
X173990000Y-93980000D02*
X184150000Y-83820000D01*
X173990000Y-95885000D02*
X173990000Y-93980000D01*
X184204474Y-82550000D02*
X186690000Y-82550000D01*
X186690000Y-82550000D02*
X187960000Y-81280000D01*
X172720000Y-94034474D02*
X184204474Y-82550000D01*
X172720000Y-95885000D02*
X172720000Y-94034474D01*
X184150000Y-81280000D02*
X185420000Y-81280000D01*
X171450000Y-93980000D02*
X184150000Y-81280000D01*
X171450000Y-95885000D02*
X171450000Y-93980000D01*
X186690500Y-80009500D02*
X187960000Y-78740000D01*
X170180000Y-94114695D02*
X184285195Y-80009500D01*
X184285195Y-80009500D02*
X186690500Y-80009500D01*
X170180000Y-95885000D02*
X170180000Y-94114695D01*
X168910000Y-93960000D02*
X184130000Y-78740000D01*
X184130000Y-78740000D02*
X185420000Y-78740000D01*
X168910000Y-95885000D02*
X168910000Y-93960000D01*
G04 #@! TA.AperFunction,Conductor*
G36*
X197807621Y-75204502D02*
G01*
X197854114Y-75258158D01*
X197865500Y-75310500D01*
X197865500Y-117729500D01*
X197845498Y-117797621D01*
X197791842Y-117844114D01*
X197739500Y-117855500D01*
X132460500Y-117855500D01*
X132392379Y-117835498D01*
X132345886Y-117781842D01*
X132334500Y-117729500D01*
X132334500Y-104406962D01*
X141168671Y-104406962D01*
X141193443Y-104504502D01*
X141197284Y-104515348D01*
X141277394Y-104689120D01*
X141283145Y-104699081D01*
X141393579Y-104855343D01*
X141401057Y-104864098D01*
X141538114Y-104997612D01*
X141547058Y-105004855D01*
X141706156Y-105111161D01*
X141716266Y-105116651D01*
X141892077Y-105192185D01*
X141903020Y-105195740D01*
X141968332Y-105210519D01*
X141982405Y-105209630D01*
X141986000Y-105200232D01*
X141986000Y-104412115D01*
X141981525Y-104396876D01*
X141980135Y-104395671D01*
X141972452Y-104394000D01*
X141183494Y-104394000D01*
X141169963Y-104397973D01*
X141168671Y-104406962D01*
X132334500Y-104406962D01*
X132334500Y-103882799D01*
X141167943Y-103882799D01*
X141174675Y-103886000D01*
X141967885Y-103886000D01*
X141983124Y-103881525D01*
X141984329Y-103880135D01*
X141986000Y-103872452D01*
X141986000Y-103867885D01*
X142494000Y-103867885D01*
X142498475Y-103883124D01*
X142499865Y-103884329D01*
X142507548Y-103886000D01*
X143297398Y-103886000D01*
X143308300Y-103882799D01*
X143707943Y-103882799D01*
X143714675Y-103886000D01*
X144507885Y-103886000D01*
X144523124Y-103881525D01*
X144524329Y-103880135D01*
X144526000Y-103872452D01*
X144526000Y-103867885D01*
X145034000Y-103867885D01*
X145038475Y-103883124D01*
X145039865Y-103884329D01*
X145047548Y-103886000D01*
X145837398Y-103886000D01*
X145850929Y-103882027D01*
X145852098Y-103873892D01*
X145816658Y-103748231D01*
X145812533Y-103737484D01*
X145727903Y-103565871D01*
X145721893Y-103556063D01*
X145607400Y-103402739D01*
X145599710Y-103394199D01*
X145459192Y-103264304D01*
X145450067Y-103257303D01*
X145288236Y-103155195D01*
X145277989Y-103149974D01*
X145100260Y-103079068D01*
X145089232Y-103075801D01*
X145051769Y-103068350D01*
X145038894Y-103069502D01*
X145034000Y-103084658D01*
X145034000Y-103867885D01*
X144526000Y-103867885D01*
X144526000Y-103081500D01*
X144522194Y-103068538D01*
X144507279Y-103066602D01*
X144498732Y-103068071D01*
X144487620Y-103071048D01*
X144308095Y-103137279D01*
X144297717Y-103142229D01*
X144133273Y-103240063D01*
X144123961Y-103246829D01*
X143980097Y-103372994D01*
X143972180Y-103381337D01*
X143853718Y-103531605D01*
X143847450Y-103541256D01*
X143758358Y-103710592D01*
X143753953Y-103721227D01*
X143708162Y-103868698D01*
X143707943Y-103882799D01*
X143308300Y-103882799D01*
X143310929Y-103882027D01*
X143312098Y-103873892D01*
X143276658Y-103748231D01*
X143272533Y-103737484D01*
X143187903Y-103565871D01*
X143181893Y-103556063D01*
X143067400Y-103402739D01*
X143059710Y-103394199D01*
X142919192Y-103264304D01*
X142910067Y-103257303D01*
X142748236Y-103155195D01*
X142737989Y-103149974D01*
X142560260Y-103079068D01*
X142549232Y-103075801D01*
X142511769Y-103068350D01*
X142498894Y-103069502D01*
X142494000Y-103084658D01*
X142494000Y-103867885D01*
X141986000Y-103867885D01*
X141986000Y-103081500D01*
X141982194Y-103068538D01*
X141967279Y-103066602D01*
X141958732Y-103068071D01*
X141947620Y-103071048D01*
X141768095Y-103137279D01*
X141757717Y-103142229D01*
X141593273Y-103240063D01*
X141583961Y-103246829D01*
X141440097Y-103372994D01*
X141432180Y-103381337D01*
X141313718Y-103531605D01*
X141307450Y-103541256D01*
X141218358Y-103710592D01*
X141213953Y-103721227D01*
X141168162Y-103868698D01*
X141167943Y-103882799D01*
X132334500Y-103882799D01*
X132334500Y-101570964D01*
X141131148Y-101570964D01*
X141144424Y-101773522D01*
X141145845Y-101779118D01*
X141145846Y-101779123D01*
X141166119Y-101858945D01*
X141194392Y-101970269D01*
X141196809Y-101975512D01*
X141234010Y-102056208D01*
X141279377Y-102154616D01*
X141396533Y-102320389D01*
X141541938Y-102462035D01*
X141710720Y-102574812D01*
X141716023Y-102577090D01*
X141716026Y-102577092D01*
X141804707Y-102615192D01*
X141897228Y-102654942D01*
X141970244Y-102671464D01*
X142089579Y-102698467D01*
X142089584Y-102698468D01*
X142095216Y-102699742D01*
X142100987Y-102699969D01*
X142100989Y-102699969D01*
X142160756Y-102702317D01*
X142298053Y-102707712D01*
X142398499Y-102693148D01*
X142493231Y-102679413D01*
X142493236Y-102679412D01*
X142498945Y-102678584D01*
X142504409Y-102676729D01*
X142504414Y-102676728D01*
X142685693Y-102615192D01*
X142685698Y-102615190D01*
X142691165Y-102613334D01*
X142868276Y-102514147D01*
X142930934Y-102462035D01*
X143003353Y-102401804D01*
X143024345Y-102384345D01*
X143119861Y-102269500D01*
X143150453Y-102232718D01*
X143150455Y-102232715D01*
X143154147Y-102228276D01*
X143253334Y-102051165D01*
X143255190Y-102045698D01*
X143255192Y-102045693D01*
X143316728Y-101864414D01*
X143316729Y-101864409D01*
X143318584Y-101858945D01*
X143319412Y-101853236D01*
X143319413Y-101853231D01*
X143347179Y-101661727D01*
X143347712Y-101658053D01*
X143349232Y-101600000D01*
X143346564Y-101570964D01*
X143671148Y-101570964D01*
X143684424Y-101773522D01*
X143685845Y-101779118D01*
X143685846Y-101779123D01*
X143706119Y-101858945D01*
X143734392Y-101970269D01*
X143736809Y-101975512D01*
X143774010Y-102056208D01*
X143819377Y-102154616D01*
X143936533Y-102320389D01*
X144081938Y-102462035D01*
X144250720Y-102574812D01*
X144256023Y-102577090D01*
X144256026Y-102577092D01*
X144344707Y-102615192D01*
X144437228Y-102654942D01*
X144510244Y-102671464D01*
X144629579Y-102698467D01*
X144629584Y-102698468D01*
X144635216Y-102699742D01*
X144640987Y-102699969D01*
X144640989Y-102699969D01*
X144700756Y-102702317D01*
X144838053Y-102707712D01*
X144938499Y-102693148D01*
X145033231Y-102679413D01*
X145033236Y-102679412D01*
X145038945Y-102678584D01*
X145044409Y-102676729D01*
X145044414Y-102676728D01*
X145225693Y-102615192D01*
X145225698Y-102615190D01*
X145231165Y-102613334D01*
X145408276Y-102514147D01*
X145470934Y-102462035D01*
X145543353Y-102401804D01*
X145564345Y-102384345D01*
X145659861Y-102269500D01*
X145690453Y-102232718D01*
X145690455Y-102232715D01*
X145694147Y-102228276D01*
X145793334Y-102051165D01*
X145795190Y-102045698D01*
X145795192Y-102045693D01*
X145856728Y-101864414D01*
X145856729Y-101864409D01*
X145858584Y-101858945D01*
X145859412Y-101853236D01*
X145859413Y-101853231D01*
X145887179Y-101661727D01*
X145887712Y-101658053D01*
X145889232Y-101600000D01*
X145870658Y-101397859D01*
X145869090Y-101392299D01*
X145817125Y-101208046D01*
X145817124Y-101208044D01*
X145815557Y-101202487D01*
X145804978Y-101181033D01*
X145728331Y-101025609D01*
X145725776Y-101020428D01*
X145604320Y-100857779D01*
X145455258Y-100719987D01*
X145450375Y-100716906D01*
X145450371Y-100716903D01*
X145288464Y-100614748D01*
X145283581Y-100611667D01*
X145095039Y-100536446D01*
X145089379Y-100535320D01*
X145089375Y-100535319D01*
X144901613Y-100497971D01*
X144901610Y-100497971D01*
X144895946Y-100496844D01*
X144890171Y-100496768D01*
X144890167Y-100496768D01*
X144788793Y-100495441D01*
X144692971Y-100494187D01*
X144687274Y-100495166D01*
X144687273Y-100495166D01*
X144613492Y-100507844D01*
X144492910Y-100528564D01*
X144302463Y-100598824D01*
X144128010Y-100702612D01*
X144123670Y-100706418D01*
X144123666Y-100706421D01*
X144011435Y-100804846D01*
X143975392Y-100836455D01*
X143849720Y-100995869D01*
X143847031Y-101000980D01*
X143847029Y-101000983D01*
X143834330Y-101025120D01*
X143755203Y-101175515D01*
X143695007Y-101369378D01*
X143671148Y-101570964D01*
X143346564Y-101570964D01*
X143330658Y-101397859D01*
X143329090Y-101392299D01*
X143277125Y-101208046D01*
X143277124Y-101208044D01*
X143275557Y-101202487D01*
X143264978Y-101181033D01*
X143188331Y-101025609D01*
X143185776Y-101020428D01*
X143064320Y-100857779D01*
X142915258Y-100719987D01*
X142910375Y-100716906D01*
X142910371Y-100716903D01*
X142748464Y-100614748D01*
X142743581Y-100611667D01*
X142555039Y-100536446D01*
X142549379Y-100535320D01*
X142549375Y-100535319D01*
X142361613Y-100497971D01*
X142361610Y-100497971D01*
X142355946Y-100496844D01*
X142350171Y-100496768D01*
X142350167Y-100496768D01*
X142248793Y-100495441D01*
X142152971Y-100494187D01*
X142147274Y-100495166D01*
X142147273Y-100495166D01*
X142073492Y-100507844D01*
X141952910Y-100528564D01*
X141762463Y-100598824D01*
X141588010Y-100702612D01*
X141583670Y-100706418D01*
X141583666Y-100706421D01*
X141471435Y-100804846D01*
X141435392Y-100836455D01*
X141309720Y-100995869D01*
X141307031Y-101000980D01*
X141307029Y-101000983D01*
X141294330Y-101025120D01*
X141215203Y-101175515D01*
X141155007Y-101369378D01*
X141131148Y-101570964D01*
X132334500Y-101570964D01*
X132334500Y-95494933D01*
X140985500Y-95494933D01*
X140985501Y-97545066D01*
X141000266Y-97619301D01*
X141007161Y-97629620D01*
X141007162Y-97629622D01*
X141015376Y-97641915D01*
X141056516Y-97703484D01*
X141140699Y-97759734D01*
X141214933Y-97774500D01*
X142239834Y-97774500D01*
X143265066Y-97774499D01*
X143300818Y-97767388D01*
X143327126Y-97762156D01*
X143327128Y-97762155D01*
X143339301Y-97759734D01*
X143349621Y-97752839D01*
X143349622Y-97752838D01*
X143413168Y-97710377D01*
X143423484Y-97703484D01*
X143479734Y-97619301D01*
X143494500Y-97545067D01*
X143494500Y-97479735D01*
X143514502Y-97411614D01*
X143568158Y-97365121D01*
X143638432Y-97355017D01*
X143703012Y-97384511D01*
X143709595Y-97390640D01*
X146936917Y-100617962D01*
X146943867Y-100626659D01*
X146944327Y-100626267D01*
X146950145Y-100633103D01*
X146954935Y-100640695D01*
X146961663Y-100646637D01*
X146992374Y-100673760D01*
X146998061Y-100679106D01*
X147008568Y-100689613D01*
X147016128Y-100695279D01*
X147023959Y-100701655D01*
X147056810Y-100730668D01*
X147064937Y-100734483D01*
X147070362Y-100738047D01*
X147076939Y-100741999D01*
X147082609Y-100745103D01*
X147089791Y-100750486D01*
X147098195Y-100753637D01*
X147098196Y-100753637D01*
X147111565Y-100758649D01*
X147130854Y-100765880D01*
X147140155Y-100769799D01*
X147179843Y-100788432D01*
X147188713Y-100789813D01*
X147194905Y-100791706D01*
X147202344Y-100793658D01*
X147208658Y-100795046D01*
X147217060Y-100798196D01*
X147226006Y-100798861D01*
X147226007Y-100798861D01*
X147260782Y-100801445D01*
X147270827Y-100802598D01*
X147275111Y-100803265D01*
X147278228Y-100803751D01*
X147278230Y-100803751D01*
X147283039Y-100804500D01*
X147297206Y-100804500D01*
X147306544Y-100804846D01*
X147352605Y-100808269D01*
X147361381Y-100806396D01*
X147370338Y-100805785D01*
X147370345Y-100805895D01*
X147383561Y-100804500D01*
X152078746Y-100804500D01*
X152089805Y-100805736D01*
X152089854Y-100805133D01*
X152098798Y-100805853D01*
X152107555Y-100807834D01*
X152157395Y-100804742D01*
X152165197Y-100804500D01*
X152180069Y-100804500D01*
X152189418Y-100803161D01*
X152199467Y-100802132D01*
X152234252Y-100799974D01*
X152234253Y-100799974D01*
X152243212Y-100799418D01*
X152251652Y-100796371D01*
X152258016Y-100795053D01*
X152265457Y-100793197D01*
X152271659Y-100791383D01*
X152280546Y-100790111D01*
X152288717Y-100786396D01*
X152288720Y-100786395D01*
X152320471Y-100771959D01*
X152329835Y-100768147D01*
X152362615Y-100756313D01*
X152362617Y-100756312D01*
X152371054Y-100753266D01*
X152378298Y-100747975D01*
X152384003Y-100744941D01*
X152390678Y-100741040D01*
X152396107Y-100737568D01*
X152404275Y-100733854D01*
X152411071Y-100727998D01*
X152411076Y-100727995D01*
X152437491Y-100705235D01*
X152445406Y-100698950D01*
X152451451Y-100694534D01*
X152451455Y-100694531D01*
X152455387Y-100691658D01*
X152465410Y-100681635D01*
X152472257Y-100675277D01*
X152500440Y-100650993D01*
X152507242Y-100645132D01*
X152512126Y-100637597D01*
X152518025Y-100630835D01*
X152518109Y-100630908D01*
X152526466Y-100620579D01*
X153582768Y-99564276D01*
X153645080Y-99530251D01*
X153715895Y-99535315D01*
X153755270Y-99558930D01*
X153787810Y-99587668D01*
X153795933Y-99591482D01*
X153801351Y-99595041D01*
X153807934Y-99598997D01*
X153813611Y-99602105D01*
X153820791Y-99607486D01*
X153829196Y-99610637D01*
X153829198Y-99610638D01*
X153840042Y-99614703D01*
X153861854Y-99622880D01*
X153871155Y-99626799D01*
X153910843Y-99645432D01*
X153919713Y-99646813D01*
X153925905Y-99648706D01*
X153933330Y-99650654D01*
X153939652Y-99652044D01*
X153948060Y-99655196D01*
X153957013Y-99655861D01*
X153957016Y-99655862D01*
X153991777Y-99658445D01*
X154001820Y-99659598D01*
X154005444Y-99660162D01*
X154014039Y-99661500D01*
X154028215Y-99661500D01*
X154037552Y-99661846D01*
X154044827Y-99662387D01*
X154083604Y-99665268D01*
X154092380Y-99663395D01*
X154101336Y-99662784D01*
X154101344Y-99662894D01*
X154114554Y-99661500D01*
X154364746Y-99661500D01*
X154375805Y-99662736D01*
X154375854Y-99662133D01*
X154384798Y-99662853D01*
X154393555Y-99664834D01*
X154443395Y-99661742D01*
X154451197Y-99661500D01*
X154466069Y-99661500D01*
X154475418Y-99660161D01*
X154485467Y-99659132D01*
X154520252Y-99656974D01*
X154520253Y-99656974D01*
X154529212Y-99656418D01*
X154537652Y-99653371D01*
X154544016Y-99652053D01*
X154551457Y-99650197D01*
X154557659Y-99648383D01*
X154566546Y-99647111D01*
X154574717Y-99643396D01*
X154574720Y-99643395D01*
X154606471Y-99628959D01*
X154615835Y-99625147D01*
X154644764Y-99614703D01*
X154715629Y-99610385D01*
X154777579Y-99645064D01*
X154810946Y-99707732D01*
X154805135Y-99778490D01*
X154776645Y-99822311D01*
X152223457Y-102375498D01*
X149700360Y-104898595D01*
X149638048Y-104932621D01*
X149611265Y-104935500D01*
X145814901Y-104935500D01*
X145746780Y-104915498D01*
X145700287Y-104861842D01*
X145690183Y-104791568D01*
X145704966Y-104747934D01*
X145790056Y-104595994D01*
X145794730Y-104585497D01*
X145855443Y-104406644D01*
X145854210Y-104397993D01*
X145840642Y-104394000D01*
X143723494Y-104394000D01*
X143709963Y-104397973D01*
X143708671Y-104406962D01*
X143733443Y-104504502D01*
X143737284Y-104515348D01*
X143817394Y-104689120D01*
X143823145Y-104699081D01*
X143849788Y-104736780D01*
X143872769Y-104803954D01*
X143855785Y-104872889D01*
X143804227Y-104921699D01*
X143746891Y-104935500D01*
X143577254Y-104935500D01*
X143566195Y-104934264D01*
X143566146Y-104934867D01*
X143557202Y-104934147D01*
X143548445Y-104932166D01*
X143500281Y-104935154D01*
X143498605Y-104935258D01*
X143490803Y-104935500D01*
X143475931Y-104935500D01*
X143466582Y-104936839D01*
X143456533Y-104937868D01*
X143421748Y-104940026D01*
X143421747Y-104940026D01*
X143412788Y-104940582D01*
X143404348Y-104943629D01*
X143397984Y-104944947D01*
X143390536Y-104946805D01*
X143384339Y-104948617D01*
X143375454Y-104949889D01*
X143367288Y-104953602D01*
X143367284Y-104953603D01*
X143335533Y-104968040D01*
X143326163Y-104971854D01*
X143293389Y-104983685D01*
X143293385Y-104983687D01*
X143284945Y-104986734D01*
X143283563Y-104987743D01*
X143217607Y-105001326D01*
X143151366Y-104975779D01*
X143109453Y-104918475D01*
X143105174Y-104847607D01*
X143131116Y-104795186D01*
X143150042Y-104772430D01*
X143156552Y-104762958D01*
X143250056Y-104595994D01*
X143254730Y-104585497D01*
X143315443Y-104406644D01*
X143314210Y-104397993D01*
X143300642Y-104394000D01*
X142512115Y-104394000D01*
X142496876Y-104398475D01*
X142495671Y-104399865D01*
X142494000Y-104407548D01*
X142494000Y-105200681D01*
X142497966Y-105214187D01*
X142506672Y-105215433D01*
X142685497Y-105154730D01*
X142695998Y-105150055D01*
X142816939Y-105082324D01*
X142886148Y-105066490D01*
X142952930Y-105090587D01*
X142996083Y-105146963D01*
X143001906Y-105217721D01*
X142967601Y-105281353D01*
X142667278Y-105581676D01*
X142604966Y-105615702D01*
X142553602Y-105616160D01*
X142361613Y-105577971D01*
X142361610Y-105577971D01*
X142355946Y-105576844D01*
X142350171Y-105576768D01*
X142350167Y-105576768D01*
X142248793Y-105575441D01*
X142152971Y-105574187D01*
X142147274Y-105575166D01*
X142147273Y-105575166D01*
X141958607Y-105607585D01*
X141952910Y-105608564D01*
X141762463Y-105678824D01*
X141588010Y-105782612D01*
X141583670Y-105786418D01*
X141583666Y-105786421D01*
X141449022Y-105904502D01*
X141435392Y-105916455D01*
X141309720Y-106075869D01*
X141307032Y-106080978D01*
X141307029Y-106080983D01*
X141278490Y-106135227D01*
X141215203Y-106255515D01*
X141155007Y-106449378D01*
X141131148Y-106650964D01*
X141144424Y-106853522D01*
X141145845Y-106859118D01*
X141145846Y-106859123D01*
X141166119Y-106938945D01*
X141194392Y-107050269D01*
X141196809Y-107055512D01*
X141274652Y-107224367D01*
X141279377Y-107234616D01*
X141396533Y-107400389D01*
X141541938Y-107542035D01*
X141546742Y-107545245D01*
X141552859Y-107549332D01*
X141710720Y-107654812D01*
X141716023Y-107657090D01*
X141716026Y-107657092D01*
X141804707Y-107695192D01*
X141897228Y-107734942D01*
X141970244Y-107751464D01*
X142089579Y-107778467D01*
X142089584Y-107778468D01*
X142095216Y-107779742D01*
X142100987Y-107779969D01*
X142100989Y-107779969D01*
X142160756Y-107782317D01*
X142298053Y-107787712D01*
X142398499Y-107773148D01*
X142493231Y-107759413D01*
X142493236Y-107759412D01*
X142498945Y-107758584D01*
X142504409Y-107756729D01*
X142504414Y-107756728D01*
X142685693Y-107695192D01*
X142685698Y-107695190D01*
X142691165Y-107693334D01*
X142815642Y-107623624D01*
X142884848Y-107607791D01*
X142951631Y-107631888D01*
X142994783Y-107688265D01*
X143000606Y-107759022D01*
X142966301Y-107822655D01*
X142667278Y-108121677D01*
X142604966Y-108155702D01*
X142553602Y-108156160D01*
X142361613Y-108117971D01*
X142361610Y-108117971D01*
X142355946Y-108116844D01*
X142350171Y-108116768D01*
X142350167Y-108116768D01*
X142248793Y-108115441D01*
X142152971Y-108114187D01*
X142147274Y-108115166D01*
X142147273Y-108115166D01*
X141958607Y-108147585D01*
X141952910Y-108148564D01*
X141762463Y-108218824D01*
X141588010Y-108322612D01*
X141583670Y-108326418D01*
X141583666Y-108326421D01*
X141449022Y-108444502D01*
X141435392Y-108456455D01*
X141309720Y-108615869D01*
X141307032Y-108620978D01*
X141307029Y-108620983D01*
X141278490Y-108675227D01*
X141215203Y-108795515D01*
X141155007Y-108989378D01*
X141131148Y-109190964D01*
X141144424Y-109393522D01*
X141145845Y-109399118D01*
X141145846Y-109399123D01*
X141175697Y-109516659D01*
X141194392Y-109590269D01*
X141196809Y-109595512D01*
X141274652Y-109764367D01*
X141279377Y-109774616D01*
X141396533Y-109940389D01*
X141541938Y-110082035D01*
X141546742Y-110085245D01*
X141595865Y-110118068D01*
X141710720Y-110194812D01*
X141716023Y-110197090D01*
X141716026Y-110197092D01*
X141804707Y-110235192D01*
X141897228Y-110274942D01*
X141970244Y-110291464D01*
X142089579Y-110318467D01*
X142089584Y-110318468D01*
X142095216Y-110319742D01*
X142100987Y-110319969D01*
X142100989Y-110319969D01*
X142160756Y-110322317D01*
X142298053Y-110327712D01*
X142398499Y-110313148D01*
X142493231Y-110299413D01*
X142493236Y-110299412D01*
X142498945Y-110298584D01*
X142504409Y-110296729D01*
X142504414Y-110296728D01*
X142685693Y-110235192D01*
X142685698Y-110235190D01*
X142691165Y-110233334D01*
X142815642Y-110163624D01*
X142884848Y-110147791D01*
X142951631Y-110171888D01*
X142994783Y-110228265D01*
X143000606Y-110299022D01*
X142966301Y-110362655D01*
X142667278Y-110661677D01*
X142604966Y-110695702D01*
X142553602Y-110696160D01*
X142361613Y-110657971D01*
X142361610Y-110657971D01*
X142355946Y-110656844D01*
X142350171Y-110656768D01*
X142350167Y-110656768D01*
X142248793Y-110655441D01*
X142152971Y-110654187D01*
X142147274Y-110655166D01*
X142147273Y-110655166D01*
X142109382Y-110661677D01*
X141952910Y-110688564D01*
X141762463Y-110758824D01*
X141588010Y-110862612D01*
X141583670Y-110866418D01*
X141583666Y-110866421D01*
X141449022Y-110984502D01*
X141435392Y-110996455D01*
X141309720Y-111155869D01*
X141307031Y-111160980D01*
X141307029Y-111160983D01*
X141293935Y-111185871D01*
X141215203Y-111335515D01*
X141155007Y-111529378D01*
X141131148Y-111730964D01*
X141144424Y-111933522D01*
X141145845Y-111939118D01*
X141145846Y-111939123D01*
X141192927Y-112124502D01*
X141194392Y-112130269D01*
X141196809Y-112135512D01*
X141276400Y-112308158D01*
X141279377Y-112314616D01*
X141396533Y-112480389D01*
X141541938Y-112622035D01*
X141546742Y-112625245D01*
X141595865Y-112658068D01*
X141710720Y-112734812D01*
X141716023Y-112737090D01*
X141716026Y-112737092D01*
X141804707Y-112775192D01*
X141897228Y-112814942D01*
X141962140Y-112829630D01*
X142089579Y-112858467D01*
X142089584Y-112858468D01*
X142095216Y-112859742D01*
X142100987Y-112859969D01*
X142100989Y-112859969D01*
X142160756Y-112862317D01*
X142298053Y-112867712D01*
X142398499Y-112853148D01*
X142493231Y-112839413D01*
X142493236Y-112839412D01*
X142498945Y-112838584D01*
X142504409Y-112836729D01*
X142504414Y-112836728D01*
X142685693Y-112775192D01*
X142685698Y-112775190D01*
X142691165Y-112773334D01*
X142815642Y-112703624D01*
X142884848Y-112687791D01*
X142951631Y-112711888D01*
X142994783Y-112768265D01*
X143000606Y-112839022D01*
X142966301Y-112902655D01*
X142667278Y-113201677D01*
X142604966Y-113235702D01*
X142553602Y-113236160D01*
X142361613Y-113197971D01*
X142361610Y-113197971D01*
X142355946Y-113196844D01*
X142350171Y-113196768D01*
X142350167Y-113196768D01*
X142248793Y-113195441D01*
X142152971Y-113194187D01*
X142147274Y-113195166D01*
X142147273Y-113195166D01*
X142109382Y-113201677D01*
X141952910Y-113228564D01*
X141762463Y-113298824D01*
X141588010Y-113402612D01*
X141583670Y-113406418D01*
X141583666Y-113406421D01*
X141468028Y-113507834D01*
X141435392Y-113536455D01*
X141309720Y-113695869D01*
X141307031Y-113700980D01*
X141307029Y-113700983D01*
X141294073Y-113725609D01*
X141215203Y-113875515D01*
X141155007Y-114069378D01*
X141131148Y-114270964D01*
X141144424Y-114473522D01*
X141145845Y-114479118D01*
X141145846Y-114479123D01*
X141191329Y-114658210D01*
X141194392Y-114670269D01*
X141196809Y-114675512D01*
X141234010Y-114756208D01*
X141279377Y-114854616D01*
X141396533Y-115020389D01*
X141541938Y-115162035D01*
X141710720Y-115274812D01*
X141716023Y-115277090D01*
X141716026Y-115277092D01*
X141847283Y-115333484D01*
X141897228Y-115354942D01*
X141970244Y-115371464D01*
X142089579Y-115398467D01*
X142089584Y-115398468D01*
X142095216Y-115399742D01*
X142100987Y-115399969D01*
X142100989Y-115399969D01*
X142160756Y-115402317D01*
X142298053Y-115407712D01*
X142405348Y-115392155D01*
X142493231Y-115379413D01*
X142493236Y-115379412D01*
X142498945Y-115378584D01*
X142504409Y-115376729D01*
X142504414Y-115376728D01*
X142685693Y-115315192D01*
X142685698Y-115315190D01*
X142691165Y-115313334D01*
X142868276Y-115214147D01*
X142907969Y-115181135D01*
X143019913Y-115088031D01*
X143024345Y-115084345D01*
X143154147Y-114928276D01*
X143240266Y-114774500D01*
X143250510Y-114756208D01*
X143250511Y-114756206D01*
X143253334Y-114751165D01*
X143255190Y-114745698D01*
X143255192Y-114745693D01*
X143316728Y-114564414D01*
X143316729Y-114564409D01*
X143318584Y-114558945D01*
X143319412Y-114553236D01*
X143319413Y-114553231D01*
X143347179Y-114361727D01*
X143347712Y-114358053D01*
X143349232Y-114300000D01*
X143330658Y-114097859D01*
X143302863Y-113999306D01*
X143303623Y-113928313D01*
X143335036Y-113876009D01*
X143388424Y-113822621D01*
X143460405Y-113750639D01*
X143522716Y-113716615D01*
X143593532Y-113721679D01*
X143650368Y-113764226D01*
X143675179Y-113830746D01*
X143675500Y-113839735D01*
X143675501Y-114553231D01*
X143675501Y-115175066D01*
X143690266Y-115249301D01*
X143697161Y-115259620D01*
X143697162Y-115259622D01*
X143737516Y-115320015D01*
X143746516Y-115333484D01*
X143830699Y-115389734D01*
X143904933Y-115404500D01*
X144779858Y-115404500D01*
X145655066Y-115404499D01*
X145690818Y-115397388D01*
X145717126Y-115392156D01*
X145717128Y-115392155D01*
X145729301Y-115389734D01*
X145739621Y-115382839D01*
X145739622Y-115382838D01*
X145803168Y-115340377D01*
X145813484Y-115333484D01*
X145869734Y-115249301D01*
X145884500Y-115175067D01*
X145884500Y-114900500D01*
X145904502Y-114832379D01*
X145958158Y-114785886D01*
X146010500Y-114774500D01*
X149792746Y-114774500D01*
X149803805Y-114775736D01*
X149803854Y-114775133D01*
X149812798Y-114775853D01*
X149821555Y-114777834D01*
X149871395Y-114774742D01*
X149879197Y-114774500D01*
X149894069Y-114774500D01*
X149903418Y-114773161D01*
X149913467Y-114772132D01*
X149948252Y-114769974D01*
X149948253Y-114769974D01*
X149957212Y-114769418D01*
X149965652Y-114766371D01*
X149972016Y-114765053D01*
X149979457Y-114763197D01*
X149985659Y-114761383D01*
X149994546Y-114760111D01*
X150002717Y-114756396D01*
X150002720Y-114756395D01*
X150034471Y-114741959D01*
X150043835Y-114738147D01*
X150076615Y-114726313D01*
X150076617Y-114726312D01*
X150085054Y-114723266D01*
X150092298Y-114717975D01*
X150098003Y-114714941D01*
X150104678Y-114711040D01*
X150110107Y-114707568D01*
X150118275Y-114703854D01*
X150125071Y-114697998D01*
X150125076Y-114697995D01*
X150151491Y-114675235D01*
X150159406Y-114668950D01*
X150165451Y-114664534D01*
X150165455Y-114664531D01*
X150169387Y-114661658D01*
X150179410Y-114651635D01*
X150186257Y-114645277D01*
X150214440Y-114620993D01*
X150221242Y-114615132D01*
X150226126Y-114607597D01*
X150232025Y-114600835D01*
X150232109Y-114600908D01*
X150240466Y-114590579D01*
X150560081Y-114270964D01*
X184311148Y-114270964D01*
X184324424Y-114473522D01*
X184325845Y-114479118D01*
X184325846Y-114479123D01*
X184371329Y-114658210D01*
X184374392Y-114670269D01*
X184376809Y-114675512D01*
X184414010Y-114756208D01*
X184459377Y-114854616D01*
X184576533Y-115020389D01*
X184721938Y-115162035D01*
X184890720Y-115274812D01*
X184896023Y-115277090D01*
X184896026Y-115277092D01*
X185027283Y-115333484D01*
X185077228Y-115354942D01*
X185150244Y-115371464D01*
X185269579Y-115398467D01*
X185269584Y-115398468D01*
X185275216Y-115399742D01*
X185280987Y-115399969D01*
X185280989Y-115399969D01*
X185340756Y-115402317D01*
X185478053Y-115407712D01*
X185585348Y-115392155D01*
X185673231Y-115379413D01*
X185673236Y-115379412D01*
X185678945Y-115378584D01*
X185684409Y-115376729D01*
X185684414Y-115376728D01*
X185865693Y-115315192D01*
X185865698Y-115315190D01*
X185871165Y-115313334D01*
X186048276Y-115214147D01*
X186087969Y-115181135D01*
X186199913Y-115088031D01*
X186204345Y-115084345D01*
X186334147Y-114928276D01*
X186420266Y-114774500D01*
X186430510Y-114756208D01*
X186430511Y-114756206D01*
X186433334Y-114751165D01*
X186435190Y-114745698D01*
X186435192Y-114745693D01*
X186496728Y-114564414D01*
X186496729Y-114564409D01*
X186498584Y-114558945D01*
X186499412Y-114553236D01*
X186499413Y-114553231D01*
X186527179Y-114361727D01*
X186527712Y-114358053D01*
X186529232Y-114300000D01*
X186526564Y-114270964D01*
X186851148Y-114270964D01*
X186864424Y-114473522D01*
X186865845Y-114479118D01*
X186865846Y-114479123D01*
X186911329Y-114658210D01*
X186914392Y-114670269D01*
X186916809Y-114675512D01*
X186954010Y-114756208D01*
X186999377Y-114854616D01*
X187116533Y-115020389D01*
X187261938Y-115162035D01*
X187430720Y-115274812D01*
X187436023Y-115277090D01*
X187436026Y-115277092D01*
X187567283Y-115333484D01*
X187617228Y-115354942D01*
X187690244Y-115371464D01*
X187809579Y-115398467D01*
X187809584Y-115398468D01*
X187815216Y-115399742D01*
X187820987Y-115399969D01*
X187820989Y-115399969D01*
X187880756Y-115402317D01*
X188018053Y-115407712D01*
X188125348Y-115392155D01*
X188213231Y-115379413D01*
X188213236Y-115379412D01*
X188218945Y-115378584D01*
X188224409Y-115376729D01*
X188224414Y-115376728D01*
X188405693Y-115315192D01*
X188405698Y-115315190D01*
X188411165Y-115313334D01*
X188588276Y-115214147D01*
X188627969Y-115181135D01*
X188739913Y-115088031D01*
X188744345Y-115084345D01*
X188874147Y-114928276D01*
X188960266Y-114774500D01*
X188970510Y-114756208D01*
X188970511Y-114756206D01*
X188973334Y-114751165D01*
X188975190Y-114745698D01*
X188975192Y-114745693D01*
X189036728Y-114564414D01*
X189036729Y-114564409D01*
X189038584Y-114558945D01*
X189039412Y-114553236D01*
X189039413Y-114553231D01*
X189067179Y-114361727D01*
X189067712Y-114358053D01*
X189069232Y-114300000D01*
X189050658Y-114097859D01*
X189049090Y-114092299D01*
X188997125Y-113908046D01*
X188997124Y-113908044D01*
X188995557Y-113902487D01*
X188984978Y-113881033D01*
X188908331Y-113725609D01*
X188905776Y-113720428D01*
X188784320Y-113557779D01*
X188635258Y-113419987D01*
X188630375Y-113416906D01*
X188630371Y-113416903D01*
X188468464Y-113314748D01*
X188463581Y-113311667D01*
X188275039Y-113236446D01*
X188269379Y-113235320D01*
X188269375Y-113235319D01*
X188081613Y-113197971D01*
X188081610Y-113197971D01*
X188075946Y-113196844D01*
X188070171Y-113196768D01*
X188070167Y-113196768D01*
X187968793Y-113195441D01*
X187872971Y-113194187D01*
X187867274Y-113195166D01*
X187867273Y-113195166D01*
X187829382Y-113201677D01*
X187672910Y-113228564D01*
X187482463Y-113298824D01*
X187308010Y-113402612D01*
X187303670Y-113406418D01*
X187303666Y-113406421D01*
X187188028Y-113507834D01*
X187155392Y-113536455D01*
X187029720Y-113695869D01*
X187027031Y-113700980D01*
X187027029Y-113700983D01*
X187014073Y-113725609D01*
X186935203Y-113875515D01*
X186875007Y-114069378D01*
X186851148Y-114270964D01*
X186526564Y-114270964D01*
X186510658Y-114097859D01*
X186509090Y-114092299D01*
X186457125Y-113908046D01*
X186457124Y-113908044D01*
X186455557Y-113902487D01*
X186444978Y-113881033D01*
X186368331Y-113725609D01*
X186365776Y-113720428D01*
X186244320Y-113557779D01*
X186095258Y-113419987D01*
X186090375Y-113416906D01*
X186090371Y-113416903D01*
X185928464Y-113314748D01*
X185923581Y-113311667D01*
X185735039Y-113236446D01*
X185729379Y-113235320D01*
X185729375Y-113235319D01*
X185541613Y-113197971D01*
X185541610Y-113197971D01*
X185535946Y-113196844D01*
X185530171Y-113196768D01*
X185530167Y-113196768D01*
X185428793Y-113195441D01*
X185332971Y-113194187D01*
X185327274Y-113195166D01*
X185327273Y-113195166D01*
X185289382Y-113201677D01*
X185132910Y-113228564D01*
X184942463Y-113298824D01*
X184768010Y-113402612D01*
X184763670Y-113406418D01*
X184763666Y-113406421D01*
X184648028Y-113507834D01*
X184615392Y-113536455D01*
X184489720Y-113695869D01*
X184487031Y-113700980D01*
X184487029Y-113700983D01*
X184474073Y-113725609D01*
X184395203Y-113875515D01*
X184335007Y-114069378D01*
X184311148Y-114270964D01*
X150560081Y-114270964D01*
X152804083Y-112026962D01*
X184348671Y-112026962D01*
X184373443Y-112124502D01*
X184377284Y-112135348D01*
X184457394Y-112309120D01*
X184463145Y-112319081D01*
X184573579Y-112475343D01*
X184581057Y-112484098D01*
X184718114Y-112617612D01*
X184727058Y-112624855D01*
X184886156Y-112731161D01*
X184896266Y-112736651D01*
X185072077Y-112812185D01*
X185083020Y-112815740D01*
X185148332Y-112830519D01*
X185162405Y-112829630D01*
X185165828Y-112820681D01*
X185674000Y-112820681D01*
X185677966Y-112834187D01*
X185686672Y-112835433D01*
X185865497Y-112774730D01*
X185875994Y-112770056D01*
X186042958Y-112676552D01*
X186052430Y-112670042D01*
X186199553Y-112547682D01*
X186207682Y-112539553D01*
X186330042Y-112392430D01*
X186336552Y-112382958D01*
X186430056Y-112215994D01*
X186434730Y-112205497D01*
X186495335Y-112026962D01*
X186888671Y-112026962D01*
X186913443Y-112124502D01*
X186917284Y-112135348D01*
X186997394Y-112309120D01*
X187003145Y-112319081D01*
X187113579Y-112475343D01*
X187121057Y-112484098D01*
X187258114Y-112617612D01*
X187267058Y-112624855D01*
X187426156Y-112731161D01*
X187436266Y-112736651D01*
X187612077Y-112812185D01*
X187623020Y-112815740D01*
X187688332Y-112830519D01*
X187702405Y-112829630D01*
X187705828Y-112820681D01*
X188214000Y-112820681D01*
X188217966Y-112834187D01*
X188226672Y-112835433D01*
X188405497Y-112774730D01*
X188415994Y-112770056D01*
X188582958Y-112676552D01*
X188592430Y-112670042D01*
X188739553Y-112547682D01*
X188747682Y-112539553D01*
X188870042Y-112392430D01*
X188876552Y-112382958D01*
X188970056Y-112215994D01*
X188974730Y-112205497D01*
X189035443Y-112026644D01*
X189034210Y-112017993D01*
X189020642Y-112014000D01*
X188232115Y-112014000D01*
X188216876Y-112018475D01*
X188215671Y-112019865D01*
X188214000Y-112027548D01*
X188214000Y-112820681D01*
X187705828Y-112820681D01*
X187706000Y-112820232D01*
X187706000Y-112032115D01*
X187701525Y-112016876D01*
X187700135Y-112015671D01*
X187692452Y-112014000D01*
X186903494Y-112014000D01*
X186889963Y-112017973D01*
X186888671Y-112026962D01*
X186495335Y-112026962D01*
X186495443Y-112026644D01*
X186494210Y-112017993D01*
X186480642Y-112014000D01*
X185692115Y-112014000D01*
X185676876Y-112018475D01*
X185675671Y-112019865D01*
X185674000Y-112027548D01*
X185674000Y-112820681D01*
X185165828Y-112820681D01*
X185166000Y-112820232D01*
X185166000Y-112032115D01*
X185161525Y-112016876D01*
X185160135Y-112015671D01*
X185152452Y-112014000D01*
X184363494Y-112014000D01*
X184349963Y-112017973D01*
X184348671Y-112026962D01*
X152804083Y-112026962D01*
X153328246Y-111502799D01*
X184347943Y-111502799D01*
X184354675Y-111506000D01*
X185147885Y-111506000D01*
X185163124Y-111501525D01*
X185164329Y-111500135D01*
X185166000Y-111492452D01*
X185166000Y-111487885D01*
X185674000Y-111487885D01*
X185678475Y-111503124D01*
X185679865Y-111504329D01*
X185687548Y-111506000D01*
X186477398Y-111506000D01*
X186488300Y-111502799D01*
X186887943Y-111502799D01*
X186894675Y-111506000D01*
X187687885Y-111506000D01*
X187703124Y-111501525D01*
X187704329Y-111500135D01*
X187706000Y-111492452D01*
X187706000Y-111487885D01*
X188214000Y-111487885D01*
X188218475Y-111503124D01*
X188219865Y-111504329D01*
X188227548Y-111506000D01*
X189017398Y-111506000D01*
X189030929Y-111502027D01*
X189032098Y-111493892D01*
X188996658Y-111368231D01*
X188992533Y-111357484D01*
X188907903Y-111185871D01*
X188901893Y-111176063D01*
X188787400Y-111022739D01*
X188779710Y-111014199D01*
X188639192Y-110884304D01*
X188630067Y-110877303D01*
X188468236Y-110775195D01*
X188457989Y-110769974D01*
X188280260Y-110699068D01*
X188269232Y-110695801D01*
X188231769Y-110688350D01*
X188218894Y-110689502D01*
X188214000Y-110704658D01*
X188214000Y-111487885D01*
X187706000Y-111487885D01*
X187706000Y-110701500D01*
X187702194Y-110688538D01*
X187687279Y-110686602D01*
X187678732Y-110688071D01*
X187667620Y-110691048D01*
X187488095Y-110757279D01*
X187477717Y-110762229D01*
X187313273Y-110860063D01*
X187303961Y-110866829D01*
X187160097Y-110992994D01*
X187152180Y-111001337D01*
X187033718Y-111151605D01*
X187027450Y-111161256D01*
X186938358Y-111330592D01*
X186933953Y-111341227D01*
X186888162Y-111488698D01*
X186887943Y-111502799D01*
X186488300Y-111502799D01*
X186490929Y-111502027D01*
X186492098Y-111493892D01*
X186456658Y-111368231D01*
X186452533Y-111357484D01*
X186367903Y-111185871D01*
X186361893Y-111176063D01*
X186247400Y-111022739D01*
X186239710Y-111014199D01*
X186099192Y-110884304D01*
X186090067Y-110877303D01*
X185928236Y-110775195D01*
X185917989Y-110769974D01*
X185740260Y-110699068D01*
X185729232Y-110695801D01*
X185691769Y-110688350D01*
X185678894Y-110689502D01*
X185674000Y-110704658D01*
X185674000Y-111487885D01*
X185166000Y-111487885D01*
X185166000Y-110701500D01*
X185162194Y-110688538D01*
X185147279Y-110686602D01*
X185138732Y-110688071D01*
X185127620Y-110691048D01*
X184948095Y-110757279D01*
X184937717Y-110762229D01*
X184773273Y-110860063D01*
X184763961Y-110866829D01*
X184620097Y-110992994D01*
X184612180Y-111001337D01*
X184493718Y-111151605D01*
X184487450Y-111161256D01*
X184398358Y-111330592D01*
X184393953Y-111341227D01*
X184348162Y-111488698D01*
X184347943Y-111502799D01*
X153328246Y-111502799D01*
X165387962Y-99443083D01*
X165396659Y-99436133D01*
X165396267Y-99435673D01*
X165403103Y-99429855D01*
X165410695Y-99425065D01*
X165443760Y-99387626D01*
X165449106Y-99381939D01*
X165459613Y-99371432D01*
X165465279Y-99363872D01*
X165471655Y-99356041D01*
X165494726Y-99329918D01*
X165500668Y-99323190D01*
X165504483Y-99315063D01*
X165508047Y-99309638D01*
X165511999Y-99303061D01*
X165515103Y-99297391D01*
X165520486Y-99290209D01*
X165535880Y-99249146D01*
X165539799Y-99239845D01*
X165558432Y-99200157D01*
X165559813Y-99191287D01*
X165561706Y-99185095D01*
X165563658Y-99177656D01*
X165565046Y-99171342D01*
X165568196Y-99162940D01*
X165569288Y-99148252D01*
X165571445Y-99119218D01*
X165572599Y-99109168D01*
X165573751Y-99101772D01*
X165573751Y-99101770D01*
X165574500Y-99096961D01*
X165574500Y-99082794D01*
X165574846Y-99073456D01*
X165577604Y-99036343D01*
X165578269Y-99027395D01*
X165576396Y-99018619D01*
X165575785Y-99009662D01*
X165575895Y-99009655D01*
X165574500Y-98996439D01*
X165574500Y-97799081D01*
X165594502Y-97730960D01*
X165613608Y-97707835D01*
X165618177Y-97703484D01*
X165648712Y-97674406D01*
X165711836Y-97641915D01*
X165782507Y-97648708D01*
X165826239Y-97678126D01*
X165860136Y-97713227D01*
X165893069Y-97776123D01*
X165895500Y-97800754D01*
X165895500Y-98992746D01*
X165894264Y-99003805D01*
X165894867Y-99003854D01*
X165894147Y-99012798D01*
X165892166Y-99021555D01*
X165894063Y-99052128D01*
X165895258Y-99071395D01*
X165895500Y-99079197D01*
X165895500Y-99094069D01*
X165896838Y-99103409D01*
X165897868Y-99113467D01*
X165900582Y-99157212D01*
X165903629Y-99165652D01*
X165904947Y-99172016D01*
X165906803Y-99179457D01*
X165908617Y-99185659D01*
X165909889Y-99194546D01*
X165913604Y-99202717D01*
X165913605Y-99202720D01*
X165928041Y-99234471D01*
X165931853Y-99243835D01*
X165946734Y-99285054D01*
X165952025Y-99292298D01*
X165955059Y-99298003D01*
X165958960Y-99304678D01*
X165962432Y-99310107D01*
X165966146Y-99318275D01*
X165972002Y-99325071D01*
X165972005Y-99325076D01*
X165994765Y-99351491D01*
X166001050Y-99359406D01*
X166005466Y-99365451D01*
X166005469Y-99365455D01*
X166008342Y-99369387D01*
X166018365Y-99379410D01*
X166024722Y-99386256D01*
X166054868Y-99421242D01*
X166062403Y-99426126D01*
X166069165Y-99432025D01*
X166069092Y-99432109D01*
X166079421Y-99440466D01*
X176146917Y-109507962D01*
X176153867Y-109516659D01*
X176154327Y-109516267D01*
X176160145Y-109523103D01*
X176164935Y-109530695D01*
X176171663Y-109536637D01*
X176202374Y-109563760D01*
X176208061Y-109569106D01*
X176218568Y-109579613D01*
X176226128Y-109585279D01*
X176233959Y-109591655D01*
X176266810Y-109620668D01*
X176274937Y-109624483D01*
X176280362Y-109628047D01*
X176286939Y-109631999D01*
X176292609Y-109635103D01*
X176299791Y-109640486D01*
X176340854Y-109655880D01*
X176350155Y-109659799D01*
X176389843Y-109678432D01*
X176398713Y-109679813D01*
X176404905Y-109681706D01*
X176412344Y-109683658D01*
X176418658Y-109685046D01*
X176427060Y-109688196D01*
X176436006Y-109688861D01*
X176436007Y-109688861D01*
X176470782Y-109691445D01*
X176480827Y-109692598D01*
X176485111Y-109693265D01*
X176488228Y-109693751D01*
X176488230Y-109693751D01*
X176493039Y-109694500D01*
X176507206Y-109694500D01*
X176516544Y-109694846D01*
X176562605Y-109698269D01*
X176571381Y-109696396D01*
X176580338Y-109695785D01*
X176580345Y-109695895D01*
X176593561Y-109694500D01*
X184341785Y-109694500D01*
X184409906Y-109714502D01*
X184453538Y-109764674D01*
X184454070Y-109764367D01*
X184455648Y-109767099D01*
X184456209Y-109767745D01*
X184456957Y-109769368D01*
X184456959Y-109769371D01*
X184459377Y-109774616D01*
X184576533Y-109940389D01*
X184721938Y-110082035D01*
X184726742Y-110085245D01*
X184775865Y-110118068D01*
X184890720Y-110194812D01*
X184896023Y-110197090D01*
X184896026Y-110197092D01*
X184984707Y-110235192D01*
X185077228Y-110274942D01*
X185150244Y-110291464D01*
X185269579Y-110318467D01*
X185269584Y-110318468D01*
X185275216Y-110319742D01*
X185280987Y-110319969D01*
X185280989Y-110319969D01*
X185340756Y-110322317D01*
X185478053Y-110327712D01*
X185578499Y-110313148D01*
X185673231Y-110299413D01*
X185673236Y-110299412D01*
X185678945Y-110298584D01*
X185684409Y-110296729D01*
X185684414Y-110296728D01*
X185865693Y-110235192D01*
X185865698Y-110235190D01*
X185871165Y-110233334D01*
X185880217Y-110228265D01*
X185975563Y-110174868D01*
X186048276Y-110134147D01*
X186110934Y-110082035D01*
X186199913Y-110008031D01*
X186204345Y-110004345D01*
X186283148Y-109909595D01*
X186330453Y-109852718D01*
X186330455Y-109852715D01*
X186334147Y-109848276D01*
X186418399Y-109697834D01*
X186430510Y-109676208D01*
X186430511Y-109676206D01*
X186433334Y-109671165D01*
X186435190Y-109665698D01*
X186435192Y-109665693D01*
X186496728Y-109484414D01*
X186496729Y-109484409D01*
X186498584Y-109478945D01*
X186499412Y-109473236D01*
X186499413Y-109473231D01*
X186527179Y-109281727D01*
X186527712Y-109278053D01*
X186529232Y-109220000D01*
X186510658Y-109017859D01*
X186509090Y-109012299D01*
X186457125Y-108828046D01*
X186457124Y-108828044D01*
X186455557Y-108822487D01*
X186444978Y-108801033D01*
X186369004Y-108646974D01*
X186356814Y-108577032D01*
X186384373Y-108511602D01*
X186442932Y-108471459D01*
X186513897Y-108469348D01*
X186571105Y-108502150D01*
X186864644Y-108795688D01*
X186898669Y-108858001D01*
X186895882Y-108922147D01*
X186876721Y-108983858D01*
X186875007Y-108989378D01*
X186851148Y-109190964D01*
X186864424Y-109393522D01*
X186865845Y-109399118D01*
X186865846Y-109399123D01*
X186895697Y-109516659D01*
X186914392Y-109590269D01*
X186916809Y-109595512D01*
X186994652Y-109764367D01*
X186999377Y-109774616D01*
X187116533Y-109940389D01*
X187261938Y-110082035D01*
X187266742Y-110085245D01*
X187315865Y-110118068D01*
X187430720Y-110194812D01*
X187436023Y-110197090D01*
X187436026Y-110197092D01*
X187524707Y-110235192D01*
X187617228Y-110274942D01*
X187690244Y-110291464D01*
X187809579Y-110318467D01*
X187809584Y-110318468D01*
X187815216Y-110319742D01*
X187820987Y-110319969D01*
X187820989Y-110319969D01*
X187880756Y-110322317D01*
X188018053Y-110327712D01*
X188118499Y-110313148D01*
X188213231Y-110299413D01*
X188213236Y-110299412D01*
X188218945Y-110298584D01*
X188224409Y-110296729D01*
X188224414Y-110296728D01*
X188405693Y-110235192D01*
X188405698Y-110235190D01*
X188411165Y-110233334D01*
X188420217Y-110228265D01*
X188515563Y-110174868D01*
X188588276Y-110134147D01*
X188650934Y-110082035D01*
X188739913Y-110008031D01*
X188744345Y-110004345D01*
X188823148Y-109909595D01*
X188870453Y-109852718D01*
X188870455Y-109852715D01*
X188874147Y-109848276D01*
X188958399Y-109697834D01*
X188970510Y-109676208D01*
X188970511Y-109676206D01*
X188973334Y-109671165D01*
X188975190Y-109665698D01*
X188975192Y-109665693D01*
X189036728Y-109484414D01*
X189036729Y-109484409D01*
X189038584Y-109478945D01*
X189039412Y-109473236D01*
X189039413Y-109473231D01*
X189067179Y-109281727D01*
X189067712Y-109278053D01*
X189069232Y-109220000D01*
X189050658Y-109017859D01*
X189049090Y-109012299D01*
X188997125Y-108828046D01*
X188997124Y-108828044D01*
X188995557Y-108822487D01*
X188984978Y-108801033D01*
X188908331Y-108645609D01*
X188905776Y-108640428D01*
X188902320Y-108635799D01*
X188852014Y-108568432D01*
X188784320Y-108477779D01*
X188635258Y-108339987D01*
X188630375Y-108336906D01*
X188630371Y-108336903D01*
X188468464Y-108234748D01*
X188463581Y-108231667D01*
X188275039Y-108156446D01*
X188269379Y-108155320D01*
X188269375Y-108155319D01*
X188081613Y-108117971D01*
X188081610Y-108117971D01*
X188075946Y-108116844D01*
X188070171Y-108116768D01*
X188070167Y-108116768D01*
X187968793Y-108115441D01*
X187872971Y-108114187D01*
X187867274Y-108115166D01*
X187867273Y-108115166D01*
X187830003Y-108121570D01*
X187672910Y-108148564D01*
X187667496Y-108150561D01*
X187667490Y-108150563D01*
X187665813Y-108151182D01*
X187664967Y-108151239D01*
X187661908Y-108152059D01*
X187661747Y-108151458D01*
X187594980Y-108155993D01*
X187533108Y-108122064D01*
X187235743Y-107824698D01*
X187201718Y-107762386D01*
X187206783Y-107691570D01*
X187249330Y-107634735D01*
X187315850Y-107609924D01*
X187385225Y-107625016D01*
X187394826Y-107630828D01*
X187430720Y-107654812D01*
X187436023Y-107657090D01*
X187436026Y-107657092D01*
X187524707Y-107695192D01*
X187617228Y-107734942D01*
X187690244Y-107751464D01*
X187809579Y-107778467D01*
X187809584Y-107778468D01*
X187815216Y-107779742D01*
X187820987Y-107779969D01*
X187820989Y-107779969D01*
X187880756Y-107782317D01*
X188018053Y-107787712D01*
X188118499Y-107773148D01*
X188213231Y-107759413D01*
X188213236Y-107759412D01*
X188218945Y-107758584D01*
X188224409Y-107756729D01*
X188224414Y-107756728D01*
X188405693Y-107695192D01*
X188405698Y-107695190D01*
X188411165Y-107693334D01*
X188420217Y-107688265D01*
X188488513Y-107650017D01*
X188588276Y-107594147D01*
X188650934Y-107542035D01*
X188723353Y-107481804D01*
X188744345Y-107464345D01*
X188823148Y-107369595D01*
X188870453Y-107312718D01*
X188870455Y-107312715D01*
X188874147Y-107308276D01*
X188963796Y-107148196D01*
X188970510Y-107136208D01*
X188970511Y-107136206D01*
X188973334Y-107131165D01*
X188975190Y-107125698D01*
X188975192Y-107125693D01*
X189036728Y-106944414D01*
X189036729Y-106944409D01*
X189038584Y-106938945D01*
X189039412Y-106933236D01*
X189039413Y-106933231D01*
X189067179Y-106741727D01*
X189067712Y-106738053D01*
X189069232Y-106680000D01*
X189050658Y-106477859D01*
X189049090Y-106472299D01*
X188997125Y-106288046D01*
X188997124Y-106288044D01*
X188995557Y-106282487D01*
X188984978Y-106261033D01*
X188908331Y-106105609D01*
X188905776Y-106100428D01*
X188902320Y-106095799D01*
X188852014Y-106028432D01*
X188784320Y-105937779D01*
X188635258Y-105799987D01*
X188630375Y-105796906D01*
X188630371Y-105796903D01*
X188468464Y-105694748D01*
X188463581Y-105691667D01*
X188275039Y-105616446D01*
X188269379Y-105615320D01*
X188269375Y-105615319D01*
X188081613Y-105577971D01*
X188081610Y-105577971D01*
X188075946Y-105576844D01*
X188070171Y-105576768D01*
X188070167Y-105576768D01*
X187968793Y-105575441D01*
X187872971Y-105574187D01*
X187867274Y-105575166D01*
X187867273Y-105575166D01*
X187830003Y-105581570D01*
X187672910Y-105608564D01*
X187667496Y-105610561D01*
X187667490Y-105610563D01*
X187665813Y-105611182D01*
X187664967Y-105611239D01*
X187661908Y-105612059D01*
X187661747Y-105611458D01*
X187594980Y-105615993D01*
X187533108Y-105582064D01*
X187235743Y-105284698D01*
X187201718Y-105222386D01*
X187206783Y-105151570D01*
X187249330Y-105094735D01*
X187315850Y-105069924D01*
X187385225Y-105085016D01*
X187394826Y-105090828D01*
X187430720Y-105114812D01*
X187436023Y-105117090D01*
X187436026Y-105117092D01*
X187524707Y-105155192D01*
X187617228Y-105194942D01*
X187682140Y-105209630D01*
X187809579Y-105238467D01*
X187809584Y-105238468D01*
X187815216Y-105239742D01*
X187820987Y-105239969D01*
X187820989Y-105239969D01*
X187880756Y-105242317D01*
X188018053Y-105247712D01*
X188118499Y-105233148D01*
X188213231Y-105219413D01*
X188213236Y-105219412D01*
X188218945Y-105218584D01*
X188224409Y-105216729D01*
X188224414Y-105216728D01*
X188405693Y-105155192D01*
X188405698Y-105155190D01*
X188411165Y-105153334D01*
X188422542Y-105146963D01*
X188488513Y-105110017D01*
X188588276Y-105054147D01*
X188650934Y-105002035D01*
X188723353Y-104941804D01*
X188744345Y-104924345D01*
X188874147Y-104768276D01*
X188969264Y-104598432D01*
X188970510Y-104596208D01*
X188970511Y-104596206D01*
X188973334Y-104591165D01*
X188975190Y-104585698D01*
X188975192Y-104585693D01*
X189036728Y-104404414D01*
X189036729Y-104404409D01*
X189038584Y-104398945D01*
X189039412Y-104393236D01*
X189039413Y-104393231D01*
X189067179Y-104201727D01*
X189067712Y-104198053D01*
X189069232Y-104140000D01*
X189050658Y-103937859D01*
X189049090Y-103932299D01*
X188997125Y-103748046D01*
X188997124Y-103748044D01*
X188995557Y-103742487D01*
X188982342Y-103715688D01*
X188908331Y-103565609D01*
X188905776Y-103560428D01*
X188784320Y-103397779D01*
X188635258Y-103259987D01*
X188630375Y-103256906D01*
X188630371Y-103256903D01*
X188484728Y-103165010D01*
X188463581Y-103151667D01*
X188275039Y-103076446D01*
X188269379Y-103075320D01*
X188269375Y-103075319D01*
X188081613Y-103037971D01*
X188081610Y-103037971D01*
X188075946Y-103036844D01*
X188070171Y-103036768D01*
X188070167Y-103036768D01*
X187968793Y-103035441D01*
X187872971Y-103034187D01*
X187867274Y-103035166D01*
X187867273Y-103035166D01*
X187830003Y-103041570D01*
X187672910Y-103068564D01*
X187667496Y-103070561D01*
X187667490Y-103070563D01*
X187665813Y-103071182D01*
X187664967Y-103071239D01*
X187661908Y-103072059D01*
X187661747Y-103071458D01*
X187594980Y-103075993D01*
X187533108Y-103042064D01*
X187235743Y-102744698D01*
X187201718Y-102682386D01*
X187206783Y-102611570D01*
X187249330Y-102554735D01*
X187315850Y-102529924D01*
X187385225Y-102545016D01*
X187394826Y-102550828D01*
X187430720Y-102574812D01*
X187436023Y-102577090D01*
X187436026Y-102577092D01*
X187524707Y-102615192D01*
X187617228Y-102654942D01*
X187690244Y-102671464D01*
X187809579Y-102698467D01*
X187809584Y-102698468D01*
X187815216Y-102699742D01*
X187820987Y-102699969D01*
X187820989Y-102699969D01*
X187880756Y-102702317D01*
X188018053Y-102707712D01*
X188118499Y-102693148D01*
X188213231Y-102679413D01*
X188213236Y-102679412D01*
X188218945Y-102678584D01*
X188224409Y-102676729D01*
X188224414Y-102676728D01*
X188405693Y-102615192D01*
X188405698Y-102615190D01*
X188411165Y-102613334D01*
X188588276Y-102514147D01*
X188650934Y-102462035D01*
X188723353Y-102401804D01*
X188744345Y-102384345D01*
X188839861Y-102269500D01*
X188870453Y-102232718D01*
X188870455Y-102232715D01*
X188874147Y-102228276D01*
X188973334Y-102051165D01*
X188975190Y-102045698D01*
X188975192Y-102045693D01*
X189036728Y-101864414D01*
X189036729Y-101864409D01*
X189038584Y-101858945D01*
X189039412Y-101853236D01*
X189039413Y-101853231D01*
X189067179Y-101661727D01*
X189067712Y-101658053D01*
X189069232Y-101600000D01*
X189050658Y-101397859D01*
X189049090Y-101392299D01*
X188997125Y-101208046D01*
X188997124Y-101208044D01*
X188995557Y-101202487D01*
X188984978Y-101181033D01*
X188908331Y-101025609D01*
X188905776Y-101020428D01*
X188784320Y-100857779D01*
X188635258Y-100719987D01*
X188630375Y-100716906D01*
X188630371Y-100716903D01*
X188468464Y-100614748D01*
X188463581Y-100611667D01*
X188275039Y-100536446D01*
X188269379Y-100535320D01*
X188269375Y-100535319D01*
X188081613Y-100497971D01*
X188081610Y-100497971D01*
X188075946Y-100496844D01*
X188070171Y-100496768D01*
X188070167Y-100496768D01*
X187968793Y-100495441D01*
X187872971Y-100494187D01*
X187867274Y-100495166D01*
X187867273Y-100495166D01*
X187678600Y-100527586D01*
X187678597Y-100527587D01*
X187672910Y-100528564D01*
X187665821Y-100531179D01*
X187664978Y-100531236D01*
X187661912Y-100532058D01*
X187661751Y-100531456D01*
X187594990Y-100535996D01*
X187533110Y-100502065D01*
X186438083Y-99407038D01*
X186431133Y-99398341D01*
X186430673Y-99398733D01*
X186424855Y-99391897D01*
X186420065Y-99384305D01*
X186382626Y-99351240D01*
X186376939Y-99345894D01*
X186366432Y-99335387D01*
X186358872Y-99329721D01*
X186351041Y-99323345D01*
X186324918Y-99300274D01*
X186318190Y-99294332D01*
X186310063Y-99290517D01*
X186304638Y-99286953D01*
X186298061Y-99283001D01*
X186292391Y-99279897D01*
X186285209Y-99274514D01*
X186244146Y-99259120D01*
X186234845Y-99255201D01*
X186195157Y-99236568D01*
X186186287Y-99235187D01*
X186180095Y-99233294D01*
X186172656Y-99231342D01*
X186166342Y-99229954D01*
X186157940Y-99226804D01*
X186148994Y-99226139D01*
X186148993Y-99226139D01*
X186114218Y-99223555D01*
X186104173Y-99222402D01*
X186099889Y-99221735D01*
X186096772Y-99221249D01*
X186096770Y-99221249D01*
X186091961Y-99220500D01*
X186077794Y-99220500D01*
X186068456Y-99220154D01*
X186022395Y-99216731D01*
X186013619Y-99218604D01*
X186004662Y-99219215D01*
X186004655Y-99219105D01*
X185991439Y-99220500D01*
X176143735Y-99220500D01*
X176075614Y-99200498D01*
X176054640Y-99183595D01*
X175771405Y-98900360D01*
X175737379Y-98838048D01*
X175734500Y-98811265D01*
X175734500Y-97799081D01*
X175754502Y-97730960D01*
X175773608Y-97707835D01*
X175778177Y-97703484D01*
X175808712Y-97674406D01*
X175871836Y-97641915D01*
X175942507Y-97648708D01*
X175986240Y-97678126D01*
X175993976Y-97686137D01*
X176046021Y-97740031D01*
X176187660Y-97832717D01*
X176346315Y-97891720D01*
X176353296Y-97892651D01*
X176353298Y-97892652D01*
X176507118Y-97913176D01*
X176507122Y-97913176D01*
X176514099Y-97914107D01*
X176521110Y-97913469D01*
X176521114Y-97913469D01*
X176675652Y-97899405D01*
X176682673Y-97898766D01*
X176843659Y-97846458D01*
X176964370Y-97774500D01*
X176983004Y-97763392D01*
X176983006Y-97763391D01*
X176989056Y-97759784D01*
X177019325Y-97730960D01*
X177088733Y-97664865D01*
X177151858Y-97632373D01*
X177185728Y-97630517D01*
X177189906Y-97630853D01*
X177198661Y-97632834D01*
X177248501Y-97629742D01*
X177256303Y-97629500D01*
X177271175Y-97629500D01*
X177280524Y-97628161D01*
X177290573Y-97627132D01*
X177325358Y-97624974D01*
X177325359Y-97624974D01*
X177334318Y-97624418D01*
X177342758Y-97621371D01*
X177349122Y-97620053D01*
X177356563Y-97618197D01*
X177362765Y-97616383D01*
X177371652Y-97615111D01*
X177379823Y-97611396D01*
X177379826Y-97611395D01*
X177411577Y-97596959D01*
X177420941Y-97593147D01*
X177453721Y-97581313D01*
X177453723Y-97581312D01*
X177462160Y-97578266D01*
X177469404Y-97572975D01*
X177475109Y-97569941D01*
X177481784Y-97566040D01*
X177487213Y-97562568D01*
X177495381Y-97558854D01*
X177502177Y-97552998D01*
X177502182Y-97552995D01*
X177528597Y-97530235D01*
X177536512Y-97523950D01*
X177542557Y-97519534D01*
X177542561Y-97519531D01*
X177546493Y-97516658D01*
X177556516Y-97506635D01*
X177563363Y-97500277D01*
X177591546Y-97475993D01*
X177598348Y-97470132D01*
X177603232Y-97462597D01*
X177609131Y-97455835D01*
X177609215Y-97455908D01*
X177617569Y-97445582D01*
X178087960Y-96975190D01*
X178096658Y-96968241D01*
X178096266Y-96967780D01*
X178103103Y-96961961D01*
X178110695Y-96957171D01*
X178143767Y-96919723D01*
X178149113Y-96914037D01*
X178159612Y-96903538D01*
X178162296Y-96899957D01*
X178162302Y-96899950D01*
X178165268Y-96895992D01*
X178171650Y-96888153D01*
X178194727Y-96862023D01*
X178200668Y-96855296D01*
X178204482Y-96847173D01*
X178208041Y-96841755D01*
X178211997Y-96835172D01*
X178215105Y-96829495D01*
X178220486Y-96822315D01*
X178235880Y-96781252D01*
X178239799Y-96771951D01*
X178258432Y-96732263D01*
X178259813Y-96723393D01*
X178261706Y-96717201D01*
X178263654Y-96709776D01*
X178265044Y-96703454D01*
X178268196Y-96695046D01*
X178271445Y-96651329D01*
X178272598Y-96641286D01*
X178273751Y-96633877D01*
X178274500Y-96629067D01*
X178274500Y-96614891D01*
X178274846Y-96605554D01*
X178277603Y-96568450D01*
X178278268Y-96559502D01*
X178276395Y-96550726D01*
X178275784Y-96541770D01*
X178275894Y-96541762D01*
X178274500Y-96528552D01*
X178274500Y-94283209D01*
X178294502Y-94215088D01*
X178311405Y-94194114D01*
X181094555Y-91410964D01*
X184311148Y-91410964D01*
X184324424Y-91613522D01*
X184325845Y-91619118D01*
X184325846Y-91619123D01*
X184372539Y-91802973D01*
X184374392Y-91810269D01*
X184376809Y-91815512D01*
X184414010Y-91896208D01*
X184459377Y-91994616D01*
X184576533Y-92160389D01*
X184721938Y-92302035D01*
X184890720Y-92414812D01*
X184896023Y-92417090D01*
X184896026Y-92417092D01*
X184984707Y-92455192D01*
X185077228Y-92494942D01*
X185126588Y-92506111D01*
X185269579Y-92538467D01*
X185269584Y-92538468D01*
X185275216Y-92539742D01*
X185280987Y-92539969D01*
X185280989Y-92539969D01*
X185340756Y-92542317D01*
X185478053Y-92547712D01*
X185578499Y-92533148D01*
X185673231Y-92519413D01*
X185673236Y-92519412D01*
X185678945Y-92518584D01*
X185684409Y-92516729D01*
X185684414Y-92516728D01*
X185865693Y-92455192D01*
X185865698Y-92455190D01*
X185871165Y-92453334D01*
X186048276Y-92354147D01*
X186110934Y-92302035D01*
X186199913Y-92228031D01*
X186204345Y-92224345D01*
X186299861Y-92109500D01*
X186330453Y-92072718D01*
X186330455Y-92072715D01*
X186334147Y-92068276D01*
X186433334Y-91891165D01*
X186435190Y-91885698D01*
X186435192Y-91885693D01*
X186496728Y-91704414D01*
X186496729Y-91704409D01*
X186498584Y-91698945D01*
X186499412Y-91693236D01*
X186499413Y-91693231D01*
X186527179Y-91501727D01*
X186527712Y-91498053D01*
X186529232Y-91440000D01*
X186526564Y-91410964D01*
X186851148Y-91410964D01*
X186864424Y-91613522D01*
X186865845Y-91619118D01*
X186865846Y-91619123D01*
X186912539Y-91802973D01*
X186914392Y-91810269D01*
X186916809Y-91815512D01*
X186954010Y-91896208D01*
X186999377Y-91994616D01*
X187116533Y-92160389D01*
X187261938Y-92302035D01*
X187430720Y-92414812D01*
X187436023Y-92417090D01*
X187436026Y-92417092D01*
X187524707Y-92455192D01*
X187617228Y-92494942D01*
X187666588Y-92506111D01*
X187809579Y-92538467D01*
X187809584Y-92538468D01*
X187815216Y-92539742D01*
X187820987Y-92539969D01*
X187820989Y-92539969D01*
X187880756Y-92542317D01*
X188018053Y-92547712D01*
X188118499Y-92533148D01*
X188213231Y-92519413D01*
X188213236Y-92519412D01*
X188218945Y-92518584D01*
X188224409Y-92516729D01*
X188224414Y-92516728D01*
X188405693Y-92455192D01*
X188405698Y-92455190D01*
X188411165Y-92453334D01*
X188588276Y-92354147D01*
X188650934Y-92302035D01*
X188739913Y-92228031D01*
X188744345Y-92224345D01*
X188839861Y-92109500D01*
X188870453Y-92072718D01*
X188870455Y-92072715D01*
X188874147Y-92068276D01*
X188973334Y-91891165D01*
X188975190Y-91885698D01*
X188975192Y-91885693D01*
X189036728Y-91704414D01*
X189036729Y-91704409D01*
X189038584Y-91698945D01*
X189039412Y-91693236D01*
X189039413Y-91693231D01*
X189067179Y-91501727D01*
X189067712Y-91498053D01*
X189069232Y-91440000D01*
X189050658Y-91237859D01*
X189049090Y-91232299D01*
X188997125Y-91048046D01*
X188997124Y-91048044D01*
X188995557Y-91042487D01*
X188984978Y-91021033D01*
X188908331Y-90865609D01*
X188905776Y-90860428D01*
X188784320Y-90697779D01*
X188635258Y-90559987D01*
X188630375Y-90556906D01*
X188630371Y-90556903D01*
X188468464Y-90454748D01*
X188463581Y-90451667D01*
X188275039Y-90376446D01*
X188269379Y-90375320D01*
X188269375Y-90375319D01*
X188081613Y-90337971D01*
X188081610Y-90337971D01*
X188075946Y-90336844D01*
X188070171Y-90336768D01*
X188070167Y-90336768D01*
X187968793Y-90335441D01*
X187872971Y-90334187D01*
X187867274Y-90335166D01*
X187867273Y-90335166D01*
X187716010Y-90361158D01*
X187672910Y-90368564D01*
X187482463Y-90438824D01*
X187308010Y-90542612D01*
X187303670Y-90546418D01*
X187303666Y-90546421D01*
X187191435Y-90644846D01*
X187155392Y-90676455D01*
X187029720Y-90835869D01*
X187027031Y-90840980D01*
X187027029Y-90840983D01*
X187014073Y-90865609D01*
X186935203Y-91015515D01*
X186875007Y-91209378D01*
X186851148Y-91410964D01*
X186526564Y-91410964D01*
X186510658Y-91237859D01*
X186509090Y-91232299D01*
X186457125Y-91048046D01*
X186457124Y-91048044D01*
X186455557Y-91042487D01*
X186444978Y-91021033D01*
X186368331Y-90865609D01*
X186365776Y-90860428D01*
X186244320Y-90697779D01*
X186095258Y-90559987D01*
X186090375Y-90556906D01*
X186090371Y-90556903D01*
X185928464Y-90454748D01*
X185923581Y-90451667D01*
X185735039Y-90376446D01*
X185729379Y-90375320D01*
X185729375Y-90375319D01*
X185541613Y-90337971D01*
X185541610Y-90337971D01*
X185535946Y-90336844D01*
X185530171Y-90336768D01*
X185530167Y-90336768D01*
X185428793Y-90335441D01*
X185332971Y-90334187D01*
X185327274Y-90335166D01*
X185327273Y-90335166D01*
X185176010Y-90361158D01*
X185132910Y-90368564D01*
X184942463Y-90438824D01*
X184768010Y-90542612D01*
X184763670Y-90546418D01*
X184763666Y-90546421D01*
X184651435Y-90644846D01*
X184615392Y-90676455D01*
X184489720Y-90835869D01*
X184487031Y-90840980D01*
X184487029Y-90840983D01*
X184474073Y-90865609D01*
X184395203Y-91015515D01*
X184335007Y-91209378D01*
X184311148Y-91410964D01*
X181094555Y-91410964D01*
X183338557Y-89166962D01*
X184348671Y-89166962D01*
X184373443Y-89264502D01*
X184377284Y-89275348D01*
X184457394Y-89449120D01*
X184463145Y-89459081D01*
X184573579Y-89615343D01*
X184581057Y-89624098D01*
X184718114Y-89757612D01*
X184727058Y-89764855D01*
X184886156Y-89871161D01*
X184896266Y-89876651D01*
X185072077Y-89952185D01*
X185083020Y-89955740D01*
X185148332Y-89970519D01*
X185162405Y-89969630D01*
X185165828Y-89960681D01*
X185674000Y-89960681D01*
X185677966Y-89974187D01*
X185686672Y-89975433D01*
X185865497Y-89914730D01*
X185875994Y-89910056D01*
X186042958Y-89816552D01*
X186052430Y-89810042D01*
X186199553Y-89687682D01*
X186207682Y-89679553D01*
X186330042Y-89532430D01*
X186336552Y-89522958D01*
X186430056Y-89355994D01*
X186434730Y-89345497D01*
X186495335Y-89166962D01*
X186888671Y-89166962D01*
X186913443Y-89264502D01*
X186917284Y-89275348D01*
X186997394Y-89449120D01*
X187003145Y-89459081D01*
X187113579Y-89615343D01*
X187121057Y-89624098D01*
X187258114Y-89757612D01*
X187267058Y-89764855D01*
X187426156Y-89871161D01*
X187436266Y-89876651D01*
X187612077Y-89952185D01*
X187623020Y-89955740D01*
X187688332Y-89970519D01*
X187702405Y-89969630D01*
X187705828Y-89960681D01*
X188214000Y-89960681D01*
X188217966Y-89974187D01*
X188226672Y-89975433D01*
X188405497Y-89914730D01*
X188415994Y-89910056D01*
X188582958Y-89816552D01*
X188592430Y-89810042D01*
X188739553Y-89687682D01*
X188747682Y-89679553D01*
X188870042Y-89532430D01*
X188876552Y-89522958D01*
X188970056Y-89355994D01*
X188974730Y-89345497D01*
X189035443Y-89166644D01*
X189034210Y-89157993D01*
X189020642Y-89154000D01*
X188232115Y-89154000D01*
X188216876Y-89158475D01*
X188215671Y-89159865D01*
X188214000Y-89167548D01*
X188214000Y-89960681D01*
X187705828Y-89960681D01*
X187706000Y-89960232D01*
X187706000Y-89172115D01*
X187701525Y-89156876D01*
X187700135Y-89155671D01*
X187692452Y-89154000D01*
X186903494Y-89154000D01*
X186889963Y-89157973D01*
X186888671Y-89166962D01*
X186495335Y-89166962D01*
X186495443Y-89166644D01*
X186494210Y-89157993D01*
X186480642Y-89154000D01*
X185692115Y-89154000D01*
X185676876Y-89158475D01*
X185675671Y-89159865D01*
X185674000Y-89167548D01*
X185674000Y-89960681D01*
X185165828Y-89960681D01*
X185166000Y-89960232D01*
X185166000Y-89172115D01*
X185161525Y-89156876D01*
X185160135Y-89155671D01*
X185152452Y-89154000D01*
X184363494Y-89154000D01*
X184349963Y-89157973D01*
X184348671Y-89166962D01*
X183338557Y-89166962D01*
X184214482Y-88291037D01*
X184276794Y-88257011D01*
X184347609Y-88262076D01*
X184404445Y-88304623D01*
X184429256Y-88371143D01*
X184415085Y-88438800D01*
X184398358Y-88470592D01*
X184393953Y-88481227D01*
X184348162Y-88628698D01*
X184347943Y-88642799D01*
X184354675Y-88646000D01*
X186477398Y-88646000D01*
X186490929Y-88642027D01*
X186492098Y-88633892D01*
X186456658Y-88508231D01*
X186452533Y-88497484D01*
X186367903Y-88325871D01*
X186361890Y-88316058D01*
X186354295Y-88305887D01*
X186329564Y-88239337D01*
X186344740Y-88169981D01*
X186395002Y-88119840D01*
X186455254Y-88104500D01*
X186622746Y-88104500D01*
X186633805Y-88105736D01*
X186633854Y-88105133D01*
X186642798Y-88105853D01*
X186651555Y-88107834D01*
X186701395Y-88104742D01*
X186709197Y-88104500D01*
X186724069Y-88104500D01*
X186733418Y-88103161D01*
X186743467Y-88102132D01*
X186778252Y-88099974D01*
X186778253Y-88099974D01*
X186787212Y-88099418D01*
X186795652Y-88096371D01*
X186802016Y-88095053D01*
X186809457Y-88093197D01*
X186815659Y-88091383D01*
X186824546Y-88090111D01*
X186832717Y-88086396D01*
X186832720Y-88086395D01*
X186864471Y-88071959D01*
X186873835Y-88068147D01*
X186906613Y-88056314D01*
X186906617Y-88056312D01*
X186915054Y-88053266D01*
X186918218Y-88050955D01*
X186985264Y-88037149D01*
X187051504Y-88062698D01*
X187093416Y-88120003D01*
X187097693Y-88190870D01*
X187073827Y-88240726D01*
X187033722Y-88291598D01*
X187027450Y-88301256D01*
X186938358Y-88470592D01*
X186933953Y-88481227D01*
X186888162Y-88628698D01*
X186887943Y-88642799D01*
X186894675Y-88646000D01*
X187687885Y-88646000D01*
X187703124Y-88641525D01*
X187704329Y-88640135D01*
X187706000Y-88632452D01*
X187706000Y-88627885D01*
X188214000Y-88627885D01*
X188218475Y-88643124D01*
X188219865Y-88644329D01*
X188227548Y-88646000D01*
X189017398Y-88646000D01*
X189030929Y-88642027D01*
X189032098Y-88633892D01*
X188996658Y-88508231D01*
X188992533Y-88497484D01*
X188907903Y-88325871D01*
X188901893Y-88316063D01*
X188787400Y-88162739D01*
X188779710Y-88154199D01*
X188639192Y-88024304D01*
X188630067Y-88017303D01*
X188468236Y-87915195D01*
X188457989Y-87909974D01*
X188280260Y-87839068D01*
X188269232Y-87835801D01*
X188231769Y-87828350D01*
X188218894Y-87829502D01*
X188214000Y-87844658D01*
X188214000Y-88627885D01*
X187706000Y-88627885D01*
X187706000Y-87841500D01*
X187702194Y-87828538D01*
X187687279Y-87826602D01*
X187678732Y-87828071D01*
X187667620Y-87831048D01*
X187488095Y-87897279D01*
X187477717Y-87902229D01*
X187383896Y-87958047D01*
X187315126Y-87975687D01*
X187247736Y-87953347D01*
X187203122Y-87898119D01*
X187195448Y-87827538D01*
X187230378Y-87760667D01*
X187534559Y-87456486D01*
X187596871Y-87422460D01*
X187651460Y-87422688D01*
X187713509Y-87436728D01*
X187809580Y-87458467D01*
X187809583Y-87458467D01*
X187815216Y-87459742D01*
X187820987Y-87459969D01*
X187820989Y-87459969D01*
X187880756Y-87462317D01*
X188018053Y-87467712D01*
X188118499Y-87453148D01*
X188213231Y-87439413D01*
X188213236Y-87439412D01*
X188218945Y-87438584D01*
X188224409Y-87436729D01*
X188224414Y-87436728D01*
X188405693Y-87375192D01*
X188405698Y-87375190D01*
X188411165Y-87373334D01*
X188588276Y-87274147D01*
X188650934Y-87222035D01*
X188739913Y-87148031D01*
X188744345Y-87144345D01*
X188859243Y-87006196D01*
X188870453Y-86992718D01*
X188870455Y-86992715D01*
X188874147Y-86988276D01*
X188973334Y-86811165D01*
X188975190Y-86805698D01*
X188975192Y-86805693D01*
X189036728Y-86624414D01*
X189036729Y-86624409D01*
X189038584Y-86618945D01*
X189039412Y-86613236D01*
X189039413Y-86613231D01*
X189067179Y-86421727D01*
X189067712Y-86418053D01*
X189069232Y-86360000D01*
X189050658Y-86157859D01*
X189049090Y-86152299D01*
X188997125Y-85968046D01*
X188997124Y-85968044D01*
X188995557Y-85962487D01*
X188984978Y-85941033D01*
X188908331Y-85785609D01*
X188905776Y-85780428D01*
X188902320Y-85775799D01*
X188846393Y-85700905D01*
X188784320Y-85617779D01*
X188635258Y-85479987D01*
X188630375Y-85476906D01*
X188630371Y-85476903D01*
X188468464Y-85374748D01*
X188463581Y-85371667D01*
X188275039Y-85296446D01*
X188269379Y-85295320D01*
X188269375Y-85295319D01*
X188081613Y-85257971D01*
X188081610Y-85257971D01*
X188075946Y-85256844D01*
X188070171Y-85256768D01*
X188070167Y-85256768D01*
X187968793Y-85255441D01*
X187872971Y-85254187D01*
X187867274Y-85255166D01*
X187867273Y-85255166D01*
X187678607Y-85287585D01*
X187672910Y-85288564D01*
X187482463Y-85358824D01*
X187388875Y-85414503D01*
X187385333Y-85416610D01*
X187316562Y-85434250D01*
X187249172Y-85411909D01*
X187204559Y-85356681D01*
X187196886Y-85286101D01*
X187231815Y-85219230D01*
X187534559Y-84916486D01*
X187596871Y-84882460D01*
X187651460Y-84882688D01*
X187713509Y-84896728D01*
X187809580Y-84918467D01*
X187809583Y-84918467D01*
X187815216Y-84919742D01*
X187820987Y-84919969D01*
X187820989Y-84919969D01*
X187880756Y-84922317D01*
X188018053Y-84927712D01*
X188118499Y-84913148D01*
X188213231Y-84899413D01*
X188213236Y-84899412D01*
X188218945Y-84898584D01*
X188224409Y-84896729D01*
X188224414Y-84896728D01*
X188405693Y-84835192D01*
X188405698Y-84835190D01*
X188411165Y-84833334D01*
X188588276Y-84734147D01*
X188650934Y-84682035D01*
X188739913Y-84608031D01*
X188744345Y-84604345D01*
X188859243Y-84466196D01*
X188870453Y-84452718D01*
X188870455Y-84452715D01*
X188874147Y-84448276D01*
X188973334Y-84271165D01*
X188975190Y-84265698D01*
X188975192Y-84265693D01*
X189036728Y-84084414D01*
X189036729Y-84084409D01*
X189038584Y-84078945D01*
X189039412Y-84073236D01*
X189039413Y-84073231D01*
X189067179Y-83881727D01*
X189067712Y-83878053D01*
X189069232Y-83820000D01*
X189050658Y-83617859D01*
X189049090Y-83612299D01*
X188997125Y-83428046D01*
X188997124Y-83428044D01*
X188995557Y-83422487D01*
X188990363Y-83411953D01*
X188908331Y-83245609D01*
X188905776Y-83240428D01*
X188902320Y-83235799D01*
X188846693Y-83161307D01*
X188784320Y-83077779D01*
X188635258Y-82939987D01*
X188630375Y-82936906D01*
X188630371Y-82936903D01*
X188468464Y-82834748D01*
X188463581Y-82831667D01*
X188275039Y-82756446D01*
X188269379Y-82755320D01*
X188269375Y-82755319D01*
X188081613Y-82717971D01*
X188081610Y-82717971D01*
X188075946Y-82716844D01*
X188070171Y-82716768D01*
X188070167Y-82716768D01*
X187968793Y-82715441D01*
X187872971Y-82714187D01*
X187867274Y-82715166D01*
X187867273Y-82715166D01*
X187678607Y-82747585D01*
X187672910Y-82748564D01*
X187482463Y-82818824D01*
X187477502Y-82821776D01*
X187477501Y-82821776D01*
X187385333Y-82876610D01*
X187316562Y-82894250D01*
X187249172Y-82871909D01*
X187204559Y-82816681D01*
X187196886Y-82746101D01*
X187231815Y-82679230D01*
X187534559Y-82376486D01*
X187596871Y-82342460D01*
X187651460Y-82342688D01*
X187713509Y-82356728D01*
X187809580Y-82378467D01*
X187809583Y-82378467D01*
X187815216Y-82379742D01*
X187820987Y-82379969D01*
X187820989Y-82379969D01*
X187880756Y-82382317D01*
X188018053Y-82387712D01*
X188118499Y-82373148D01*
X188213231Y-82359413D01*
X188213236Y-82359412D01*
X188218945Y-82358584D01*
X188224409Y-82356729D01*
X188224414Y-82356728D01*
X188405693Y-82295192D01*
X188405698Y-82295190D01*
X188411165Y-82293334D01*
X188417019Y-82290056D01*
X188486470Y-82251161D01*
X188588276Y-82194147D01*
X188654712Y-82138893D01*
X188730933Y-82075500D01*
X188744345Y-82064345D01*
X188874147Y-81908276D01*
X188973334Y-81731165D01*
X188975190Y-81725698D01*
X188975192Y-81725693D01*
X189036728Y-81544414D01*
X189036729Y-81544409D01*
X189038584Y-81538945D01*
X189039412Y-81533236D01*
X189039413Y-81533231D01*
X189067179Y-81341727D01*
X189067712Y-81338053D01*
X189069232Y-81280000D01*
X189050658Y-81077859D01*
X189049090Y-81072299D01*
X188997125Y-80888046D01*
X188997124Y-80888044D01*
X188995557Y-80882487D01*
X188984978Y-80861033D01*
X188908331Y-80705609D01*
X188905776Y-80700428D01*
X188902317Y-80695795D01*
X188844850Y-80618838D01*
X188784320Y-80537779D01*
X188635258Y-80399987D01*
X188630375Y-80396906D01*
X188630371Y-80396903D01*
X188484728Y-80305010D01*
X188463581Y-80291667D01*
X188275039Y-80216446D01*
X188269379Y-80215320D01*
X188269375Y-80215319D01*
X188081613Y-80177971D01*
X188081610Y-80177971D01*
X188075946Y-80176844D01*
X188070171Y-80176768D01*
X188070167Y-80176768D01*
X187968793Y-80175441D01*
X187872971Y-80174187D01*
X187867274Y-80175166D01*
X187867273Y-80175166D01*
X187684328Y-80206602D01*
X187672910Y-80208564D01*
X187482463Y-80278824D01*
X187477502Y-80281776D01*
X187477501Y-80281776D01*
X187385333Y-80336610D01*
X187316562Y-80354250D01*
X187249172Y-80331909D01*
X187204559Y-80276681D01*
X187196886Y-80206101D01*
X187231815Y-80139230D01*
X187534559Y-79836486D01*
X187596871Y-79802460D01*
X187651460Y-79802688D01*
X187713509Y-79816728D01*
X187809580Y-79838467D01*
X187809583Y-79838467D01*
X187815216Y-79839742D01*
X187820987Y-79839969D01*
X187820989Y-79839969D01*
X187880756Y-79842317D01*
X188018053Y-79847712D01*
X188118499Y-79833148D01*
X188213231Y-79819413D01*
X188213236Y-79819412D01*
X188218945Y-79818584D01*
X188224409Y-79816729D01*
X188224414Y-79816728D01*
X188405693Y-79755192D01*
X188405698Y-79755190D01*
X188411165Y-79753334D01*
X188588276Y-79654147D01*
X188650934Y-79602035D01*
X188739913Y-79528031D01*
X188744345Y-79524345D01*
X188874147Y-79368276D01*
X188933845Y-79261677D01*
X188970510Y-79196208D01*
X188970511Y-79196206D01*
X188973334Y-79191165D01*
X188975190Y-79185698D01*
X188975192Y-79185693D01*
X189036728Y-79004414D01*
X189036729Y-79004409D01*
X189038584Y-78998945D01*
X189039412Y-78993236D01*
X189039413Y-78993231D01*
X189067179Y-78801727D01*
X189067712Y-78798053D01*
X189069232Y-78740000D01*
X189050658Y-78537859D01*
X189049090Y-78532299D01*
X188997125Y-78348046D01*
X188997124Y-78348044D01*
X188995557Y-78342487D01*
X188988878Y-78328942D01*
X188908331Y-78165609D01*
X188905776Y-78160428D01*
X188784320Y-77997779D01*
X188635258Y-77859987D01*
X188630375Y-77856906D01*
X188630371Y-77856903D01*
X188468464Y-77754748D01*
X188463581Y-77751667D01*
X188275039Y-77676446D01*
X188269379Y-77675320D01*
X188269375Y-77675319D01*
X188081613Y-77637971D01*
X188081610Y-77637971D01*
X188075946Y-77636844D01*
X188070171Y-77636768D01*
X188070167Y-77636768D01*
X187968793Y-77635441D01*
X187872971Y-77634187D01*
X187867274Y-77635166D01*
X187867273Y-77635166D01*
X187739271Y-77657161D01*
X187672910Y-77668564D01*
X187482463Y-77738824D01*
X187308010Y-77842612D01*
X187303670Y-77846418D01*
X187303666Y-77846421D01*
X187159733Y-77972648D01*
X187155392Y-77976455D01*
X187029720Y-78135869D01*
X187027031Y-78140980D01*
X187027029Y-78140983D01*
X187014073Y-78165609D01*
X186935203Y-78315515D01*
X186875007Y-78509378D01*
X186851148Y-78710964D01*
X186864424Y-78913522D01*
X186865847Y-78919123D01*
X186865847Y-78919126D01*
X186897624Y-79044249D01*
X186895006Y-79115197D01*
X186864596Y-79164359D01*
X186739595Y-79289360D01*
X186677283Y-79323386D01*
X186606468Y-79318321D01*
X186549632Y-79275774D01*
X186524821Y-79209254D01*
X186524500Y-79200265D01*
X186524499Y-77871123D01*
X186524499Y-77864934D01*
X186509734Y-77790699D01*
X186483654Y-77751667D01*
X186460377Y-77716832D01*
X186453484Y-77706516D01*
X186369301Y-77650266D01*
X186295067Y-77635500D01*
X185420142Y-77635500D01*
X184544934Y-77635501D01*
X184518800Y-77640699D01*
X184482874Y-77647844D01*
X184482872Y-77647845D01*
X184470699Y-77650266D01*
X184460379Y-77657161D01*
X184460378Y-77657162D01*
X184399985Y-77697516D01*
X184386516Y-77706516D01*
X184330266Y-77790699D01*
X184315500Y-77864933D01*
X184315500Y-78138730D01*
X184295498Y-78206851D01*
X184241842Y-78253344D01*
X184179394Y-78264324D01*
X184177204Y-78264148D01*
X184168445Y-78262166D01*
X184118605Y-78265258D01*
X184110803Y-78265500D01*
X184095931Y-78265500D01*
X184086582Y-78266839D01*
X184076533Y-78267868D01*
X184041748Y-78270026D01*
X184041747Y-78270026D01*
X184032788Y-78270582D01*
X184024348Y-78273629D01*
X184017984Y-78274947D01*
X184010536Y-78276805D01*
X184004339Y-78278617D01*
X183995454Y-78279889D01*
X183987288Y-78283602D01*
X183987284Y-78283603D01*
X183955533Y-78298040D01*
X183946163Y-78301854D01*
X183913390Y-78313685D01*
X183913388Y-78313686D01*
X183904945Y-78316734D01*
X183897696Y-78322030D01*
X183891973Y-78325073D01*
X183885352Y-78328942D01*
X183879899Y-78332430D01*
X183871725Y-78336146D01*
X183849421Y-78355364D01*
X183838517Y-78364760D01*
X183830596Y-78371049D01*
X183824545Y-78375469D01*
X183824533Y-78375479D01*
X183820613Y-78378343D01*
X183810597Y-78388359D01*
X183803750Y-78394717D01*
X183775556Y-78419010D01*
X183775554Y-78419012D01*
X183768758Y-78424868D01*
X183763878Y-78432397D01*
X183757973Y-78439166D01*
X183757890Y-78439094D01*
X183749532Y-78449424D01*
X168622038Y-93576917D01*
X168613341Y-93583867D01*
X168613733Y-93584327D01*
X168606897Y-93590145D01*
X168599305Y-93594935D01*
X168593363Y-93601663D01*
X168566240Y-93632374D01*
X168560894Y-93638061D01*
X168550387Y-93648568D01*
X168544721Y-93656128D01*
X168538345Y-93663959D01*
X168509332Y-93696810D01*
X168505517Y-93704937D01*
X168501953Y-93710362D01*
X168498001Y-93716939D01*
X168494897Y-93722609D01*
X168489514Y-93729791D01*
X168486363Y-93738195D01*
X168486363Y-93738196D01*
X168474122Y-93770850D01*
X168470201Y-93780155D01*
X168451568Y-93819843D01*
X168450187Y-93828713D01*
X168448294Y-93834905D01*
X168446342Y-93842344D01*
X168444954Y-93848658D01*
X168441804Y-93857060D01*
X168441139Y-93866006D01*
X168441139Y-93866007D01*
X168438555Y-93900782D01*
X168437402Y-93910827D01*
X168435500Y-93923039D01*
X168435500Y-93937206D01*
X168435154Y-93946544D01*
X168431731Y-93992605D01*
X168433604Y-94001381D01*
X168434215Y-94010338D01*
X168434105Y-94010345D01*
X168435500Y-94023561D01*
X168435500Y-95240617D01*
X168415498Y-95308738D01*
X168397657Y-95330641D01*
X168362954Y-95364624D01*
X168300288Y-95397994D01*
X168229529Y-95392188D01*
X168185391Y-95363384D01*
X168151094Y-95328847D01*
X168117287Y-95266417D01*
X168114500Y-95240063D01*
X168114500Y-94047261D01*
X168115736Y-94036196D01*
X168115134Y-94036148D01*
X168115854Y-94027202D01*
X168117835Y-94018446D01*
X168114742Y-93968590D01*
X168114500Y-93960788D01*
X168114500Y-93945931D01*
X168113164Y-93936599D01*
X168112133Y-93926537D01*
X168109975Y-93891747D01*
X168109975Y-93891745D01*
X168109419Y-93882789D01*
X168106373Y-93874351D01*
X168105059Y-93868006D01*
X168103200Y-93860551D01*
X168101383Y-93854339D01*
X168100111Y-93845454D01*
X168096396Y-93837282D01*
X168096394Y-93837277D01*
X168081957Y-93805525D01*
X168078154Y-93796185D01*
X168063266Y-93754946D01*
X168057970Y-93747696D01*
X168054935Y-93741988D01*
X168051040Y-93735322D01*
X168047568Y-93729893D01*
X168043854Y-93721725D01*
X168037998Y-93714929D01*
X168037995Y-93714924D01*
X168015235Y-93688509D01*
X168008950Y-93680594D01*
X168004534Y-93674549D01*
X168004531Y-93674545D01*
X168001658Y-93670613D01*
X167991635Y-93660590D01*
X167985277Y-93653743D01*
X167978087Y-93645398D01*
X167955132Y-93618758D01*
X167947597Y-93613874D01*
X167940835Y-93607975D01*
X167940908Y-93607891D01*
X167930579Y-93599534D01*
X157863083Y-83532038D01*
X157856133Y-83523341D01*
X157855673Y-83523733D01*
X157849855Y-83516897D01*
X157845065Y-83509305D01*
X157807626Y-83476240D01*
X157801939Y-83470894D01*
X157791432Y-83460387D01*
X157783872Y-83454721D01*
X157776041Y-83448345D01*
X157749918Y-83425274D01*
X157743190Y-83419332D01*
X157735063Y-83415517D01*
X157729638Y-83411953D01*
X157723061Y-83408001D01*
X157717391Y-83404897D01*
X157710209Y-83399514D01*
X157669146Y-83384120D01*
X157659845Y-83380201D01*
X157620157Y-83361568D01*
X157611287Y-83360187D01*
X157605095Y-83358294D01*
X157597656Y-83356342D01*
X157591342Y-83354954D01*
X157582940Y-83351804D01*
X157573994Y-83351139D01*
X157573993Y-83351139D01*
X157539218Y-83348555D01*
X157529173Y-83347402D01*
X157524889Y-83346735D01*
X157521772Y-83346249D01*
X157521770Y-83346249D01*
X157516961Y-83345500D01*
X157502794Y-83345500D01*
X157493456Y-83345154D01*
X157447395Y-83341731D01*
X157438619Y-83343604D01*
X157429662Y-83344215D01*
X157429655Y-83344105D01*
X157416439Y-83345500D01*
X145855943Y-83345500D01*
X145787822Y-83325498D01*
X145742938Y-83275229D01*
X145725776Y-83240428D01*
X145722320Y-83235799D01*
X145666693Y-83161307D01*
X145604320Y-83077779D01*
X145455258Y-82939987D01*
X145450375Y-82936906D01*
X145450371Y-82936903D01*
X145288464Y-82834748D01*
X145283581Y-82831667D01*
X145095039Y-82756446D01*
X145089379Y-82755320D01*
X145089375Y-82755319D01*
X144901613Y-82717971D01*
X144901610Y-82717971D01*
X144895946Y-82716844D01*
X144890171Y-82716768D01*
X144890167Y-82716768D01*
X144788793Y-82715441D01*
X144692971Y-82714187D01*
X144687274Y-82715166D01*
X144687273Y-82715166D01*
X144498607Y-82747585D01*
X144492910Y-82748564D01*
X144302463Y-82818824D01*
X144128010Y-82922612D01*
X144123670Y-82926418D01*
X144123666Y-82926421D01*
X143993493Y-83040581D01*
X143975392Y-83056455D01*
X143849720Y-83215869D01*
X143847031Y-83220980D01*
X143847029Y-83220983D01*
X143834073Y-83245609D01*
X143755203Y-83395515D01*
X143695007Y-83589378D01*
X143671148Y-83790964D01*
X143684424Y-83993522D01*
X143685845Y-83999118D01*
X143685846Y-83999123D01*
X143717625Y-84124249D01*
X143734392Y-84190269D01*
X143736809Y-84195512D01*
X143812148Y-84358934D01*
X143819377Y-84374616D01*
X143822710Y-84379332D01*
X143825477Y-84384124D01*
X143842214Y-84453119D01*
X143818993Y-84520211D01*
X143763186Y-84564098D01*
X143692511Y-84570846D01*
X143627262Y-84536218D01*
X143336329Y-84245285D01*
X143302303Y-84182973D01*
X143306111Y-84115688D01*
X143316729Y-84084410D01*
X143316729Y-84084409D01*
X143318584Y-84078945D01*
X143319412Y-84073236D01*
X143319413Y-84073231D01*
X143347179Y-83881727D01*
X143347712Y-83878053D01*
X143349232Y-83820000D01*
X143330658Y-83617859D01*
X143329090Y-83612299D01*
X143277125Y-83428046D01*
X143277124Y-83428044D01*
X143275557Y-83422487D01*
X143270363Y-83411953D01*
X143188331Y-83245609D01*
X143185776Y-83240428D01*
X143182320Y-83235799D01*
X143126693Y-83161307D01*
X143064320Y-83077779D01*
X142915258Y-82939987D01*
X142910375Y-82936906D01*
X142910371Y-82936903D01*
X142748464Y-82834748D01*
X142743581Y-82831667D01*
X142555039Y-82756446D01*
X142549379Y-82755320D01*
X142549375Y-82755319D01*
X142361613Y-82717971D01*
X142361610Y-82717971D01*
X142355946Y-82716844D01*
X142350171Y-82716768D01*
X142350167Y-82716768D01*
X142248793Y-82715441D01*
X142152971Y-82714187D01*
X142147274Y-82715166D01*
X142147273Y-82715166D01*
X141958607Y-82747585D01*
X141952910Y-82748564D01*
X141762463Y-82818824D01*
X141588010Y-82922612D01*
X141583670Y-82926418D01*
X141583666Y-82926421D01*
X141453493Y-83040581D01*
X141435392Y-83056455D01*
X141309720Y-83215869D01*
X141307031Y-83220980D01*
X141307029Y-83220983D01*
X141294073Y-83245609D01*
X141215203Y-83395515D01*
X141155007Y-83589378D01*
X141131148Y-83790964D01*
X141144424Y-83993522D01*
X141145845Y-83999118D01*
X141145846Y-83999123D01*
X141177625Y-84124249D01*
X141194392Y-84190269D01*
X141196809Y-84195512D01*
X141276957Y-84369367D01*
X141279377Y-84374616D01*
X141282710Y-84379332D01*
X141382273Y-84520211D01*
X141396533Y-84540389D01*
X141400675Y-84544424D01*
X141476388Y-84618180D01*
X141541938Y-84682035D01*
X141710720Y-84794812D01*
X141716023Y-84797090D01*
X141716026Y-84797092D01*
X141891921Y-84872662D01*
X141897228Y-84874942D01*
X141946588Y-84886111D01*
X142089579Y-84918467D01*
X142089584Y-84918468D01*
X142095216Y-84919742D01*
X142100987Y-84919969D01*
X142100989Y-84919969D01*
X142160756Y-84922317D01*
X142298053Y-84927712D01*
X142398499Y-84913148D01*
X142493231Y-84899413D01*
X142493236Y-84899412D01*
X142498945Y-84898584D01*
X142535689Y-84886111D01*
X142606623Y-84883155D01*
X142665285Y-84916329D01*
X142967802Y-85218846D01*
X143001828Y-85281158D01*
X142996763Y-85351973D01*
X142954216Y-85408809D01*
X142887696Y-85433620D01*
X142818322Y-85418529D01*
X142811472Y-85414503D01*
X142748464Y-85374748D01*
X142743581Y-85371667D01*
X142555039Y-85296446D01*
X142549379Y-85295320D01*
X142549375Y-85295319D01*
X142361613Y-85257971D01*
X142361610Y-85257971D01*
X142355946Y-85256844D01*
X142350171Y-85256768D01*
X142350167Y-85256768D01*
X142248793Y-85255441D01*
X142152971Y-85254187D01*
X142147274Y-85255166D01*
X142147273Y-85255166D01*
X141958607Y-85287585D01*
X141952910Y-85288564D01*
X141762463Y-85358824D01*
X141588010Y-85462612D01*
X141583670Y-85466418D01*
X141583666Y-85466421D01*
X141453951Y-85580179D01*
X141435392Y-85596455D01*
X141309720Y-85755869D01*
X141307031Y-85760980D01*
X141307029Y-85760983D01*
X141294073Y-85785609D01*
X141215203Y-85935515D01*
X141155007Y-86129378D01*
X141131148Y-86330964D01*
X141144424Y-86533522D01*
X141145845Y-86539118D01*
X141145846Y-86539123D01*
X141177625Y-86664249D01*
X141194392Y-86730269D01*
X141196809Y-86735512D01*
X141276957Y-86909367D01*
X141279377Y-86914616D01*
X141282710Y-86919332D01*
X141382273Y-87060211D01*
X141396533Y-87080389D01*
X141541938Y-87222035D01*
X141710720Y-87334812D01*
X141716023Y-87337090D01*
X141716026Y-87337092D01*
X141891921Y-87412662D01*
X141897228Y-87414942D01*
X141946588Y-87426111D01*
X142089579Y-87458467D01*
X142089584Y-87458468D01*
X142095216Y-87459742D01*
X142100987Y-87459969D01*
X142100989Y-87459969D01*
X142160756Y-87462317D01*
X142298053Y-87467712D01*
X142398499Y-87453148D01*
X142493231Y-87439413D01*
X142493236Y-87439412D01*
X142498945Y-87438584D01*
X142535689Y-87426111D01*
X142606623Y-87423155D01*
X142665285Y-87456329D01*
X142967802Y-87758846D01*
X143001828Y-87821158D01*
X142996763Y-87891973D01*
X142954216Y-87948809D01*
X142887696Y-87973620D01*
X142818322Y-87958529D01*
X142811472Y-87954503D01*
X142769334Y-87927916D01*
X142743581Y-87911667D01*
X142555039Y-87836446D01*
X142549379Y-87835320D01*
X142549375Y-87835319D01*
X142361613Y-87797971D01*
X142361610Y-87797971D01*
X142355946Y-87796844D01*
X142350171Y-87796768D01*
X142350167Y-87796768D01*
X142248793Y-87795441D01*
X142152971Y-87794187D01*
X142147274Y-87795166D01*
X142147273Y-87795166D01*
X141996010Y-87821158D01*
X141952910Y-87828564D01*
X141762463Y-87898824D01*
X141588010Y-88002612D01*
X141583670Y-88006418D01*
X141583666Y-88006421D01*
X141454152Y-88120003D01*
X141435392Y-88136455D01*
X141309720Y-88295869D01*
X141307031Y-88300980D01*
X141307029Y-88300983D01*
X141294073Y-88325609D01*
X141215203Y-88475515D01*
X141155007Y-88669378D01*
X141131148Y-88870964D01*
X141144424Y-89073522D01*
X141145845Y-89079118D01*
X141145846Y-89079123D01*
X141192539Y-89262973D01*
X141194392Y-89270269D01*
X141196809Y-89275512D01*
X141276843Y-89449120D01*
X141279377Y-89454616D01*
X141282710Y-89459332D01*
X141382273Y-89600211D01*
X141396533Y-89620389D01*
X141541938Y-89762035D01*
X141710720Y-89874812D01*
X141716023Y-89877090D01*
X141716026Y-89877092D01*
X141864605Y-89940926D01*
X141897228Y-89954942D01*
X141946588Y-89966111D01*
X142089579Y-89998467D01*
X142089584Y-89998468D01*
X142095216Y-89999742D01*
X142100987Y-89999969D01*
X142100989Y-89999969D01*
X142160756Y-90002317D01*
X142298053Y-90007712D01*
X142398499Y-89993148D01*
X142493231Y-89979413D01*
X142493236Y-89979412D01*
X142498945Y-89978584D01*
X142535689Y-89966111D01*
X142606623Y-89963155D01*
X142665285Y-89996329D01*
X142967802Y-90298846D01*
X143001828Y-90361158D01*
X142996763Y-90431973D01*
X142954216Y-90488809D01*
X142887696Y-90513620D01*
X142818322Y-90498529D01*
X142811472Y-90494503D01*
X142748464Y-90454748D01*
X142743581Y-90451667D01*
X142555039Y-90376446D01*
X142549379Y-90375320D01*
X142549375Y-90375319D01*
X142361613Y-90337971D01*
X142361610Y-90337971D01*
X142355946Y-90336844D01*
X142350171Y-90336768D01*
X142350167Y-90336768D01*
X142248793Y-90335441D01*
X142152971Y-90334187D01*
X142147274Y-90335166D01*
X142147273Y-90335166D01*
X141996010Y-90361158D01*
X141952910Y-90368564D01*
X141762463Y-90438824D01*
X141588010Y-90542612D01*
X141583670Y-90546418D01*
X141583666Y-90546421D01*
X141471435Y-90644846D01*
X141435392Y-90676455D01*
X141309720Y-90835869D01*
X141307031Y-90840980D01*
X141307029Y-90840983D01*
X141294073Y-90865609D01*
X141215203Y-91015515D01*
X141155007Y-91209378D01*
X141131148Y-91410964D01*
X141144424Y-91613522D01*
X141145845Y-91619118D01*
X141145846Y-91619123D01*
X141192539Y-91802973D01*
X141194392Y-91810269D01*
X141196809Y-91815512D01*
X141234010Y-91896208D01*
X141279377Y-91994616D01*
X141396533Y-92160389D01*
X141541938Y-92302035D01*
X141710720Y-92414812D01*
X141716023Y-92417090D01*
X141716026Y-92417092D01*
X141804707Y-92455192D01*
X141897228Y-92494942D01*
X141946588Y-92506111D01*
X142089579Y-92538467D01*
X142089584Y-92538468D01*
X142095216Y-92539742D01*
X142100987Y-92539969D01*
X142100989Y-92539969D01*
X142160756Y-92542317D01*
X142298053Y-92547712D01*
X142398499Y-92533148D01*
X142493231Y-92519413D01*
X142493236Y-92519412D01*
X142498945Y-92518584D01*
X142535689Y-92506111D01*
X142606623Y-92503155D01*
X142665285Y-92536329D01*
X143126914Y-92997958D01*
X143133865Y-93006658D01*
X143134326Y-93006266D01*
X143140145Y-93013103D01*
X143144935Y-93020695D01*
X143151664Y-93026638D01*
X143151665Y-93026639D01*
X143182382Y-93053767D01*
X143188069Y-93059113D01*
X143198568Y-93069612D01*
X143202149Y-93072296D01*
X143202156Y-93072302D01*
X143206114Y-93075268D01*
X143213953Y-93081650D01*
X143246810Y-93110668D01*
X143254933Y-93114482D01*
X143260351Y-93118041D01*
X143266934Y-93121997D01*
X143272611Y-93125105D01*
X143279791Y-93130486D01*
X143288196Y-93133637D01*
X143288198Y-93133638D01*
X143309907Y-93141776D01*
X143320854Y-93145880D01*
X143330155Y-93149799D01*
X143369843Y-93168432D01*
X143378713Y-93169813D01*
X143384905Y-93171706D01*
X143392320Y-93173652D01*
X143398652Y-93175044D01*
X143407060Y-93178196D01*
X143450789Y-93181445D01*
X143460814Y-93182596D01*
X143473039Y-93184500D01*
X143487216Y-93184500D01*
X143496554Y-93184846D01*
X143542605Y-93188268D01*
X143551381Y-93186395D01*
X143560337Y-93185784D01*
X143560345Y-93185894D01*
X143573555Y-93184500D01*
X157231265Y-93184500D01*
X157299386Y-93204502D01*
X157320355Y-93221400D01*
X158238596Y-94139640D01*
X158272620Y-94201951D01*
X158275500Y-94228734D01*
X158275500Y-95240617D01*
X158255498Y-95308738D01*
X158237657Y-95330641D01*
X158202954Y-95364624D01*
X158140288Y-95397994D01*
X158069529Y-95392188D01*
X158025391Y-95363384D01*
X157960726Y-95298266D01*
X157955764Y-95293269D01*
X157946140Y-95287161D01*
X157832887Y-95215289D01*
X157812844Y-95202569D01*
X157766248Y-95185977D01*
X157660016Y-95148149D01*
X157660011Y-95148148D01*
X157653381Y-95145787D01*
X157646395Y-95144954D01*
X157646391Y-95144953D01*
X157527287Y-95130751D01*
X157485301Y-95125745D01*
X157478298Y-95126481D01*
X157478297Y-95126481D01*
X157323965Y-95142701D01*
X157323961Y-95142702D01*
X157316957Y-95143438D01*
X157310286Y-95145709D01*
X157163387Y-95195717D01*
X157163384Y-95195718D01*
X157156717Y-95197988D01*
X157150719Y-95201678D01*
X157150717Y-95201679D01*
X157018543Y-95282993D01*
X157018541Y-95282995D01*
X157012544Y-95286684D01*
X156932597Y-95364975D01*
X156869933Y-95398344D01*
X156799174Y-95392538D01*
X156755034Y-95363734D01*
X156690411Y-95298658D01*
X156679501Y-95289886D01*
X156548578Y-95206800D01*
X156535978Y-95200655D01*
X156481067Y-95181102D01*
X156466987Y-95180306D01*
X156464000Y-95185977D01*
X156464000Y-96013000D01*
X156443998Y-96081121D01*
X156390342Y-96127614D01*
X156338000Y-96139000D01*
X156082000Y-96139000D01*
X156013879Y-96118998D01*
X155967386Y-96065342D01*
X155956000Y-96013000D01*
X155956000Y-95193045D01*
X155952027Y-95179514D01*
X155945353Y-95178555D01*
X155893601Y-95196172D01*
X155880931Y-95202134D01*
X155748855Y-95283388D01*
X155737816Y-95292012D01*
X155663306Y-95364978D01*
X155600641Y-95398348D01*
X155529883Y-95392542D01*
X155485744Y-95363739D01*
X155451095Y-95328848D01*
X155417287Y-95266418D01*
X155414500Y-95240063D01*
X155414500Y-94936260D01*
X155415736Y-94925195D01*
X155415134Y-94925147D01*
X155415854Y-94916201D01*
X155417835Y-94907445D01*
X155414742Y-94857589D01*
X155414500Y-94849787D01*
X155414500Y-94834931D01*
X155413359Y-94826959D01*
X155413164Y-94825599D01*
X155412133Y-94815537D01*
X155409975Y-94780746D01*
X155409975Y-94780744D01*
X155409419Y-94771788D01*
X155406372Y-94763348D01*
X155405063Y-94757027D01*
X155403200Y-94749553D01*
X155401384Y-94743343D01*
X155400111Y-94734454D01*
X155381960Y-94694535D01*
X155378148Y-94685170D01*
X155366314Y-94652390D01*
X155363266Y-94643946D01*
X155357971Y-94636697D01*
X155354930Y-94630978D01*
X155351040Y-94624322D01*
X155347568Y-94618893D01*
X155343854Y-94610725D01*
X155337998Y-94603929D01*
X155337995Y-94603924D01*
X155315235Y-94577509D01*
X155308950Y-94569594D01*
X155304534Y-94563549D01*
X155304531Y-94563545D01*
X155301658Y-94559613D01*
X155291635Y-94549590D01*
X155285277Y-94542743D01*
X155260993Y-94514560D01*
X155255132Y-94507758D01*
X155247597Y-94502874D01*
X155240835Y-94496975D01*
X155240908Y-94496891D01*
X155230579Y-94488534D01*
X154434083Y-93692038D01*
X154427133Y-93683341D01*
X154426673Y-93683733D01*
X154420855Y-93676897D01*
X154416065Y-93669305D01*
X154378626Y-93636240D01*
X154372939Y-93630894D01*
X154362432Y-93620387D01*
X154354872Y-93614721D01*
X154347041Y-93608345D01*
X154320918Y-93585274D01*
X154314190Y-93579332D01*
X154306063Y-93575517D01*
X154300638Y-93571953D01*
X154294061Y-93568001D01*
X154288391Y-93564897D01*
X154281209Y-93559514D01*
X154240146Y-93544120D01*
X154230845Y-93540201D01*
X154191157Y-93521568D01*
X154182287Y-93520187D01*
X154176095Y-93518294D01*
X154168656Y-93516342D01*
X154162342Y-93514954D01*
X154153940Y-93511804D01*
X154144994Y-93511139D01*
X154144993Y-93511139D01*
X154110218Y-93508555D01*
X154100173Y-93507402D01*
X154095889Y-93506735D01*
X154092772Y-93506249D01*
X154092770Y-93506249D01*
X154087961Y-93505500D01*
X154073794Y-93505500D01*
X154064456Y-93505154D01*
X154052480Y-93504264D01*
X154018395Y-93501731D01*
X154009619Y-93503604D01*
X154000662Y-93504215D01*
X154000655Y-93504105D01*
X153987439Y-93505500D01*
X149800254Y-93505500D01*
X149789195Y-93504264D01*
X149789146Y-93504867D01*
X149780202Y-93504147D01*
X149771445Y-93502166D01*
X149723281Y-93505154D01*
X149721605Y-93505258D01*
X149713803Y-93505500D01*
X149698931Y-93505500D01*
X149689582Y-93506839D01*
X149679533Y-93507868D01*
X149644748Y-93510026D01*
X149644747Y-93510026D01*
X149635788Y-93510582D01*
X149627348Y-93513629D01*
X149620984Y-93514947D01*
X149613543Y-93516803D01*
X149607341Y-93518617D01*
X149598454Y-93519889D01*
X149590283Y-93523604D01*
X149590280Y-93523605D01*
X149558529Y-93538041D01*
X149549165Y-93541853D01*
X149542880Y-93544122D01*
X149507946Y-93556734D01*
X149500695Y-93562031D01*
X149494984Y-93565068D01*
X149488337Y-93568951D01*
X149482895Y-93572431D01*
X149474725Y-93576146D01*
X149467926Y-93582004D01*
X149467925Y-93582005D01*
X149452920Y-93594935D01*
X149445112Y-93601663D01*
X149441507Y-93604769D01*
X149433606Y-93611043D01*
X149423613Y-93618343D01*
X149413597Y-93628359D01*
X149406751Y-93634716D01*
X149404982Y-93636240D01*
X149378556Y-93659010D01*
X149378554Y-93659012D01*
X149371758Y-93664868D01*
X149366878Y-93672397D01*
X149360973Y-93679166D01*
X149360890Y-93679094D01*
X149352532Y-93689424D01*
X148302038Y-94739917D01*
X148293340Y-94746866D01*
X148293732Y-94747327D01*
X148286895Y-94753146D01*
X148279305Y-94757935D01*
X148259159Y-94780746D01*
X148246240Y-94795374D01*
X148240894Y-94801061D01*
X148230387Y-94811568D01*
X148224721Y-94819128D01*
X148218345Y-94826959D01*
X148189332Y-94859810D01*
X148185517Y-94867937D01*
X148181953Y-94873362D01*
X148178001Y-94879939D01*
X148174897Y-94885609D01*
X148169514Y-94892791D01*
X148166363Y-94901195D01*
X148166363Y-94901196D01*
X148154122Y-94933850D01*
X148150201Y-94943155D01*
X148131568Y-94982843D01*
X148130187Y-94991713D01*
X148128294Y-94997905D01*
X148126342Y-95005344D01*
X148124954Y-95011658D01*
X148121804Y-95020060D01*
X148121139Y-95029006D01*
X148121139Y-95029007D01*
X148118555Y-95063782D01*
X148117402Y-95073827D01*
X148115500Y-95086039D01*
X148115500Y-95100206D01*
X148115154Y-95109543D01*
X148112467Y-95145709D01*
X148112234Y-95148838D01*
X148087238Y-95215289D01*
X148030285Y-95257678D01*
X147986580Y-95265501D01*
X147564934Y-95265501D01*
X147529182Y-95272612D01*
X147502874Y-95277844D01*
X147502872Y-95277845D01*
X147490699Y-95280266D01*
X147480379Y-95287161D01*
X147480378Y-95287162D01*
X147448088Y-95308738D01*
X147406516Y-95336516D01*
X147350266Y-95420699D01*
X147335500Y-95494933D01*
X147335501Y-97545066D01*
X147350266Y-97619301D01*
X147357161Y-97629620D01*
X147357162Y-97629622D01*
X147365376Y-97641915D01*
X147406516Y-97703484D01*
X147490699Y-97759734D01*
X147564933Y-97774500D01*
X148589834Y-97774500D01*
X149615066Y-97774499D01*
X149650818Y-97767388D01*
X149677126Y-97762156D01*
X149677128Y-97762155D01*
X149689301Y-97759734D01*
X149699621Y-97752839D01*
X149699622Y-97752838D01*
X149763168Y-97710377D01*
X149773484Y-97703484D01*
X149829734Y-97619301D01*
X149844500Y-97545067D01*
X149844499Y-95628050D01*
X151695315Y-95628050D01*
X151700821Y-95631000D01*
X152127885Y-95631000D01*
X152143124Y-95626525D01*
X152144329Y-95625135D01*
X152146000Y-95617452D01*
X152146000Y-95612885D01*
X152654000Y-95612885D01*
X152658475Y-95628124D01*
X152659865Y-95629329D01*
X152667548Y-95631000D01*
X153397885Y-95631000D01*
X153413124Y-95626525D01*
X153414329Y-95625135D01*
X153416000Y-95617452D01*
X153416000Y-95193045D01*
X153412027Y-95179514D01*
X153405353Y-95178555D01*
X153353601Y-95196172D01*
X153340931Y-95202134D01*
X153208855Y-95283388D01*
X153197816Y-95292012D01*
X153122950Y-95365327D01*
X153060285Y-95398698D01*
X152989526Y-95392892D01*
X152945386Y-95364088D01*
X152880411Y-95298658D01*
X152869501Y-95289886D01*
X152738578Y-95206800D01*
X152725978Y-95200655D01*
X152671067Y-95181102D01*
X152656987Y-95180306D01*
X152654000Y-95185977D01*
X152654000Y-95612885D01*
X152146000Y-95612885D01*
X152146000Y-95193045D01*
X152142027Y-95179514D01*
X152135353Y-95178555D01*
X152083601Y-95196172D01*
X152070931Y-95202134D01*
X151938855Y-95283388D01*
X151927821Y-95292009D01*
X151817026Y-95400507D01*
X151808178Y-95411357D01*
X151724179Y-95541698D01*
X151717949Y-95554247D01*
X151696209Y-95613977D01*
X151695315Y-95628050D01*
X149844499Y-95628050D01*
X149844499Y-95494934D01*
X149829734Y-95420699D01*
X149819323Y-95405117D01*
X149780377Y-95346832D01*
X149773484Y-95336516D01*
X149689301Y-95280266D01*
X149615067Y-95265500D01*
X149422735Y-95265500D01*
X149354614Y-95245498D01*
X149308121Y-95191842D01*
X149298017Y-95121568D01*
X149327511Y-95056988D01*
X149333640Y-95050405D01*
X149892640Y-94491405D01*
X149954952Y-94457379D01*
X149981735Y-94454500D01*
X153802265Y-94454500D01*
X153870386Y-94474502D01*
X153891360Y-94491405D01*
X154428595Y-95028640D01*
X154462621Y-95090952D01*
X154465500Y-95117735D01*
X154465500Y-95240617D01*
X154445498Y-95308738D01*
X154427657Y-95330641D01*
X154392597Y-95364974D01*
X154329932Y-95398344D01*
X154259173Y-95392538D01*
X154215034Y-95363734D01*
X154150411Y-95298658D01*
X154139501Y-95289886D01*
X154008578Y-95206800D01*
X153995978Y-95200655D01*
X153941067Y-95181102D01*
X153926987Y-95180306D01*
X153924000Y-95185977D01*
X153924000Y-96013000D01*
X153903998Y-96081121D01*
X153850342Y-96127614D01*
X153798000Y-96139000D01*
X151707941Y-96139000D01*
X151694410Y-96142973D01*
X151693426Y-96149821D01*
X151708981Y-96196582D01*
X151714856Y-96209297D01*
X151765961Y-96293682D01*
X151784140Y-96362311D01*
X151762330Y-96429875D01*
X151728185Y-96463719D01*
X151716516Y-96471516D01*
X151660266Y-96555699D01*
X151645500Y-96629933D01*
X151645501Y-97680066D01*
X151650159Y-97703484D01*
X151657428Y-97740031D01*
X151660266Y-97754301D01*
X151667161Y-97764621D01*
X151667162Y-97764622D01*
X151674847Y-97776123D01*
X151716516Y-97838484D01*
X151800699Y-97894734D01*
X151874933Y-97909500D01*
X152399915Y-97909500D01*
X152925066Y-97909499D01*
X152960818Y-97902388D01*
X152987126Y-97897156D01*
X152987128Y-97897155D01*
X152999301Y-97894734D01*
X153009621Y-97887838D01*
X153021087Y-97883089D01*
X153022835Y-97887309D01*
X153067088Y-97873390D01*
X153135579Y-97892085D01*
X153183091Y-97944840D01*
X153195500Y-97999367D01*
X153195500Y-98557266D01*
X153175498Y-98625387D01*
X153158595Y-98646361D01*
X151986360Y-99818595D01*
X151924048Y-99852621D01*
X151897265Y-99855500D01*
X147568735Y-99855500D01*
X147500614Y-99835498D01*
X147479640Y-99818595D01*
X143893083Y-96232038D01*
X143886133Y-96223341D01*
X143885673Y-96223733D01*
X143879855Y-96216897D01*
X143875065Y-96209305D01*
X143837626Y-96176240D01*
X143831939Y-96170894D01*
X143821432Y-96160387D01*
X143813872Y-96154721D01*
X143806041Y-96148345D01*
X143779918Y-96125274D01*
X143773190Y-96119332D01*
X143765063Y-96115517D01*
X143759638Y-96111953D01*
X143753061Y-96108001D01*
X143747391Y-96104897D01*
X143740209Y-96099514D01*
X143699146Y-96084120D01*
X143689845Y-96080201D01*
X143650157Y-96061568D01*
X143641287Y-96060187D01*
X143635095Y-96058294D01*
X143627656Y-96056342D01*
X143621342Y-96054954D01*
X143612940Y-96051804D01*
X143603993Y-96051139D01*
X143595219Y-96049210D01*
X143595937Y-96045944D01*
X143544717Y-96026682D01*
X143502325Y-95969731D01*
X143494499Y-95926018D01*
X143494499Y-95494934D01*
X143479734Y-95420699D01*
X143469323Y-95405117D01*
X143430377Y-95346832D01*
X143423484Y-95336516D01*
X143339301Y-95280266D01*
X143265067Y-95265500D01*
X142240166Y-95265500D01*
X141214934Y-95265501D01*
X141179182Y-95272612D01*
X141152874Y-95277844D01*
X141152872Y-95277845D01*
X141140699Y-95280266D01*
X141130379Y-95287161D01*
X141130378Y-95287162D01*
X141098088Y-95308738D01*
X141056516Y-95336516D01*
X141000266Y-95420699D01*
X140985500Y-95494933D01*
X132334500Y-95494933D01*
X132334500Y-81546962D01*
X141168671Y-81546962D01*
X141193443Y-81644502D01*
X141197284Y-81655348D01*
X141277394Y-81829120D01*
X141283145Y-81839081D01*
X141393579Y-81995343D01*
X141401057Y-82004098D01*
X141538114Y-82137612D01*
X141547058Y-82144855D01*
X141706156Y-82251161D01*
X141716266Y-82256651D01*
X141892077Y-82332185D01*
X141903020Y-82335740D01*
X141968332Y-82350519D01*
X141982405Y-82349630D01*
X141985828Y-82340681D01*
X142494000Y-82340681D01*
X142497966Y-82354187D01*
X142506672Y-82355433D01*
X142685497Y-82294730D01*
X142695994Y-82290056D01*
X142862958Y-82196552D01*
X142872430Y-82190042D01*
X143019553Y-82067682D01*
X143027682Y-82059553D01*
X143150042Y-81912430D01*
X143156552Y-81902958D01*
X143250056Y-81735994D01*
X143254730Y-81725497D01*
X143315335Y-81546962D01*
X143708671Y-81546962D01*
X143733443Y-81644502D01*
X143737284Y-81655348D01*
X143817394Y-81829120D01*
X143823145Y-81839081D01*
X143933579Y-81995343D01*
X143941057Y-82004098D01*
X144078114Y-82137612D01*
X144087058Y-82144855D01*
X144246156Y-82251161D01*
X144256266Y-82256651D01*
X144432077Y-82332185D01*
X144443020Y-82335740D01*
X144508332Y-82350519D01*
X144522405Y-82349630D01*
X144525828Y-82340681D01*
X145034000Y-82340681D01*
X145037966Y-82354187D01*
X145046672Y-82355433D01*
X145225497Y-82294730D01*
X145235994Y-82290056D01*
X145402958Y-82196552D01*
X145412430Y-82190042D01*
X145559553Y-82067682D01*
X145567682Y-82059553D01*
X145690042Y-81912430D01*
X145696552Y-81902958D01*
X145790056Y-81735994D01*
X145794730Y-81725497D01*
X145855443Y-81546644D01*
X145854210Y-81537993D01*
X145840642Y-81534000D01*
X145052115Y-81534000D01*
X145036876Y-81538475D01*
X145035671Y-81539865D01*
X145034000Y-81547548D01*
X145034000Y-82340681D01*
X144525828Y-82340681D01*
X144526000Y-82340232D01*
X144526000Y-81552115D01*
X144521525Y-81536876D01*
X144520135Y-81535671D01*
X144512452Y-81534000D01*
X143723494Y-81534000D01*
X143709963Y-81537973D01*
X143708671Y-81546962D01*
X143315335Y-81546962D01*
X143315443Y-81546644D01*
X143314210Y-81537993D01*
X143300642Y-81534000D01*
X142512115Y-81534000D01*
X142496876Y-81538475D01*
X142495671Y-81539865D01*
X142494000Y-81547548D01*
X142494000Y-82340681D01*
X141985828Y-82340681D01*
X141986000Y-82340232D01*
X141986000Y-81552115D01*
X141981525Y-81536876D01*
X141980135Y-81535671D01*
X141972452Y-81534000D01*
X141183494Y-81534000D01*
X141169963Y-81537973D01*
X141168671Y-81546962D01*
X132334500Y-81546962D01*
X132334500Y-81022799D01*
X141167943Y-81022799D01*
X141174675Y-81026000D01*
X141967885Y-81026000D01*
X141983124Y-81021525D01*
X141984329Y-81020135D01*
X141986000Y-81012452D01*
X141986000Y-81007885D01*
X142494000Y-81007885D01*
X142498475Y-81023124D01*
X142499865Y-81024329D01*
X142507548Y-81026000D01*
X143297398Y-81026000D01*
X143308300Y-81022799D01*
X143707943Y-81022799D01*
X143714675Y-81026000D01*
X144507885Y-81026000D01*
X144523124Y-81021525D01*
X144524329Y-81020135D01*
X144526000Y-81012452D01*
X144526000Y-81007885D01*
X145034000Y-81007885D01*
X145038475Y-81023124D01*
X145039865Y-81024329D01*
X145047548Y-81026000D01*
X145837398Y-81026000D01*
X145850929Y-81022027D01*
X145852098Y-81013892D01*
X145816658Y-80888231D01*
X145812533Y-80877484D01*
X145727903Y-80705871D01*
X145721893Y-80696063D01*
X145607400Y-80542739D01*
X145599710Y-80534199D01*
X145459192Y-80404304D01*
X145450067Y-80397303D01*
X145288236Y-80295195D01*
X145277989Y-80289974D01*
X145100260Y-80219068D01*
X145089232Y-80215801D01*
X145051769Y-80208350D01*
X145038894Y-80209502D01*
X145034000Y-80224658D01*
X145034000Y-81007885D01*
X144526000Y-81007885D01*
X144526000Y-80221500D01*
X144522194Y-80208538D01*
X144507279Y-80206602D01*
X144498732Y-80208071D01*
X144487620Y-80211048D01*
X144308095Y-80277279D01*
X144297717Y-80282229D01*
X144133273Y-80380063D01*
X144123961Y-80386829D01*
X143980097Y-80512994D01*
X143972180Y-80521337D01*
X143853718Y-80671605D01*
X143847450Y-80681256D01*
X143758358Y-80850592D01*
X143753953Y-80861227D01*
X143708162Y-81008698D01*
X143707943Y-81022799D01*
X143308300Y-81022799D01*
X143310929Y-81022027D01*
X143312098Y-81013892D01*
X143276658Y-80888231D01*
X143272533Y-80877484D01*
X143187903Y-80705871D01*
X143181893Y-80696063D01*
X143067400Y-80542739D01*
X143059710Y-80534199D01*
X142919192Y-80404304D01*
X142910067Y-80397303D01*
X142748236Y-80295195D01*
X142737989Y-80289974D01*
X142560260Y-80219068D01*
X142549232Y-80215801D01*
X142511769Y-80208350D01*
X142498894Y-80209502D01*
X142494000Y-80224658D01*
X142494000Y-81007885D01*
X141986000Y-81007885D01*
X141986000Y-80221500D01*
X141982194Y-80208538D01*
X141967279Y-80206602D01*
X141958732Y-80208071D01*
X141947620Y-80211048D01*
X141768095Y-80277279D01*
X141757717Y-80282229D01*
X141593273Y-80380063D01*
X141583961Y-80386829D01*
X141440097Y-80512994D01*
X141432180Y-80521337D01*
X141313718Y-80671605D01*
X141307450Y-80681256D01*
X141218358Y-80850592D01*
X141213953Y-80861227D01*
X141168162Y-81008698D01*
X141167943Y-81022799D01*
X132334500Y-81022799D01*
X132334500Y-78710964D01*
X141131148Y-78710964D01*
X141144424Y-78913522D01*
X141145845Y-78919118D01*
X141145846Y-78919123D01*
X141166119Y-78998945D01*
X141194392Y-79110269D01*
X141196809Y-79115512D01*
X141234010Y-79196208D01*
X141279377Y-79294616D01*
X141396533Y-79460389D01*
X141541938Y-79602035D01*
X141710720Y-79714812D01*
X141716023Y-79717090D01*
X141716026Y-79717092D01*
X141891921Y-79792662D01*
X141897228Y-79794942D01*
X141970244Y-79811464D01*
X142089579Y-79838467D01*
X142089584Y-79838468D01*
X142095216Y-79839742D01*
X142100987Y-79839969D01*
X142100989Y-79839969D01*
X142160756Y-79842317D01*
X142298053Y-79847712D01*
X142398499Y-79833148D01*
X142493231Y-79819413D01*
X142493236Y-79819412D01*
X142498945Y-79818584D01*
X142504409Y-79816729D01*
X142504414Y-79816728D01*
X142685693Y-79755192D01*
X142685698Y-79755190D01*
X142691165Y-79753334D01*
X142868276Y-79654147D01*
X142930934Y-79602035D01*
X143019913Y-79528031D01*
X143024345Y-79524345D01*
X143154147Y-79368276D01*
X143213845Y-79261677D01*
X143250510Y-79196208D01*
X143250511Y-79196206D01*
X143253334Y-79191165D01*
X143255190Y-79185698D01*
X143255192Y-79185693D01*
X143316728Y-79004414D01*
X143316729Y-79004409D01*
X143318584Y-78998945D01*
X143319412Y-78993236D01*
X143319413Y-78993231D01*
X143347179Y-78801727D01*
X143347712Y-78798053D01*
X143349232Y-78740000D01*
X143346564Y-78710964D01*
X143671148Y-78710964D01*
X143684424Y-78913522D01*
X143685845Y-78919118D01*
X143685846Y-78919123D01*
X143706119Y-78998945D01*
X143734392Y-79110269D01*
X143736809Y-79115512D01*
X143774010Y-79196208D01*
X143819377Y-79294616D01*
X143936533Y-79460389D01*
X144081938Y-79602035D01*
X144250720Y-79714812D01*
X144256023Y-79717090D01*
X144256026Y-79717092D01*
X144431921Y-79792662D01*
X144437228Y-79794942D01*
X144510244Y-79811464D01*
X144629579Y-79838467D01*
X144629584Y-79838468D01*
X144635216Y-79839742D01*
X144640987Y-79839969D01*
X144640989Y-79839969D01*
X144700756Y-79842317D01*
X144838053Y-79847712D01*
X144938499Y-79833148D01*
X145033231Y-79819413D01*
X145033236Y-79819412D01*
X145038945Y-79818584D01*
X145044409Y-79816729D01*
X145044414Y-79816728D01*
X145225693Y-79755192D01*
X145225698Y-79755190D01*
X145231165Y-79753334D01*
X145408276Y-79654147D01*
X145470934Y-79602035D01*
X145559913Y-79528031D01*
X145564345Y-79524345D01*
X145694147Y-79368276D01*
X145753845Y-79261677D01*
X145790510Y-79196208D01*
X145790511Y-79196206D01*
X145793334Y-79191165D01*
X145795190Y-79185698D01*
X145795192Y-79185693D01*
X145856728Y-79004414D01*
X145856729Y-79004409D01*
X145858584Y-78998945D01*
X145859412Y-78993236D01*
X145859413Y-78993231D01*
X145887179Y-78801727D01*
X145887712Y-78798053D01*
X145889232Y-78740000D01*
X145870658Y-78537859D01*
X145869090Y-78532299D01*
X145817125Y-78348046D01*
X145817124Y-78348044D01*
X145815557Y-78342487D01*
X145808878Y-78328942D01*
X145728331Y-78165609D01*
X145725776Y-78160428D01*
X145604320Y-77997779D01*
X145455258Y-77859987D01*
X145450375Y-77856906D01*
X145450371Y-77856903D01*
X145288464Y-77754748D01*
X145283581Y-77751667D01*
X145191507Y-77714933D01*
X149875500Y-77714933D01*
X149875501Y-79765066D01*
X149890266Y-79839301D01*
X149946516Y-79923484D01*
X150030699Y-79979734D01*
X150104933Y-79994500D01*
X151129834Y-79994500D01*
X152155066Y-79994499D01*
X152190818Y-79987388D01*
X152217126Y-79982156D01*
X152217128Y-79982155D01*
X152229301Y-79979734D01*
X152239621Y-79972839D01*
X152239622Y-79972838D01*
X152303168Y-79930377D01*
X152313484Y-79923484D01*
X152369734Y-79839301D01*
X152384500Y-79765067D01*
X152384499Y-77714934D01*
X152384499Y-77714933D01*
X177815500Y-77714933D01*
X177815501Y-79765066D01*
X177830266Y-79839301D01*
X177886516Y-79923484D01*
X177970699Y-79979734D01*
X178044933Y-79994500D01*
X179069834Y-79994500D01*
X180095066Y-79994499D01*
X180130818Y-79987388D01*
X180157126Y-79982156D01*
X180157128Y-79982155D01*
X180169301Y-79979734D01*
X180179621Y-79972839D01*
X180179622Y-79972838D01*
X180243168Y-79930377D01*
X180253484Y-79923484D01*
X180309734Y-79839301D01*
X180324500Y-79765067D01*
X180324499Y-77714934D01*
X180315082Y-77667585D01*
X180312156Y-77652874D01*
X180312155Y-77652872D01*
X180309734Y-77640699D01*
X180253484Y-77556516D01*
X180169301Y-77500266D01*
X180095067Y-77485500D01*
X179070166Y-77485500D01*
X178044934Y-77485501D01*
X178009182Y-77492612D01*
X177982874Y-77497844D01*
X177982872Y-77497845D01*
X177970699Y-77500266D01*
X177960379Y-77507161D01*
X177960378Y-77507162D01*
X177899985Y-77547516D01*
X177886516Y-77556516D01*
X177830266Y-77640699D01*
X177815500Y-77714933D01*
X152384499Y-77714933D01*
X152375082Y-77667585D01*
X152372156Y-77652874D01*
X152372155Y-77652872D01*
X152369734Y-77640699D01*
X152313484Y-77556516D01*
X152229301Y-77500266D01*
X152155067Y-77485500D01*
X151130166Y-77485500D01*
X150104934Y-77485501D01*
X150069182Y-77492612D01*
X150042874Y-77497844D01*
X150042872Y-77497845D01*
X150030699Y-77500266D01*
X150020379Y-77507161D01*
X150020378Y-77507162D01*
X149959985Y-77547516D01*
X149946516Y-77556516D01*
X149890266Y-77640699D01*
X149875500Y-77714933D01*
X145191507Y-77714933D01*
X145095039Y-77676446D01*
X145089379Y-77675320D01*
X145089375Y-77675319D01*
X144901613Y-77637971D01*
X144901610Y-77637971D01*
X144895946Y-77636844D01*
X144890171Y-77636768D01*
X144890167Y-77636768D01*
X144788793Y-77635441D01*
X144692971Y-77634187D01*
X144687274Y-77635166D01*
X144687273Y-77635166D01*
X144559271Y-77657161D01*
X144492910Y-77668564D01*
X144302463Y-77738824D01*
X144128010Y-77842612D01*
X144123670Y-77846418D01*
X144123666Y-77846421D01*
X143979733Y-77972648D01*
X143975392Y-77976455D01*
X143849720Y-78135869D01*
X143847031Y-78140980D01*
X143847029Y-78140983D01*
X143834073Y-78165609D01*
X143755203Y-78315515D01*
X143695007Y-78509378D01*
X143671148Y-78710964D01*
X143346564Y-78710964D01*
X143330658Y-78537859D01*
X143329090Y-78532299D01*
X143277125Y-78348046D01*
X143277124Y-78348044D01*
X143275557Y-78342487D01*
X143268878Y-78328942D01*
X143188331Y-78165609D01*
X143185776Y-78160428D01*
X143064320Y-77997779D01*
X142915258Y-77859987D01*
X142910375Y-77856906D01*
X142910371Y-77856903D01*
X142748464Y-77754748D01*
X142743581Y-77751667D01*
X142555039Y-77676446D01*
X142549379Y-77675320D01*
X142549375Y-77675319D01*
X142361613Y-77637971D01*
X142361610Y-77637971D01*
X142355946Y-77636844D01*
X142350171Y-77636768D01*
X142350167Y-77636768D01*
X142248793Y-77635441D01*
X142152971Y-77634187D01*
X142147274Y-77635166D01*
X142147273Y-77635166D01*
X142019271Y-77657161D01*
X141952910Y-77668564D01*
X141762463Y-77738824D01*
X141588010Y-77842612D01*
X141583670Y-77846418D01*
X141583666Y-77846421D01*
X141439733Y-77972648D01*
X141435392Y-77976455D01*
X141309720Y-78135869D01*
X141307031Y-78140980D01*
X141307029Y-78140983D01*
X141294073Y-78165609D01*
X141215203Y-78315515D01*
X141155007Y-78509378D01*
X141131148Y-78710964D01*
X132334500Y-78710964D01*
X132334500Y-75310500D01*
X132354502Y-75242379D01*
X132408158Y-75195886D01*
X132460500Y-75184500D01*
X197739500Y-75184500D01*
X197807621Y-75204502D01*
G37*
G04 #@! TD.AperFunction*
M02*
