%TF.GenerationSoftware,KiCad,Pcbnew,(6.0.9)*%
%TF.CreationDate,2022-11-20T21:47:47+01:00*%
%TF.ProjectId,iCE40HX8K-EVB EXT2PMOD adapter,69434534-3048-4583-984b-2d4556422045,V1.0*%
%TF.SameCoordinates,Original*%
%TF.FileFunction,Drillmap*%
%TF.FilePolarity,Positive*%
%FSLAX45Y45*%
G04 Gerber Fmt 4.5, Leading zero omitted, Abs format (unit mm)*
G04 Created by KiCad (PCBNEW (6.0.9)) date 2022-11-20 21:47:47*
%MOMM*%
%LPD*%
G01*
G04 APERTURE LIST*
%ADD10C,0.100000*%
%ADD11C,0.200000*%
G04 APERTURE END LIST*
D10*
X13208000Y-7493000D02*
X13208000Y-11811000D01*
X19812000Y-7493000D02*
X13208000Y-7493000D01*
X19812000Y-11811000D02*
X19812000Y-7493000D01*
X13208000Y-11811000D02*
X19812000Y-11811000D01*
D11*
X13460619Y-12126476D02*
X13460619Y-11926476D01*
X13508238Y-11926476D01*
X13536809Y-11936000D01*
X13555857Y-11955048D01*
X13565381Y-11974095D01*
X13574905Y-12012190D01*
X13574905Y-12040762D01*
X13565381Y-12078857D01*
X13555857Y-12097905D01*
X13536809Y-12116952D01*
X13508238Y-12126476D01*
X13460619Y-12126476D01*
X13660619Y-12126476D02*
X13660619Y-11993143D01*
X13660619Y-12031238D02*
X13670143Y-12012190D01*
X13679667Y-12002667D01*
X13698714Y-11993143D01*
X13717762Y-11993143D01*
X13784428Y-12126476D02*
X13784428Y-11993143D01*
X13784428Y-11926476D02*
X13774905Y-11936000D01*
X13784428Y-11945524D01*
X13793952Y-11936000D01*
X13784428Y-11926476D01*
X13784428Y-11945524D01*
X13908238Y-12126476D02*
X13889190Y-12116952D01*
X13879667Y-12097905D01*
X13879667Y-11926476D01*
X14013000Y-12126476D02*
X13993952Y-12116952D01*
X13984428Y-12097905D01*
X13984428Y-11926476D01*
X14241571Y-12126476D02*
X14241571Y-11926476D01*
X14308238Y-12069333D01*
X14374905Y-11926476D01*
X14374905Y-12126476D01*
X14555857Y-12126476D02*
X14555857Y-12021714D01*
X14546333Y-12002667D01*
X14527286Y-11993143D01*
X14489190Y-11993143D01*
X14470143Y-12002667D01*
X14555857Y-12116952D02*
X14536809Y-12126476D01*
X14489190Y-12126476D01*
X14470143Y-12116952D01*
X14460619Y-12097905D01*
X14460619Y-12078857D01*
X14470143Y-12059809D01*
X14489190Y-12050286D01*
X14536809Y-12050286D01*
X14555857Y-12040762D01*
X14651095Y-11993143D02*
X14651095Y-12193143D01*
X14651095Y-12002667D02*
X14670143Y-11993143D01*
X14708238Y-11993143D01*
X14727286Y-12002667D01*
X14736809Y-12012190D01*
X14746333Y-12031238D01*
X14746333Y-12088381D01*
X14736809Y-12107428D01*
X14727286Y-12116952D01*
X14708238Y-12126476D01*
X14670143Y-12126476D01*
X14651095Y-12116952D01*
X14832048Y-12107428D02*
X14841571Y-12116952D01*
X14832048Y-12126476D01*
X14822524Y-12116952D01*
X14832048Y-12107428D01*
X14832048Y-12126476D01*
X14832048Y-12002667D02*
X14841571Y-12012190D01*
X14832048Y-12021714D01*
X14822524Y-12012190D01*
X14832048Y-12002667D01*
X14832048Y-12021714D01*
M02*
