G04 #@! TF.GenerationSoftware,KiCad,Pcbnew,(6.0.9)*
G04 #@! TF.CreationDate,2022-11-20T21:47:37+01:00*
G04 #@! TF.ProjectId,iCE40HX8K-EVB EXT2PMOD adapter,69434534-3048-4583-984b-2d4556422045,V1.0*
G04 #@! TF.SameCoordinates,Original*
G04 #@! TF.FileFunction,Legend,Top*
G04 #@! TF.FilePolarity,Positive*
%FSLAX46Y46*%
G04 Gerber Fmt 4.6, Leading zero omitted, Abs format (unit mm)*
G04 Created by KiCad (PCBNEW (6.0.9)) date 2022-11-20 21:47:37*
%MOMM*%
%LPD*%
G01*
G04 APERTURE LIST*
G04 Aperture macros list*
%AMRoundRect*
0 Rectangle with rounded corners*
0 $1 Rounding radius*
0 $2 $3 $4 $5 $6 $7 $8 $9 X,Y pos of 4 corners*
0 Add a 4 corners polygon primitive as box body*
4,1,4,$2,$3,$4,$5,$6,$7,$8,$9,$2,$3,0*
0 Add four circle primitives for the rounded corners*
1,1,$1+$1,$2,$3*
1,1,$1+$1,$4,$5*
1,1,$1+$1,$6,$7*
1,1,$1+$1,$8,$9*
0 Add four rect primitives between the rounded corners*
20,1,$1+$1,$2,$3,$4,$5,0*
20,1,$1+$1,$4,$5,$6,$7,0*
20,1,$1+$1,$6,$7,$8,$9,0*
20,1,$1+$1,$8,$9,$2,$3,0*%
G04 Aperture macros list end*
%ADD10C,0.150000*%
%ADD11C,0.120000*%
%ADD12C,1.500000*%
%ADD13R,2.000000X2.000000*%
%ADD14R,1.700000X1.700000*%
%ADD15O,1.700000X1.700000*%
%ADD16R,3.800000X2.000000*%
%ADD17R,1.500000X2.000000*%
%ADD18RoundRect,0.250000X0.350000X0.450000X-0.350000X0.450000X-0.350000X-0.450000X0.350000X-0.450000X0*%
%ADD19RoundRect,0.250000X0.450000X-0.350000X0.450000X0.350000X-0.450000X0.350000X-0.450000X-0.350000X0*%
%ADD20RoundRect,0.250000X0.325000X0.450000X-0.325000X0.450000X-0.325000X-0.450000X0.325000X-0.450000X0*%
%ADD21RoundRect,0.250000X-0.475000X0.337500X-0.475000X-0.337500X0.475000X-0.337500X0.475000X0.337500X0*%
%ADD22RoundRect,0.250000X0.475000X-0.337500X0.475000X0.337500X-0.475000X0.337500X-0.475000X-0.337500X0*%
%ADD23R,1.000000X1.000000*%
%ADD24O,1.000000X1.000000*%
G04 APERTURE END LIST*
D10*
X157289523Y-89987380D02*
X156718095Y-89987380D01*
X157003809Y-89987380D02*
X157003809Y-88987380D01*
X156908571Y-89130238D01*
X156813333Y-89225476D01*
X156718095Y-89273095D01*
X157908571Y-88987380D02*
X158003809Y-88987380D01*
X158099047Y-89035000D01*
X158146666Y-89082619D01*
X158194285Y-89177857D01*
X158241904Y-89368333D01*
X158241904Y-89606428D01*
X158194285Y-89796904D01*
X158146666Y-89892142D01*
X158099047Y-89939761D01*
X158003809Y-89987380D01*
X157908571Y-89987380D01*
X157813333Y-89939761D01*
X157765714Y-89892142D01*
X157718095Y-89796904D01*
X157670476Y-89606428D01*
X157670476Y-89368333D01*
X157718095Y-89177857D01*
X157765714Y-89082619D01*
X157813333Y-89035000D01*
X157908571Y-88987380D01*
X183515000Y-78740000D02*
X185420000Y-78740000D01*
X183515000Y-80010000D02*
X186690000Y-80010000D01*
X186690000Y-80010000D02*
X187960000Y-78740000D01*
X183515000Y-81280000D02*
X185420000Y-81280000D01*
X183515000Y-82550000D02*
X186690000Y-82550000D01*
X186690000Y-82550000D02*
X187960000Y-81280000D01*
X183515000Y-83820000D02*
X185420000Y-83820000D01*
X183515000Y-85090000D02*
X186690000Y-85090000D01*
X186690000Y-85090000D02*
X187960000Y-83820000D01*
X183515000Y-86360000D02*
X185420000Y-86360000D01*
X186690000Y-87630000D02*
X187960000Y-86360000D01*
X183515000Y-87630000D02*
X186690000Y-87630000D01*
X181703214Y-78287619D02*
X181750833Y-78240000D01*
X181846071Y-78192380D01*
X182084166Y-78192380D01*
X182179404Y-78240000D01*
X182227023Y-78287619D01*
X182274642Y-78382857D01*
X182274642Y-78478095D01*
X182227023Y-78620952D01*
X181655595Y-79192380D01*
X182274642Y-79192380D01*
X182846071Y-78620952D02*
X182750833Y-78573333D01*
X182703214Y-78525714D01*
X182655595Y-78430476D01*
X182655595Y-78382857D01*
X182703214Y-78287619D01*
X182750833Y-78240000D01*
X182846071Y-78192380D01*
X183036547Y-78192380D01*
X183131785Y-78240000D01*
X183179404Y-78287619D01*
X183227023Y-78382857D01*
X183227023Y-78430476D01*
X183179404Y-78525714D01*
X183131785Y-78573333D01*
X183036547Y-78620952D01*
X182846071Y-78620952D01*
X182750833Y-78668571D01*
X182703214Y-78716190D01*
X182655595Y-78811428D01*
X182655595Y-79001904D01*
X182703214Y-79097142D01*
X182750833Y-79144761D01*
X182846071Y-79192380D01*
X183036547Y-79192380D01*
X183131785Y-79144761D01*
X183179404Y-79097142D01*
X183227023Y-79001904D01*
X183227023Y-78811428D01*
X183179404Y-78716190D01*
X183131785Y-78668571D01*
X183036547Y-78620952D01*
X181655595Y-79462380D02*
X182274642Y-79462380D01*
X181941309Y-79843333D01*
X182084166Y-79843333D01*
X182179404Y-79890952D01*
X182227023Y-79938571D01*
X182274642Y-80033809D01*
X182274642Y-80271904D01*
X182227023Y-80367142D01*
X182179404Y-80414761D01*
X182084166Y-80462380D01*
X181798452Y-80462380D01*
X181703214Y-80414761D01*
X181655595Y-80367142D01*
X182893690Y-79462380D02*
X182988928Y-79462380D01*
X183084166Y-79510000D01*
X183131785Y-79557619D01*
X183179404Y-79652857D01*
X183227023Y-79843333D01*
X183227023Y-80081428D01*
X183179404Y-80271904D01*
X183131785Y-80367142D01*
X183084166Y-80414761D01*
X182988928Y-80462380D01*
X182893690Y-80462380D01*
X182798452Y-80414761D01*
X182750833Y-80367142D01*
X182703214Y-80271904D01*
X182655595Y-80081428D01*
X182655595Y-79843333D01*
X182703214Y-79652857D01*
X182750833Y-79557619D01*
X182798452Y-79510000D01*
X182893690Y-79462380D01*
X181655595Y-80732380D02*
X182274642Y-80732380D01*
X181941309Y-81113333D01*
X182084166Y-81113333D01*
X182179404Y-81160952D01*
X182227023Y-81208571D01*
X182274642Y-81303809D01*
X182274642Y-81541904D01*
X182227023Y-81637142D01*
X182179404Y-81684761D01*
X182084166Y-81732380D01*
X181798452Y-81732380D01*
X181703214Y-81684761D01*
X181655595Y-81637142D01*
X182655595Y-80827619D02*
X182703214Y-80780000D01*
X182798452Y-80732380D01*
X183036547Y-80732380D01*
X183131785Y-80780000D01*
X183179404Y-80827619D01*
X183227023Y-80922857D01*
X183227023Y-81018095D01*
X183179404Y-81160952D01*
X182607976Y-81732380D01*
X183227023Y-81732380D01*
X181655595Y-82002380D02*
X182274642Y-82002380D01*
X181941309Y-82383333D01*
X182084166Y-82383333D01*
X182179404Y-82430952D01*
X182227023Y-82478571D01*
X182274642Y-82573809D01*
X182274642Y-82811904D01*
X182227023Y-82907142D01*
X182179404Y-82954761D01*
X182084166Y-83002380D01*
X181798452Y-83002380D01*
X181703214Y-82954761D01*
X181655595Y-82907142D01*
X183131785Y-82335714D02*
X183131785Y-83002380D01*
X182893690Y-81954761D02*
X182655595Y-82669047D01*
X183274642Y-82669047D01*
X181655595Y-83272380D02*
X182274642Y-83272380D01*
X181941309Y-83653333D01*
X182084166Y-83653333D01*
X182179404Y-83700952D01*
X182227023Y-83748571D01*
X182274642Y-83843809D01*
X182274642Y-84081904D01*
X182227023Y-84177142D01*
X182179404Y-84224761D01*
X182084166Y-84272380D01*
X181798452Y-84272380D01*
X181703214Y-84224761D01*
X181655595Y-84177142D01*
X183131785Y-83272380D02*
X182941309Y-83272380D01*
X182846071Y-83320000D01*
X182798452Y-83367619D01*
X182703214Y-83510476D01*
X182655595Y-83700952D01*
X182655595Y-84081904D01*
X182703214Y-84177142D01*
X182750833Y-84224761D01*
X182846071Y-84272380D01*
X183036547Y-84272380D01*
X183131785Y-84224761D01*
X183179404Y-84177142D01*
X183227023Y-84081904D01*
X183227023Y-83843809D01*
X183179404Y-83748571D01*
X183131785Y-83700952D01*
X183036547Y-83653333D01*
X182846071Y-83653333D01*
X182750833Y-83700952D01*
X182703214Y-83748571D01*
X182655595Y-83843809D01*
X181655595Y-84542380D02*
X182274642Y-84542380D01*
X181941309Y-84923333D01*
X182084166Y-84923333D01*
X182179404Y-84970952D01*
X182227023Y-85018571D01*
X182274642Y-85113809D01*
X182274642Y-85351904D01*
X182227023Y-85447142D01*
X182179404Y-85494761D01*
X182084166Y-85542380D01*
X181798452Y-85542380D01*
X181703214Y-85494761D01*
X181655595Y-85447142D01*
X182846071Y-84970952D02*
X182750833Y-84923333D01*
X182703214Y-84875714D01*
X182655595Y-84780476D01*
X182655595Y-84732857D01*
X182703214Y-84637619D01*
X182750833Y-84590000D01*
X182846071Y-84542380D01*
X183036547Y-84542380D01*
X183131785Y-84590000D01*
X183179404Y-84637619D01*
X183227023Y-84732857D01*
X183227023Y-84780476D01*
X183179404Y-84875714D01*
X183131785Y-84923333D01*
X183036547Y-84970952D01*
X182846071Y-84970952D01*
X182750833Y-85018571D01*
X182703214Y-85066190D01*
X182655595Y-85161428D01*
X182655595Y-85351904D01*
X182703214Y-85447142D01*
X182750833Y-85494761D01*
X182846071Y-85542380D01*
X183036547Y-85542380D01*
X183131785Y-85494761D01*
X183179404Y-85447142D01*
X183227023Y-85351904D01*
X183227023Y-85161428D01*
X183179404Y-85066190D01*
X183131785Y-85018571D01*
X183036547Y-84970952D01*
X181655595Y-87082380D02*
X182274642Y-87082380D01*
X181941309Y-87463333D01*
X182084166Y-87463333D01*
X182179404Y-87510952D01*
X182227023Y-87558571D01*
X182274642Y-87653809D01*
X182274642Y-87891904D01*
X182227023Y-87987142D01*
X182179404Y-88034761D01*
X182084166Y-88082380D01*
X181798452Y-88082380D01*
X181703214Y-88034761D01*
X181655595Y-87987142D01*
X182750833Y-88082380D02*
X182941309Y-88082380D01*
X183036547Y-88034761D01*
X183084166Y-87987142D01*
X183179404Y-87844285D01*
X183227023Y-87653809D01*
X183227023Y-87272857D01*
X183179404Y-87177619D01*
X183131785Y-87130000D01*
X183036547Y-87082380D01*
X182846071Y-87082380D01*
X182750833Y-87130000D01*
X182703214Y-87177619D01*
X182655595Y-87272857D01*
X182655595Y-87510952D01*
X182703214Y-87606190D01*
X182750833Y-87653809D01*
X182846071Y-87701428D01*
X183036547Y-87701428D01*
X183131785Y-87653809D01*
X183179404Y-87606190D01*
X183227023Y-87510952D01*
X182179404Y-86145714D02*
X182179404Y-86812380D01*
X181941309Y-85764761D02*
X181703214Y-86479047D01*
X182322261Y-86479047D01*
X182893690Y-85812380D02*
X182988928Y-85812380D01*
X183084166Y-85860000D01*
X183131785Y-85907619D01*
X183179404Y-86002857D01*
X183227023Y-86193333D01*
X183227023Y-86431428D01*
X183179404Y-86621904D01*
X183131785Y-86717142D01*
X183084166Y-86764761D01*
X182988928Y-86812380D01*
X182893690Y-86812380D01*
X182798452Y-86764761D01*
X182750833Y-86717142D01*
X182703214Y-86621904D01*
X182655595Y-86431428D01*
X182655595Y-86193333D01*
X182703214Y-86002857D01*
X182750833Y-85907619D01*
X182798452Y-85860000D01*
X182893690Y-85812380D01*
X183515000Y-100330000D02*
X186690000Y-100330000D01*
X183515000Y-101600000D02*
X185420000Y-101600000D01*
X186690000Y-100330000D02*
X187960000Y-101600000D01*
X183515000Y-102870000D02*
X186690000Y-102870000D01*
X183515000Y-104140000D02*
X185420000Y-104140000D01*
X186690000Y-102870000D02*
X187960000Y-104140000D01*
X183515000Y-105410000D02*
X186690000Y-105410000D01*
X183515000Y-106680000D02*
X185420000Y-106680000D01*
X186690000Y-105410000D02*
X187960000Y-106680000D01*
X186690000Y-107950000D02*
X187960000Y-109220000D01*
X183515000Y-107950000D02*
X186690000Y-107950000D01*
X183515000Y-109220000D02*
X185420000Y-109220000D01*
X181655595Y-99782380D02*
X182274642Y-99782380D01*
X181941309Y-100163333D01*
X182084166Y-100163333D01*
X182179404Y-100210952D01*
X182227023Y-100258571D01*
X182274642Y-100353809D01*
X182274642Y-100591904D01*
X182227023Y-100687142D01*
X182179404Y-100734761D01*
X182084166Y-100782380D01*
X181798452Y-100782380D01*
X181703214Y-100734761D01*
X181655595Y-100687142D01*
X182607976Y-99782380D02*
X183274642Y-99782380D01*
X182846071Y-100782380D01*
X181655595Y-101052380D02*
X182274642Y-101052380D01*
X181941309Y-101433333D01*
X182084166Y-101433333D01*
X182179404Y-101480952D01*
X182227023Y-101528571D01*
X182274642Y-101623809D01*
X182274642Y-101861904D01*
X182227023Y-101957142D01*
X182179404Y-102004761D01*
X182084166Y-102052380D01*
X181798452Y-102052380D01*
X181703214Y-102004761D01*
X181655595Y-101957142D01*
X183179404Y-101052380D02*
X182703214Y-101052380D01*
X182655595Y-101528571D01*
X182703214Y-101480952D01*
X182798452Y-101433333D01*
X183036547Y-101433333D01*
X183131785Y-101480952D01*
X183179404Y-101528571D01*
X183227023Y-101623809D01*
X183227023Y-101861904D01*
X183179404Y-101957142D01*
X183131785Y-102004761D01*
X183036547Y-102052380D01*
X182798452Y-102052380D01*
X182703214Y-102004761D01*
X182655595Y-101957142D01*
X181655595Y-102322380D02*
X182274642Y-102322380D01*
X181941309Y-102703333D01*
X182084166Y-102703333D01*
X182179404Y-102750952D01*
X182227023Y-102798571D01*
X182274642Y-102893809D01*
X182274642Y-103131904D01*
X182227023Y-103227142D01*
X182179404Y-103274761D01*
X182084166Y-103322380D01*
X181798452Y-103322380D01*
X181703214Y-103274761D01*
X181655595Y-103227142D01*
X182607976Y-102322380D02*
X183227023Y-102322380D01*
X182893690Y-102703333D01*
X183036547Y-102703333D01*
X183131785Y-102750952D01*
X183179404Y-102798571D01*
X183227023Y-102893809D01*
X183227023Y-103131904D01*
X183179404Y-103227142D01*
X183131785Y-103274761D01*
X183036547Y-103322380D01*
X182750833Y-103322380D01*
X182655595Y-103274761D01*
X182607976Y-103227142D01*
X181655595Y-103592380D02*
X182274642Y-103592380D01*
X181941309Y-103973333D01*
X182084166Y-103973333D01*
X182179404Y-104020952D01*
X182227023Y-104068571D01*
X182274642Y-104163809D01*
X182274642Y-104401904D01*
X182227023Y-104497142D01*
X182179404Y-104544761D01*
X182084166Y-104592380D01*
X181798452Y-104592380D01*
X181703214Y-104544761D01*
X181655595Y-104497142D01*
X183227023Y-104592380D02*
X182655595Y-104592380D01*
X182941309Y-104592380D02*
X182941309Y-103592380D01*
X182846071Y-103735238D01*
X182750833Y-103830476D01*
X182655595Y-103878095D01*
X181703214Y-104957619D02*
X181750833Y-104910000D01*
X181846071Y-104862380D01*
X182084166Y-104862380D01*
X182179404Y-104910000D01*
X182227023Y-104957619D01*
X182274642Y-105052857D01*
X182274642Y-105148095D01*
X182227023Y-105290952D01*
X181655595Y-105862380D01*
X182274642Y-105862380D01*
X182750833Y-105862380D02*
X182941309Y-105862380D01*
X183036547Y-105814761D01*
X183084166Y-105767142D01*
X183179404Y-105624285D01*
X183227023Y-105433809D01*
X183227023Y-105052857D01*
X183179404Y-104957619D01*
X183131785Y-104910000D01*
X183036547Y-104862380D01*
X182846071Y-104862380D01*
X182750833Y-104910000D01*
X182703214Y-104957619D01*
X182655595Y-105052857D01*
X182655595Y-105290952D01*
X182703214Y-105386190D01*
X182750833Y-105433809D01*
X182846071Y-105481428D01*
X183036547Y-105481428D01*
X183131785Y-105433809D01*
X183179404Y-105386190D01*
X183227023Y-105290952D01*
X181703214Y-106227619D02*
X181750833Y-106180000D01*
X181846071Y-106132380D01*
X182084166Y-106132380D01*
X182179404Y-106180000D01*
X182227023Y-106227619D01*
X182274642Y-106322857D01*
X182274642Y-106418095D01*
X182227023Y-106560952D01*
X181655595Y-107132380D01*
X182274642Y-107132380D01*
X182607976Y-106132380D02*
X183274642Y-106132380D01*
X182846071Y-107132380D01*
X181703214Y-107497619D02*
X181750833Y-107450000D01*
X181846071Y-107402380D01*
X182084166Y-107402380D01*
X182179404Y-107450000D01*
X182227023Y-107497619D01*
X182274642Y-107592857D01*
X182274642Y-107688095D01*
X182227023Y-107830952D01*
X181655595Y-108402380D01*
X182274642Y-108402380D01*
X183179404Y-107402380D02*
X182703214Y-107402380D01*
X182655595Y-107878571D01*
X182703214Y-107830952D01*
X182798452Y-107783333D01*
X183036547Y-107783333D01*
X183131785Y-107830952D01*
X183179404Y-107878571D01*
X183227023Y-107973809D01*
X183227023Y-108211904D01*
X183179404Y-108307142D01*
X183131785Y-108354761D01*
X183036547Y-108402380D01*
X182798452Y-108402380D01*
X182703214Y-108354761D01*
X182655595Y-108307142D01*
X181703214Y-108767619D02*
X181750833Y-108720000D01*
X181846071Y-108672380D01*
X182084166Y-108672380D01*
X182179404Y-108720000D01*
X182227023Y-108767619D01*
X182274642Y-108862857D01*
X182274642Y-108958095D01*
X182227023Y-109100952D01*
X181655595Y-109672380D01*
X182274642Y-109672380D01*
X182607976Y-108672380D02*
X183227023Y-108672380D01*
X182893690Y-109053333D01*
X183036547Y-109053333D01*
X183131785Y-109100952D01*
X183179404Y-109148571D01*
X183227023Y-109243809D01*
X183227023Y-109481904D01*
X183179404Y-109577142D01*
X183131785Y-109624761D01*
X183036547Y-109672380D01*
X182750833Y-109672380D01*
X182655595Y-109624761D01*
X182607976Y-109577142D01*
X146685000Y-83820000D02*
X144780000Y-83820000D01*
X143510000Y-85090000D02*
X142240000Y-83820000D01*
X146685000Y-85090000D02*
X143510000Y-85090000D01*
X146685000Y-86360000D02*
X144780000Y-86360000D01*
X143510000Y-87630000D02*
X142240000Y-86360000D01*
X146685000Y-87630000D02*
X143510000Y-87630000D01*
X146685000Y-91440000D02*
X144780000Y-91440000D01*
X143510000Y-92710000D02*
X142240000Y-91440000D01*
X146685000Y-92710000D02*
X143510000Y-92710000D01*
X146685000Y-88900000D02*
X144780000Y-88900000D01*
X143510000Y-90170000D02*
X142240000Y-88900000D01*
X146685000Y-90170000D02*
X143510000Y-90170000D01*
X146972976Y-84637619D02*
X147020595Y-84590000D01*
X147115833Y-84542380D01*
X147353928Y-84542380D01*
X147449166Y-84590000D01*
X147496785Y-84637619D01*
X147544404Y-84732857D01*
X147544404Y-84828095D01*
X147496785Y-84970952D01*
X146925357Y-85542380D01*
X147544404Y-85542380D01*
X148401547Y-84875714D02*
X148401547Y-85542380D01*
X148163452Y-84494761D02*
X147925357Y-85209047D01*
X148544404Y-85209047D01*
X146972976Y-83367619D02*
X147020595Y-83320000D01*
X147115833Y-83272380D01*
X147353928Y-83272380D01*
X147449166Y-83320000D01*
X147496785Y-83367619D01*
X147544404Y-83462857D01*
X147544404Y-83558095D01*
X147496785Y-83700952D01*
X146925357Y-84272380D01*
X147544404Y-84272380D01*
X148401547Y-83272380D02*
X148211071Y-83272380D01*
X148115833Y-83320000D01*
X148068214Y-83367619D01*
X147972976Y-83510476D01*
X147925357Y-83700952D01*
X147925357Y-84081904D01*
X147972976Y-84177142D01*
X148020595Y-84224761D01*
X148115833Y-84272380D01*
X148306309Y-84272380D01*
X148401547Y-84224761D01*
X148449166Y-84177142D01*
X148496785Y-84081904D01*
X148496785Y-83843809D01*
X148449166Y-83748571D01*
X148401547Y-83700952D01*
X148306309Y-83653333D01*
X148115833Y-83653333D01*
X148020595Y-83700952D01*
X147972976Y-83748571D01*
X147925357Y-83843809D01*
X146972976Y-87177619D02*
X147020595Y-87130000D01*
X147115833Y-87082380D01*
X147353928Y-87082380D01*
X147449166Y-87130000D01*
X147496785Y-87177619D01*
X147544404Y-87272857D01*
X147544404Y-87368095D01*
X147496785Y-87510952D01*
X146925357Y-88082380D01*
X147544404Y-88082380D01*
X148163452Y-87082380D02*
X148258690Y-87082380D01*
X148353928Y-87130000D01*
X148401547Y-87177619D01*
X148449166Y-87272857D01*
X148496785Y-87463333D01*
X148496785Y-87701428D01*
X148449166Y-87891904D01*
X148401547Y-87987142D01*
X148353928Y-88034761D01*
X148258690Y-88082380D01*
X148163452Y-88082380D01*
X148068214Y-88034761D01*
X148020595Y-87987142D01*
X147972976Y-87891904D01*
X147925357Y-87701428D01*
X147925357Y-87463333D01*
X147972976Y-87272857D01*
X148020595Y-87177619D01*
X148068214Y-87130000D01*
X148163452Y-87082380D01*
X146972976Y-85907619D02*
X147020595Y-85860000D01*
X147115833Y-85812380D01*
X147353928Y-85812380D01*
X147449166Y-85860000D01*
X147496785Y-85907619D01*
X147544404Y-86002857D01*
X147544404Y-86098095D01*
X147496785Y-86240952D01*
X146925357Y-86812380D01*
X147544404Y-86812380D01*
X147925357Y-85907619D02*
X147972976Y-85860000D01*
X148068214Y-85812380D01*
X148306309Y-85812380D01*
X148401547Y-85860000D01*
X148449166Y-85907619D01*
X148496785Y-86002857D01*
X148496785Y-86098095D01*
X148449166Y-86240952D01*
X147877738Y-86812380D01*
X148496785Y-86812380D01*
X147544404Y-90622380D02*
X146972976Y-90622380D01*
X147258690Y-90622380D02*
X147258690Y-89622380D01*
X147163452Y-89765238D01*
X147068214Y-89860476D01*
X146972976Y-89908095D01*
X148401547Y-89622380D02*
X148211071Y-89622380D01*
X148115833Y-89670000D01*
X148068214Y-89717619D01*
X147972976Y-89860476D01*
X147925357Y-90050952D01*
X147925357Y-90431904D01*
X147972976Y-90527142D01*
X148020595Y-90574761D01*
X148115833Y-90622380D01*
X148306309Y-90622380D01*
X148401547Y-90574761D01*
X148449166Y-90527142D01*
X148496785Y-90431904D01*
X148496785Y-90193809D01*
X148449166Y-90098571D01*
X148401547Y-90050952D01*
X148306309Y-90003333D01*
X148115833Y-90003333D01*
X148020595Y-90050952D01*
X147972976Y-90098571D01*
X147925357Y-90193809D01*
X147544404Y-89352380D02*
X146972976Y-89352380D01*
X147258690Y-89352380D02*
X147258690Y-88352380D01*
X147163452Y-88495238D01*
X147068214Y-88590476D01*
X146972976Y-88638095D01*
X148115833Y-88780952D02*
X148020595Y-88733333D01*
X147972976Y-88685714D01*
X147925357Y-88590476D01*
X147925357Y-88542857D01*
X147972976Y-88447619D01*
X148020595Y-88400000D01*
X148115833Y-88352380D01*
X148306309Y-88352380D01*
X148401547Y-88400000D01*
X148449166Y-88447619D01*
X148496785Y-88542857D01*
X148496785Y-88590476D01*
X148449166Y-88685714D01*
X148401547Y-88733333D01*
X148306309Y-88780952D01*
X148115833Y-88780952D01*
X148020595Y-88828571D01*
X147972976Y-88876190D01*
X147925357Y-88971428D01*
X147925357Y-89161904D01*
X147972976Y-89257142D01*
X148020595Y-89304761D01*
X148115833Y-89352380D01*
X148306309Y-89352380D01*
X148401547Y-89304761D01*
X148449166Y-89257142D01*
X148496785Y-89161904D01*
X148496785Y-88971428D01*
X148449166Y-88876190D01*
X148401547Y-88828571D01*
X148306309Y-88780952D01*
X147544404Y-93162380D02*
X146972976Y-93162380D01*
X147258690Y-93162380D02*
X147258690Y-92162380D01*
X147163452Y-92305238D01*
X147068214Y-92400476D01*
X146972976Y-92448095D01*
X147925357Y-92257619D02*
X147972976Y-92210000D01*
X148068214Y-92162380D01*
X148306309Y-92162380D01*
X148401547Y-92210000D01*
X148449166Y-92257619D01*
X148496785Y-92352857D01*
X148496785Y-92448095D01*
X148449166Y-92590952D01*
X147877738Y-93162380D01*
X148496785Y-93162380D01*
X147544404Y-91892380D02*
X146972976Y-91892380D01*
X147258690Y-91892380D02*
X147258690Y-90892380D01*
X147163452Y-91035238D01*
X147068214Y-91130476D01*
X146972976Y-91178095D01*
X148401547Y-91225714D02*
X148401547Y-91892380D01*
X148163452Y-90844761D02*
X147925357Y-91559047D01*
X148544404Y-91559047D01*
X146685000Y-114300000D02*
X144780000Y-114300000D01*
X146685000Y-111760000D02*
X144780000Y-111760000D01*
X146685000Y-109220000D02*
X144780000Y-109220000D01*
X146685000Y-106680000D02*
X144780000Y-106680000D01*
X146685000Y-113030000D02*
X143510000Y-113030000D01*
X143510000Y-113030000D02*
X142240000Y-114300000D01*
X143510000Y-110490000D02*
X142240000Y-111760000D01*
X146685000Y-110490000D02*
X143510000Y-110490000D01*
X146685000Y-107950000D02*
X143510000Y-107950000D01*
X143510000Y-107950000D02*
X142240000Y-109220000D01*
X143510000Y-105410000D02*
X142240000Y-106680000D01*
X146685000Y-105410000D02*
X143510000Y-105410000D01*
X146972976Y-113847619D02*
X147020595Y-113800000D01*
X147115833Y-113752380D01*
X147353928Y-113752380D01*
X147449166Y-113800000D01*
X147496785Y-113847619D01*
X147544404Y-113942857D01*
X147544404Y-114038095D01*
X147496785Y-114180952D01*
X146925357Y-114752380D01*
X147544404Y-114752380D01*
X148496785Y-114752380D02*
X147925357Y-114752380D01*
X148211071Y-114752380D02*
X148211071Y-113752380D01*
X148115833Y-113895238D01*
X148020595Y-113990476D01*
X147925357Y-114038095D01*
X147544404Y-113482380D02*
X146972976Y-113482380D01*
X147258690Y-113482380D02*
X147258690Y-112482380D01*
X147163452Y-112625238D01*
X147068214Y-112720476D01*
X146972976Y-112768095D01*
X148020595Y-113482380D02*
X148211071Y-113482380D01*
X148306309Y-113434761D01*
X148353928Y-113387142D01*
X148449166Y-113244285D01*
X148496785Y-113053809D01*
X148496785Y-112672857D01*
X148449166Y-112577619D01*
X148401547Y-112530000D01*
X148306309Y-112482380D01*
X148115833Y-112482380D01*
X148020595Y-112530000D01*
X147972976Y-112577619D01*
X147925357Y-112672857D01*
X147925357Y-112910952D01*
X147972976Y-113006190D01*
X148020595Y-113053809D01*
X148115833Y-113101428D01*
X148306309Y-113101428D01*
X148401547Y-113053809D01*
X148449166Y-113006190D01*
X148496785Y-112910952D01*
X147544404Y-112212380D02*
X146972976Y-112212380D01*
X147258690Y-112212380D02*
X147258690Y-111212380D01*
X147163452Y-111355238D01*
X147068214Y-111450476D01*
X146972976Y-111498095D01*
X147877738Y-111212380D02*
X148544404Y-111212380D01*
X148115833Y-112212380D01*
X147544404Y-110942380D02*
X146972976Y-110942380D01*
X147258690Y-110942380D02*
X147258690Y-109942380D01*
X147163452Y-110085238D01*
X147068214Y-110180476D01*
X146972976Y-110228095D01*
X148449166Y-109942380D02*
X147972976Y-109942380D01*
X147925357Y-110418571D01*
X147972976Y-110370952D01*
X148068214Y-110323333D01*
X148306309Y-110323333D01*
X148401547Y-110370952D01*
X148449166Y-110418571D01*
X148496785Y-110513809D01*
X148496785Y-110751904D01*
X148449166Y-110847142D01*
X148401547Y-110894761D01*
X148306309Y-110942380D01*
X148068214Y-110942380D01*
X147972976Y-110894761D01*
X147925357Y-110847142D01*
X147544404Y-109672380D02*
X146972976Y-109672380D01*
X147258690Y-109672380D02*
X147258690Y-108672380D01*
X147163452Y-108815238D01*
X147068214Y-108910476D01*
X146972976Y-108958095D01*
X147877738Y-108672380D02*
X148496785Y-108672380D01*
X148163452Y-109053333D01*
X148306309Y-109053333D01*
X148401547Y-109100952D01*
X148449166Y-109148571D01*
X148496785Y-109243809D01*
X148496785Y-109481904D01*
X148449166Y-109577142D01*
X148401547Y-109624761D01*
X148306309Y-109672380D01*
X148020595Y-109672380D01*
X147925357Y-109624761D01*
X147877738Y-109577142D01*
X147544404Y-108402380D02*
X146972976Y-108402380D01*
X147258690Y-108402380D02*
X147258690Y-107402380D01*
X147163452Y-107545238D01*
X147068214Y-107640476D01*
X146972976Y-107688095D01*
X148496785Y-108402380D02*
X147925357Y-108402380D01*
X148211071Y-108402380D02*
X148211071Y-107402380D01*
X148115833Y-107545238D01*
X148020595Y-107640476D01*
X147925357Y-107688095D01*
X147068214Y-107132380D02*
X147258690Y-107132380D01*
X147353928Y-107084761D01*
X147401547Y-107037142D01*
X147496785Y-106894285D01*
X147544404Y-106703809D01*
X147544404Y-106322857D01*
X147496785Y-106227619D01*
X147449166Y-106180000D01*
X147353928Y-106132380D01*
X147163452Y-106132380D01*
X147068214Y-106180000D01*
X147020595Y-106227619D01*
X146972976Y-106322857D01*
X146972976Y-106560952D01*
X147020595Y-106656190D01*
X147068214Y-106703809D01*
X147163452Y-106751428D01*
X147353928Y-106751428D01*
X147449166Y-106703809D01*
X147496785Y-106656190D01*
X147544404Y-106560952D01*
X146925357Y-104862380D02*
X147592023Y-104862380D01*
X147163452Y-105862380D01*
X141906666Y-93432380D02*
X142573333Y-93432380D01*
X142144761Y-94432380D01*
X142049523Y-76652380D02*
X141478095Y-76652380D01*
X141763809Y-76652380D02*
X141763809Y-75652380D01*
X141668571Y-75795238D01*
X141573333Y-75890476D01*
X141478095Y-75938095D01*
X142430476Y-75747619D02*
X142478095Y-75700000D01*
X142573333Y-75652380D01*
X142811428Y-75652380D01*
X142906666Y-75700000D01*
X142954285Y-75747619D01*
X143001904Y-75842857D01*
X143001904Y-75938095D01*
X142954285Y-76080952D01*
X142382857Y-76652380D01*
X143001904Y-76652380D01*
X144970476Y-75652380D02*
X144780000Y-75652380D01*
X144684761Y-75700000D01*
X144637142Y-75747619D01*
X144541904Y-75890476D01*
X144494285Y-76080952D01*
X144494285Y-76461904D01*
X144541904Y-76557142D01*
X144589523Y-76604761D01*
X144684761Y-76652380D01*
X144875238Y-76652380D01*
X144970476Y-76604761D01*
X145018095Y-76557142D01*
X145065714Y-76461904D01*
X145065714Y-76223809D01*
X145018095Y-76128571D01*
X144970476Y-76080952D01*
X144875238Y-76033333D01*
X144684761Y-76033333D01*
X144589523Y-76080952D01*
X144541904Y-76128571D01*
X144494285Y-76223809D01*
X145065714Y-94432380D02*
X144494285Y-94432380D01*
X144780000Y-94432380D02*
X144780000Y-93432380D01*
X144684761Y-93575238D01*
X144589523Y-93670476D01*
X144494285Y-93718095D01*
X144970476Y-98512380D02*
X144780000Y-98512380D01*
X144684761Y-98560000D01*
X144637142Y-98607619D01*
X144541904Y-98750476D01*
X144494285Y-98940952D01*
X144494285Y-99321904D01*
X144541904Y-99417142D01*
X144589523Y-99464761D01*
X144684761Y-99512380D01*
X144875238Y-99512380D01*
X144970476Y-99464761D01*
X145018095Y-99417142D01*
X145065714Y-99321904D01*
X145065714Y-99083809D01*
X145018095Y-98988571D01*
X144970476Y-98940952D01*
X144875238Y-98893333D01*
X144684761Y-98893333D01*
X144589523Y-98940952D01*
X144541904Y-98988571D01*
X144494285Y-99083809D01*
X142049523Y-99512380D02*
X141478095Y-99512380D01*
X141763809Y-99512380D02*
X141763809Y-98512380D01*
X141668571Y-98655238D01*
X141573333Y-98750476D01*
X141478095Y-98798095D01*
X142430476Y-98607619D02*
X142478095Y-98560000D01*
X142573333Y-98512380D01*
X142811428Y-98512380D01*
X142906666Y-98560000D01*
X142954285Y-98607619D01*
X143001904Y-98702857D01*
X143001904Y-98798095D01*
X142954285Y-98940952D01*
X142382857Y-99512380D01*
X143001904Y-99512380D01*
X141906666Y-116292380D02*
X142573333Y-116292380D01*
X142144761Y-117292380D01*
X145065714Y-117292380D02*
X144494285Y-117292380D01*
X144780000Y-117292380D02*
X144780000Y-116292380D01*
X144684761Y-116435238D01*
X144589523Y-116530476D01*
X144494285Y-116578095D01*
X187181666Y-98512380D02*
X187848333Y-98512380D01*
X187419761Y-99512380D01*
X187324523Y-117292380D02*
X186753095Y-117292380D01*
X187038809Y-117292380D02*
X187038809Y-116292380D01*
X186943571Y-116435238D01*
X186848333Y-116530476D01*
X186753095Y-116578095D01*
X187705476Y-116387619D02*
X187753095Y-116340000D01*
X187848333Y-116292380D01*
X188086428Y-116292380D01*
X188181666Y-116340000D01*
X188229285Y-116387619D01*
X188276904Y-116482857D01*
X188276904Y-116578095D01*
X188229285Y-116720952D01*
X187657857Y-117292380D01*
X188276904Y-117292380D01*
X185165476Y-116292380D02*
X184975000Y-116292380D01*
X184879761Y-116340000D01*
X184832142Y-116387619D01*
X184736904Y-116530476D01*
X184689285Y-116720952D01*
X184689285Y-117101904D01*
X184736904Y-117197142D01*
X184784523Y-117244761D01*
X184879761Y-117292380D01*
X185070238Y-117292380D01*
X185165476Y-117244761D01*
X185213095Y-117197142D01*
X185260714Y-117101904D01*
X185260714Y-116863809D01*
X185213095Y-116768571D01*
X185165476Y-116720952D01*
X185070238Y-116673333D01*
X184879761Y-116673333D01*
X184784523Y-116720952D01*
X184736904Y-116768571D01*
X184689285Y-116863809D01*
X185260714Y-99512380D02*
X184689285Y-99512380D01*
X184975000Y-99512380D02*
X184975000Y-98512380D01*
X184879761Y-98655238D01*
X184784523Y-98750476D01*
X184689285Y-98798095D01*
X187626666Y-75652380D02*
X188293333Y-75652380D01*
X187864761Y-76652380D01*
X185705714Y-76652380D02*
X185134285Y-76652380D01*
X185420000Y-76652380D02*
X185420000Y-75652380D01*
X185324761Y-75795238D01*
X185229523Y-75890476D01*
X185134285Y-75938095D01*
X187769523Y-94432380D02*
X187198095Y-94432380D01*
X187483809Y-94432380D02*
X187483809Y-93432380D01*
X187388571Y-93575238D01*
X187293333Y-93670476D01*
X187198095Y-93718095D01*
X188150476Y-93527619D02*
X188198095Y-93480000D01*
X188293333Y-93432380D01*
X188531428Y-93432380D01*
X188626666Y-93480000D01*
X188674285Y-93527619D01*
X188721904Y-93622857D01*
X188721904Y-93718095D01*
X188674285Y-93860952D01*
X188102857Y-94432380D01*
X188721904Y-94432380D01*
X185610476Y-93432380D02*
X185420000Y-93432380D01*
X185324761Y-93480000D01*
X185277142Y-93527619D01*
X185181904Y-93670476D01*
X185134285Y-93860952D01*
X185134285Y-94241904D01*
X185181904Y-94337142D01*
X185229523Y-94384761D01*
X185324761Y-94432380D01*
X185515238Y-94432380D01*
X185610476Y-94384761D01*
X185658095Y-94337142D01*
X185705714Y-94241904D01*
X185705714Y-94003809D01*
X185658095Y-93908571D01*
X185610476Y-93860952D01*
X185515238Y-93813333D01*
X185324761Y-93813333D01*
X185229523Y-93860952D01*
X185181904Y-93908571D01*
X185134285Y-94003809D01*
X180798452Y-113752380D02*
X181417500Y-113752380D01*
X181084166Y-114133333D01*
X181227023Y-114133333D01*
X181322261Y-114180952D01*
X181369880Y-114228571D01*
X181417500Y-114323809D01*
X181417500Y-114561904D01*
X181369880Y-114657142D01*
X181322261Y-114704761D01*
X181227023Y-114752380D01*
X180941309Y-114752380D01*
X180846071Y-114704761D01*
X180798452Y-114657142D01*
X181703214Y-113752380D02*
X182036547Y-114752380D01*
X182369880Y-113752380D01*
X182607976Y-113752380D02*
X183227023Y-113752380D01*
X182893690Y-114133333D01*
X183036547Y-114133333D01*
X183131785Y-114180952D01*
X183179404Y-114228571D01*
X183227023Y-114323809D01*
X183227023Y-114561904D01*
X183179404Y-114657142D01*
X183131785Y-114704761D01*
X183036547Y-114752380D01*
X182750833Y-114752380D01*
X182655595Y-114704761D01*
X182607976Y-114657142D01*
X181131785Y-111260000D02*
X181036547Y-111212380D01*
X180893690Y-111212380D01*
X180750833Y-111260000D01*
X180655595Y-111355238D01*
X180607976Y-111450476D01*
X180560357Y-111640952D01*
X180560357Y-111783809D01*
X180607976Y-111974285D01*
X180655595Y-112069523D01*
X180750833Y-112164761D01*
X180893690Y-112212380D01*
X180988928Y-112212380D01*
X181131785Y-112164761D01*
X181179404Y-112117142D01*
X181179404Y-111783809D01*
X180988928Y-111783809D01*
X181607976Y-112212380D02*
X181607976Y-111212380D01*
X182179404Y-112212380D01*
X182179404Y-111212380D01*
X182655595Y-112212380D02*
X182655595Y-111212380D01*
X182893690Y-111212380D01*
X183036547Y-111260000D01*
X183131785Y-111355238D01*
X183179404Y-111450476D01*
X183227023Y-111640952D01*
X183227023Y-111783809D01*
X183179404Y-111974285D01*
X183131785Y-112069523D01*
X183036547Y-112164761D01*
X182893690Y-112212380D01*
X182655595Y-112212380D01*
X181131785Y-88400000D02*
X181036547Y-88352380D01*
X180893690Y-88352380D01*
X180750833Y-88400000D01*
X180655595Y-88495238D01*
X180607976Y-88590476D01*
X180560357Y-88780952D01*
X180560357Y-88923809D01*
X180607976Y-89114285D01*
X180655595Y-89209523D01*
X180750833Y-89304761D01*
X180893690Y-89352380D01*
X180988928Y-89352380D01*
X181131785Y-89304761D01*
X181179404Y-89257142D01*
X181179404Y-88923809D01*
X180988928Y-88923809D01*
X181607976Y-89352380D02*
X181607976Y-88352380D01*
X182179404Y-89352380D01*
X182179404Y-88352380D01*
X182655595Y-89352380D02*
X182655595Y-88352380D01*
X182893690Y-88352380D01*
X183036547Y-88400000D01*
X183131785Y-88495238D01*
X183179404Y-88590476D01*
X183227023Y-88780952D01*
X183227023Y-88923809D01*
X183179404Y-89114285D01*
X183131785Y-89209523D01*
X183036547Y-89304761D01*
X182893690Y-89352380D01*
X182655595Y-89352380D01*
X180798452Y-90892380D02*
X181417500Y-90892380D01*
X181084166Y-91273333D01*
X181227023Y-91273333D01*
X181322261Y-91320952D01*
X181369880Y-91368571D01*
X181417500Y-91463809D01*
X181417500Y-91701904D01*
X181369880Y-91797142D01*
X181322261Y-91844761D01*
X181227023Y-91892380D01*
X180941309Y-91892380D01*
X180846071Y-91844761D01*
X180798452Y-91797142D01*
X181703214Y-90892380D02*
X182036547Y-91892380D01*
X182369880Y-90892380D01*
X182607976Y-90892380D02*
X183227023Y-90892380D01*
X182893690Y-91273333D01*
X183036547Y-91273333D01*
X183131785Y-91320952D01*
X183179404Y-91368571D01*
X183227023Y-91463809D01*
X183227023Y-91701904D01*
X183179404Y-91797142D01*
X183131785Y-91844761D01*
X183036547Y-91892380D01*
X182750833Y-91892380D01*
X182655595Y-91844761D01*
X182607976Y-91797142D01*
X147544404Y-80780000D02*
X147449166Y-80732380D01*
X147306309Y-80732380D01*
X147163452Y-80780000D01*
X147068214Y-80875238D01*
X147020595Y-80970476D01*
X146972976Y-81160952D01*
X146972976Y-81303809D01*
X147020595Y-81494285D01*
X147068214Y-81589523D01*
X147163452Y-81684761D01*
X147306309Y-81732380D01*
X147401547Y-81732380D01*
X147544404Y-81684761D01*
X147592023Y-81637142D01*
X147592023Y-81303809D01*
X147401547Y-81303809D01*
X148020595Y-81732380D02*
X148020595Y-80732380D01*
X148592023Y-81732380D01*
X148592023Y-80732380D01*
X149068214Y-81732380D02*
X149068214Y-80732380D01*
X149306309Y-80732380D01*
X149449166Y-80780000D01*
X149544404Y-80875238D01*
X149592023Y-80970476D01*
X149639642Y-81160952D01*
X149639642Y-81303809D01*
X149592023Y-81494285D01*
X149544404Y-81589523D01*
X149449166Y-81684761D01*
X149306309Y-81732380D01*
X149068214Y-81732380D01*
X146925357Y-78192380D02*
X147544404Y-78192380D01*
X147211071Y-78573333D01*
X147353928Y-78573333D01*
X147449166Y-78620952D01*
X147496785Y-78668571D01*
X147544404Y-78763809D01*
X147544404Y-79001904D01*
X147496785Y-79097142D01*
X147449166Y-79144761D01*
X147353928Y-79192380D01*
X147068214Y-79192380D01*
X146972976Y-79144761D01*
X146925357Y-79097142D01*
X147830119Y-78192380D02*
X148163452Y-79192380D01*
X148496785Y-78192380D01*
X148734880Y-78192380D02*
X149353928Y-78192380D01*
X149020595Y-78573333D01*
X149163452Y-78573333D01*
X149258690Y-78620952D01*
X149306309Y-78668571D01*
X149353928Y-78763809D01*
X149353928Y-79001904D01*
X149306309Y-79097142D01*
X149258690Y-79144761D01*
X149163452Y-79192380D01*
X148877738Y-79192380D01*
X148782500Y-79144761D01*
X148734880Y-79097142D01*
X147544404Y-103640000D02*
X147449166Y-103592380D01*
X147306309Y-103592380D01*
X147163452Y-103640000D01*
X147068214Y-103735238D01*
X147020595Y-103830476D01*
X146972976Y-104020952D01*
X146972976Y-104163809D01*
X147020595Y-104354285D01*
X147068214Y-104449523D01*
X147163452Y-104544761D01*
X147306309Y-104592380D01*
X147401547Y-104592380D01*
X147544404Y-104544761D01*
X147592023Y-104497142D01*
X147592023Y-104163809D01*
X147401547Y-104163809D01*
X148020595Y-104592380D02*
X148020595Y-103592380D01*
X148592023Y-104592380D01*
X148592023Y-103592380D01*
X149068214Y-104592380D02*
X149068214Y-103592380D01*
X149306309Y-103592380D01*
X149449166Y-103640000D01*
X149544404Y-103735238D01*
X149592023Y-103830476D01*
X149639642Y-104020952D01*
X149639642Y-104163809D01*
X149592023Y-104354285D01*
X149544404Y-104449523D01*
X149449166Y-104544761D01*
X149306309Y-104592380D01*
X149068214Y-104592380D01*
X146925357Y-101052380D02*
X147544404Y-101052380D01*
X147211071Y-101433333D01*
X147353928Y-101433333D01*
X147449166Y-101480952D01*
X147496785Y-101528571D01*
X147544404Y-101623809D01*
X147544404Y-101861904D01*
X147496785Y-101957142D01*
X147449166Y-102004761D01*
X147353928Y-102052380D01*
X147068214Y-102052380D01*
X146972976Y-102004761D01*
X146925357Y-101957142D01*
X147830119Y-101052380D02*
X148163452Y-102052380D01*
X148496785Y-101052380D01*
X148734880Y-101052380D02*
X149353928Y-101052380D01*
X149020595Y-101433333D01*
X149163452Y-101433333D01*
X149258690Y-101480952D01*
X149306309Y-101528571D01*
X149353928Y-101623809D01*
X149353928Y-101861904D01*
X149306309Y-101957142D01*
X149258690Y-102004761D01*
X149163452Y-102052380D01*
X148877738Y-102052380D01*
X148782500Y-102004761D01*
X148734880Y-101957142D01*
X147994761Y-99417142D02*
X147947142Y-99464761D01*
X147804285Y-99512380D01*
X147709047Y-99512380D01*
X147566190Y-99464761D01*
X147470952Y-99369523D01*
X147423333Y-99274285D01*
X147375714Y-99083809D01*
X147375714Y-98940952D01*
X147423333Y-98750476D01*
X147470952Y-98655238D01*
X147566190Y-98560000D01*
X147709047Y-98512380D01*
X147804285Y-98512380D01*
X147947142Y-98560000D01*
X147994761Y-98607619D01*
X148899523Y-99512380D02*
X148423333Y-99512380D01*
X148423333Y-98512380D01*
X149232857Y-99512380D02*
X149232857Y-98512380D01*
X149804285Y-99512380D02*
X149375714Y-98940952D01*
X149804285Y-98512380D02*
X149232857Y-99083809D01*
X136358571Y-95972380D02*
X136977619Y-95972380D01*
X136644285Y-96353333D01*
X136787142Y-96353333D01*
X136882380Y-96400952D01*
X136930000Y-96448571D01*
X136977619Y-96543809D01*
X136977619Y-96781904D01*
X136930000Y-96877142D01*
X136882380Y-96924761D01*
X136787142Y-96972380D01*
X136501428Y-96972380D01*
X136406190Y-96924761D01*
X136358571Y-96877142D01*
X137263333Y-95972380D02*
X137596666Y-96972380D01*
X137930000Y-95972380D01*
X138168095Y-95972380D02*
X138787142Y-95972380D01*
X138453809Y-96353333D01*
X138596666Y-96353333D01*
X138691904Y-96400952D01*
X138739523Y-96448571D01*
X138787142Y-96543809D01*
X138787142Y-96781904D01*
X138739523Y-96877142D01*
X138691904Y-96924761D01*
X138596666Y-96972380D01*
X138310952Y-96972380D01*
X138215714Y-96924761D01*
X138168095Y-96877142D01*
X138977619Y-97067619D02*
X139739523Y-97067619D01*
X139977619Y-96448571D02*
X140310952Y-96448571D01*
X140453809Y-96972380D02*
X139977619Y-96972380D01*
X139977619Y-95972380D01*
X140453809Y-95972380D01*
X178879523Y-80557380D02*
X178403333Y-80557380D01*
X178355714Y-81033571D01*
X178403333Y-80985952D01*
X178498571Y-80938333D01*
X178736666Y-80938333D01*
X178831904Y-80985952D01*
X178879523Y-81033571D01*
X178927142Y-81128809D01*
X178927142Y-81366904D01*
X178879523Y-81462142D01*
X178831904Y-81509761D01*
X178736666Y-81557380D01*
X178498571Y-81557380D01*
X178403333Y-81509761D01*
X178355714Y-81462142D01*
X179212857Y-80557380D02*
X179546190Y-81557380D01*
X179879523Y-80557380D01*
X158203095Y-103572380D02*
X158203095Y-102905714D01*
X158203095Y-102572380D02*
X158155476Y-102620000D01*
X158203095Y-102667619D01*
X158250714Y-102620000D01*
X158203095Y-102572380D01*
X158203095Y-102667619D01*
X159250714Y-103477142D02*
X159203095Y-103524761D01*
X159060238Y-103572380D01*
X158965000Y-103572380D01*
X158822142Y-103524761D01*
X158726904Y-103429523D01*
X158679285Y-103334285D01*
X158631666Y-103143809D01*
X158631666Y-103000952D01*
X158679285Y-102810476D01*
X158726904Y-102715238D01*
X158822142Y-102620000D01*
X158965000Y-102572380D01*
X159060238Y-102572380D01*
X159203095Y-102620000D01*
X159250714Y-102667619D01*
X159679285Y-103048571D02*
X160012619Y-103048571D01*
X160155476Y-103572380D02*
X159679285Y-103572380D01*
X159679285Y-102572380D01*
X160155476Y-102572380D01*
X161012619Y-102905714D02*
X161012619Y-103572380D01*
X160774523Y-102524761D02*
X160536428Y-103239047D01*
X161155476Y-103239047D01*
X161726904Y-102572380D02*
X161822142Y-102572380D01*
X161917380Y-102620000D01*
X161965000Y-102667619D01*
X162012619Y-102762857D01*
X162060238Y-102953333D01*
X162060238Y-103191428D01*
X162012619Y-103381904D01*
X161965000Y-103477142D01*
X161917380Y-103524761D01*
X161822142Y-103572380D01*
X161726904Y-103572380D01*
X161631666Y-103524761D01*
X161584047Y-103477142D01*
X161536428Y-103381904D01*
X161488809Y-103191428D01*
X161488809Y-102953333D01*
X161536428Y-102762857D01*
X161584047Y-102667619D01*
X161631666Y-102620000D01*
X161726904Y-102572380D01*
X162488809Y-103572380D02*
X162488809Y-102572380D01*
X162488809Y-103048571D02*
X163060238Y-103048571D01*
X163060238Y-103572380D02*
X163060238Y-102572380D01*
X163441190Y-102572380D02*
X164107857Y-103572380D01*
X164107857Y-102572380D02*
X163441190Y-103572380D01*
X164631666Y-103000952D02*
X164536428Y-102953333D01*
X164488809Y-102905714D01*
X164441190Y-102810476D01*
X164441190Y-102762857D01*
X164488809Y-102667619D01*
X164536428Y-102620000D01*
X164631666Y-102572380D01*
X164822142Y-102572380D01*
X164917380Y-102620000D01*
X164965000Y-102667619D01*
X165012619Y-102762857D01*
X165012619Y-102810476D01*
X164965000Y-102905714D01*
X164917380Y-102953333D01*
X164822142Y-103000952D01*
X164631666Y-103000952D01*
X164536428Y-103048571D01*
X164488809Y-103096190D01*
X164441190Y-103191428D01*
X164441190Y-103381904D01*
X164488809Y-103477142D01*
X164536428Y-103524761D01*
X164631666Y-103572380D01*
X164822142Y-103572380D01*
X164917380Y-103524761D01*
X164965000Y-103477142D01*
X165012619Y-103381904D01*
X165012619Y-103191428D01*
X164965000Y-103096190D01*
X164917380Y-103048571D01*
X164822142Y-103000952D01*
X165441190Y-103572380D02*
X165441190Y-102572380D01*
X166012619Y-103572380D02*
X165584047Y-103000952D01*
X166012619Y-102572380D02*
X165441190Y-103143809D01*
X166441190Y-103191428D02*
X167203095Y-103191428D01*
X167679285Y-103048571D02*
X168012619Y-103048571D01*
X168155476Y-103572380D02*
X167679285Y-103572380D01*
X167679285Y-102572380D01*
X168155476Y-102572380D01*
X168441190Y-102572380D02*
X168774523Y-103572380D01*
X169107857Y-102572380D01*
X169774523Y-103048571D02*
X169917380Y-103096190D01*
X169965000Y-103143809D01*
X170012619Y-103239047D01*
X170012619Y-103381904D01*
X169965000Y-103477142D01*
X169917380Y-103524761D01*
X169822142Y-103572380D01*
X169441190Y-103572380D01*
X169441190Y-102572380D01*
X169774523Y-102572380D01*
X169869761Y-102620000D01*
X169917380Y-102667619D01*
X169965000Y-102762857D01*
X169965000Y-102858095D01*
X169917380Y-102953333D01*
X169869761Y-103000952D01*
X169774523Y-103048571D01*
X169441190Y-103048571D01*
X157607857Y-104658571D02*
X157941190Y-104658571D01*
X158084047Y-105182380D02*
X157607857Y-105182380D01*
X157607857Y-104182380D01*
X158084047Y-104182380D01*
X158417380Y-104182380D02*
X159084047Y-105182380D01*
X159084047Y-104182380D02*
X158417380Y-105182380D01*
X159322142Y-104182380D02*
X159893571Y-104182380D01*
X159607857Y-105182380D02*
X159607857Y-104182380D01*
X160179285Y-104277619D02*
X160226904Y-104230000D01*
X160322142Y-104182380D01*
X160560238Y-104182380D01*
X160655476Y-104230000D01*
X160703095Y-104277619D01*
X160750714Y-104372857D01*
X160750714Y-104468095D01*
X160703095Y-104610952D01*
X160131666Y-105182380D01*
X160750714Y-105182380D01*
X161179285Y-105182380D02*
X161179285Y-104182380D01*
X161560238Y-104182380D01*
X161655476Y-104230000D01*
X161703095Y-104277619D01*
X161750714Y-104372857D01*
X161750714Y-104515714D01*
X161703095Y-104610952D01*
X161655476Y-104658571D01*
X161560238Y-104706190D01*
X161179285Y-104706190D01*
X162179285Y-105182380D02*
X162179285Y-104182380D01*
X162512619Y-104896666D01*
X162845952Y-104182380D01*
X162845952Y-105182380D01*
X163512619Y-104182380D02*
X163703095Y-104182380D01*
X163798333Y-104230000D01*
X163893571Y-104325238D01*
X163941190Y-104515714D01*
X163941190Y-104849047D01*
X163893571Y-105039523D01*
X163798333Y-105134761D01*
X163703095Y-105182380D01*
X163512619Y-105182380D01*
X163417380Y-105134761D01*
X163322142Y-105039523D01*
X163274523Y-104849047D01*
X163274523Y-104515714D01*
X163322142Y-104325238D01*
X163417380Y-104230000D01*
X163512619Y-104182380D01*
X164369761Y-105182380D02*
X164369761Y-104182380D01*
X164607857Y-104182380D01*
X164750714Y-104230000D01*
X164845952Y-104325238D01*
X164893571Y-104420476D01*
X164941190Y-104610952D01*
X164941190Y-104753809D01*
X164893571Y-104944285D01*
X164845952Y-105039523D01*
X164750714Y-105134761D01*
X164607857Y-105182380D01*
X164369761Y-105182380D01*
X166560238Y-105182380D02*
X166560238Y-104658571D01*
X166512619Y-104563333D01*
X166417380Y-104515714D01*
X166226904Y-104515714D01*
X166131666Y-104563333D01*
X166560238Y-105134761D02*
X166465000Y-105182380D01*
X166226904Y-105182380D01*
X166131666Y-105134761D01*
X166084047Y-105039523D01*
X166084047Y-104944285D01*
X166131666Y-104849047D01*
X166226904Y-104801428D01*
X166465000Y-104801428D01*
X166560238Y-104753809D01*
X167465000Y-105182380D02*
X167465000Y-104182380D01*
X167465000Y-105134761D02*
X167369761Y-105182380D01*
X167179285Y-105182380D01*
X167084047Y-105134761D01*
X167036428Y-105087142D01*
X166988809Y-104991904D01*
X166988809Y-104706190D01*
X167036428Y-104610952D01*
X167084047Y-104563333D01*
X167179285Y-104515714D01*
X167369761Y-104515714D01*
X167465000Y-104563333D01*
X168369761Y-105182380D02*
X168369761Y-104658571D01*
X168322142Y-104563333D01*
X168226904Y-104515714D01*
X168036428Y-104515714D01*
X167941190Y-104563333D01*
X168369761Y-105134761D02*
X168274523Y-105182380D01*
X168036428Y-105182380D01*
X167941190Y-105134761D01*
X167893571Y-105039523D01*
X167893571Y-104944285D01*
X167941190Y-104849047D01*
X168036428Y-104801428D01*
X168274523Y-104801428D01*
X168369761Y-104753809D01*
X168845952Y-104515714D02*
X168845952Y-105515714D01*
X168845952Y-104563333D02*
X168941190Y-104515714D01*
X169131666Y-104515714D01*
X169226904Y-104563333D01*
X169274523Y-104610952D01*
X169322142Y-104706190D01*
X169322142Y-104991904D01*
X169274523Y-105087142D01*
X169226904Y-105134761D01*
X169131666Y-105182380D01*
X168941190Y-105182380D01*
X168845952Y-105134761D01*
X169607857Y-104515714D02*
X169988809Y-104515714D01*
X169750714Y-104182380D02*
X169750714Y-105039523D01*
X169798333Y-105134761D01*
X169893571Y-105182380D01*
X169988809Y-105182380D01*
X170703095Y-105134761D02*
X170607857Y-105182380D01*
X170417380Y-105182380D01*
X170322142Y-105134761D01*
X170274523Y-105039523D01*
X170274523Y-104658571D01*
X170322142Y-104563333D01*
X170417380Y-104515714D01*
X170607857Y-104515714D01*
X170703095Y-104563333D01*
X170750714Y-104658571D01*
X170750714Y-104753809D01*
X170274523Y-104849047D01*
X171179285Y-105182380D02*
X171179285Y-104515714D01*
X171179285Y-104706190D02*
X171226904Y-104610952D01*
X171274523Y-104563333D01*
X171369761Y-104515714D01*
X171465000Y-104515714D01*
X157369761Y-105887619D02*
X157417380Y-105840000D01*
X157512619Y-105792380D01*
X157750714Y-105792380D01*
X157845952Y-105840000D01*
X157893571Y-105887619D01*
X157941190Y-105982857D01*
X157941190Y-106078095D01*
X157893571Y-106220952D01*
X157322142Y-106792380D01*
X157941190Y-106792380D01*
X158560238Y-105792380D02*
X158655476Y-105792380D01*
X158750714Y-105840000D01*
X158798333Y-105887619D01*
X158845952Y-105982857D01*
X158893571Y-106173333D01*
X158893571Y-106411428D01*
X158845952Y-106601904D01*
X158798333Y-106697142D01*
X158750714Y-106744761D01*
X158655476Y-106792380D01*
X158560238Y-106792380D01*
X158465000Y-106744761D01*
X158417380Y-106697142D01*
X158369761Y-106601904D01*
X158322142Y-106411428D01*
X158322142Y-106173333D01*
X158369761Y-105982857D01*
X158417380Y-105887619D01*
X158465000Y-105840000D01*
X158560238Y-105792380D01*
X159274523Y-105887619D02*
X159322142Y-105840000D01*
X159417380Y-105792380D01*
X159655476Y-105792380D01*
X159750714Y-105840000D01*
X159798333Y-105887619D01*
X159845952Y-105982857D01*
X159845952Y-106078095D01*
X159798333Y-106220952D01*
X159226904Y-106792380D01*
X159845952Y-106792380D01*
X160226904Y-105887619D02*
X160274523Y-105840000D01*
X160369761Y-105792380D01*
X160607857Y-105792380D01*
X160703095Y-105840000D01*
X160750714Y-105887619D01*
X160798333Y-105982857D01*
X160798333Y-106078095D01*
X160750714Y-106220952D01*
X160179285Y-106792380D01*
X160798333Y-106792380D01*
X161226904Y-106411428D02*
X161988809Y-106411428D01*
X162988809Y-106792380D02*
X162417380Y-106792380D01*
X162703095Y-106792380D02*
X162703095Y-105792380D01*
X162607857Y-105935238D01*
X162512619Y-106030476D01*
X162417380Y-106078095D01*
X163369761Y-105887619D02*
X163417380Y-105840000D01*
X163512619Y-105792380D01*
X163750714Y-105792380D01*
X163845952Y-105840000D01*
X163893571Y-105887619D01*
X163941190Y-105982857D01*
X163941190Y-106078095D01*
X163893571Y-106220952D01*
X163322142Y-106792380D01*
X163941190Y-106792380D01*
X164369761Y-106411428D02*
X165131666Y-106411428D01*
X165560238Y-105887619D02*
X165607857Y-105840000D01*
X165703095Y-105792380D01*
X165941190Y-105792380D01*
X166036428Y-105840000D01*
X166084047Y-105887619D01*
X166131666Y-105982857D01*
X166131666Y-106078095D01*
X166084047Y-106220952D01*
X165512619Y-106792380D01*
X166131666Y-106792380D01*
X166750714Y-105792380D02*
X166845952Y-105792380D01*
X166941190Y-105840000D01*
X166988809Y-105887619D01*
X167036428Y-105982857D01*
X167084047Y-106173333D01*
X167084047Y-106411428D01*
X167036428Y-106601904D01*
X166988809Y-106697142D01*
X166941190Y-106744761D01*
X166845952Y-106792380D01*
X166750714Y-106792380D01*
X166655476Y-106744761D01*
X166607857Y-106697142D01*
X166560238Y-106601904D01*
X166512619Y-106411428D01*
X166512619Y-106173333D01*
X166560238Y-105982857D01*
X166607857Y-105887619D01*
X166655476Y-105840000D01*
X166750714Y-105792380D01*
X167560238Y-106744761D02*
X167560238Y-106792380D01*
X167512619Y-106887619D01*
X167465000Y-106935238D01*
X168607857Y-105792380D02*
X168941190Y-106792380D01*
X169274523Y-105792380D01*
X170131666Y-106792380D02*
X169560238Y-106792380D01*
X169845952Y-106792380D02*
X169845952Y-105792380D01*
X169750714Y-105935238D01*
X169655476Y-106030476D01*
X169560238Y-106078095D01*
X170560238Y-106697142D02*
X170607857Y-106744761D01*
X170560238Y-106792380D01*
X170512619Y-106744761D01*
X170560238Y-106697142D01*
X170560238Y-106792380D01*
X171226904Y-105792380D02*
X171322142Y-105792380D01*
X171417380Y-105840000D01*
X171464999Y-105887619D01*
X171512619Y-105982857D01*
X171560238Y-106173333D01*
X171560238Y-106411428D01*
X171512619Y-106601904D01*
X171464999Y-106697142D01*
X171417380Y-106744761D01*
X171322142Y-106792380D01*
X171226904Y-106792380D01*
X171131666Y-106744761D01*
X171084047Y-106697142D01*
X171036428Y-106601904D01*
X170988809Y-106411428D01*
X170988809Y-106173333D01*
X171036428Y-105982857D01*
X171084047Y-105887619D01*
X171131666Y-105840000D01*
X171226904Y-105792380D01*
X153988809Y-108116666D02*
X154465000Y-108116666D01*
X153893571Y-108402380D02*
X154226904Y-107402380D01*
X154560238Y-108402380D01*
X154893571Y-107735714D02*
X154893571Y-108735714D01*
X154893571Y-107783333D02*
X154988809Y-107735714D01*
X155179285Y-107735714D01*
X155274523Y-107783333D01*
X155322142Y-107830952D01*
X155369761Y-107926190D01*
X155369761Y-108211904D01*
X155322142Y-108307142D01*
X155274523Y-108354761D01*
X155179285Y-108402380D01*
X154988809Y-108402380D01*
X154893571Y-108354761D01*
X156226904Y-108402380D02*
X156226904Y-107878571D01*
X156179285Y-107783333D01*
X156084047Y-107735714D01*
X155893571Y-107735714D01*
X155798333Y-107783333D01*
X156226904Y-108354761D02*
X156131666Y-108402380D01*
X155893571Y-108402380D01*
X155798333Y-108354761D01*
X155750714Y-108259523D01*
X155750714Y-108164285D01*
X155798333Y-108069047D01*
X155893571Y-108021428D01*
X156131666Y-108021428D01*
X156226904Y-107973809D01*
X157131666Y-108354761D02*
X157036428Y-108402380D01*
X156845952Y-108402380D01*
X156750714Y-108354761D01*
X156703095Y-108307142D01*
X156655476Y-108211904D01*
X156655476Y-107926190D01*
X156703095Y-107830952D01*
X156750714Y-107783333D01*
X156845952Y-107735714D01*
X157036428Y-107735714D01*
X157131666Y-107783333D01*
X157560238Y-108402380D02*
X157560238Y-107402380D01*
X157988809Y-108402380D02*
X157988809Y-107878571D01*
X157941190Y-107783333D01*
X157845952Y-107735714D01*
X157703095Y-107735714D01*
X157607857Y-107783333D01*
X157560238Y-107830952D01*
X158845952Y-108354761D02*
X158750714Y-108402380D01*
X158560238Y-108402380D01*
X158465000Y-108354761D01*
X158417380Y-108259523D01*
X158417380Y-107878571D01*
X158465000Y-107783333D01*
X158560238Y-107735714D01*
X158750714Y-107735714D01*
X158845952Y-107783333D01*
X158893571Y-107878571D01*
X158893571Y-107973809D01*
X158417380Y-108069047D01*
X160560238Y-108402380D02*
X160084047Y-108402380D01*
X160084047Y-107402380D01*
X160893571Y-108402380D02*
X160893571Y-107735714D01*
X160893571Y-107402380D02*
X160845952Y-107450000D01*
X160893571Y-107497619D01*
X160941190Y-107450000D01*
X160893571Y-107402380D01*
X160893571Y-107497619D01*
X161798333Y-108354761D02*
X161703095Y-108402380D01*
X161512619Y-108402380D01*
X161417380Y-108354761D01*
X161369761Y-108307142D01*
X161322142Y-108211904D01*
X161322142Y-107926190D01*
X161369761Y-107830952D01*
X161417380Y-107783333D01*
X161512619Y-107735714D01*
X161703095Y-107735714D01*
X161798333Y-107783333D01*
X162607857Y-108354761D02*
X162512619Y-108402380D01*
X162322142Y-108402380D01*
X162226904Y-108354761D01*
X162179285Y-108259523D01*
X162179285Y-107878571D01*
X162226904Y-107783333D01*
X162322142Y-107735714D01*
X162512619Y-107735714D01*
X162607857Y-107783333D01*
X162655476Y-107878571D01*
X162655476Y-107973809D01*
X162179285Y-108069047D01*
X163084047Y-107735714D02*
X163084047Y-108402380D01*
X163084047Y-107830952D02*
X163131666Y-107783333D01*
X163226904Y-107735714D01*
X163369761Y-107735714D01*
X163465000Y-107783333D01*
X163512619Y-107878571D01*
X163512619Y-108402380D01*
X163941190Y-108354761D02*
X164036428Y-108402380D01*
X164226904Y-108402380D01*
X164322142Y-108354761D01*
X164369761Y-108259523D01*
X164369761Y-108211904D01*
X164322142Y-108116666D01*
X164226904Y-108069047D01*
X164084047Y-108069047D01*
X163988809Y-108021428D01*
X163941190Y-107926190D01*
X163941190Y-107878571D01*
X163988809Y-107783333D01*
X164084047Y-107735714D01*
X164226904Y-107735714D01*
X164322142Y-107783333D01*
X165179285Y-108354761D02*
X165084047Y-108402380D01*
X164893571Y-108402380D01*
X164798333Y-108354761D01*
X164750714Y-108259523D01*
X164750714Y-107878571D01*
X164798333Y-107783333D01*
X164893571Y-107735714D01*
X165084047Y-107735714D01*
X165179285Y-107783333D01*
X165226904Y-107878571D01*
X165226904Y-107973809D01*
X164750714Y-108069047D01*
X165703095Y-108354761D02*
X165703095Y-108402380D01*
X165655476Y-108497619D01*
X165607857Y-108545238D01*
X166798333Y-107735714D02*
X167036428Y-108402380D01*
X167274523Y-107735714D01*
X168036428Y-108354761D02*
X167941190Y-108402380D01*
X167750714Y-108402380D01*
X167655476Y-108354761D01*
X167607857Y-108259523D01*
X167607857Y-107878571D01*
X167655476Y-107783333D01*
X167750714Y-107735714D01*
X167941190Y-107735714D01*
X168036428Y-107783333D01*
X168084047Y-107878571D01*
X168084047Y-107973809D01*
X167607857Y-108069047D01*
X168512619Y-108402380D02*
X168512619Y-107735714D01*
X168512619Y-107926190D02*
X168560238Y-107830952D01*
X168607857Y-107783333D01*
X168703095Y-107735714D01*
X168798333Y-107735714D01*
X169084047Y-108354761D02*
X169179285Y-108402380D01*
X169369761Y-108402380D01*
X169465000Y-108354761D01*
X169512619Y-108259523D01*
X169512619Y-108211904D01*
X169465000Y-108116666D01*
X169369761Y-108069047D01*
X169226904Y-108069047D01*
X169131666Y-108021428D01*
X169084047Y-107926190D01*
X169084047Y-107878571D01*
X169131666Y-107783333D01*
X169226904Y-107735714D01*
X169369761Y-107735714D01*
X169465000Y-107783333D01*
X169941190Y-108402380D02*
X169941190Y-107735714D01*
X169941190Y-107402380D02*
X169893571Y-107450000D01*
X169941190Y-107497619D01*
X169988809Y-107450000D01*
X169941190Y-107402380D01*
X169941190Y-107497619D01*
X170560238Y-108402380D02*
X170465000Y-108354761D01*
X170417380Y-108307142D01*
X170369761Y-108211904D01*
X170369761Y-107926190D01*
X170417380Y-107830952D01*
X170465000Y-107783333D01*
X170560238Y-107735714D01*
X170703095Y-107735714D01*
X170798333Y-107783333D01*
X170845952Y-107830952D01*
X170893571Y-107926190D01*
X170893571Y-108211904D01*
X170845952Y-108307142D01*
X170798333Y-108354761D01*
X170703095Y-108402380D01*
X170560238Y-108402380D01*
X171322142Y-107735714D02*
X171322142Y-108402380D01*
X171322142Y-107830952D02*
X171369761Y-107783333D01*
X171465000Y-107735714D01*
X171607857Y-107735714D01*
X171703095Y-107783333D01*
X171750714Y-107878571D01*
X171750714Y-108402380D01*
X172941190Y-107497619D02*
X172988809Y-107450000D01*
X173084047Y-107402380D01*
X173322142Y-107402380D01*
X173417380Y-107450000D01*
X173465000Y-107497619D01*
X173512619Y-107592857D01*
X173512619Y-107688095D01*
X173465000Y-107830952D01*
X172893571Y-108402380D01*
X173512619Y-108402380D01*
X173941190Y-108307142D02*
X173988809Y-108354761D01*
X173941190Y-108402380D01*
X173893571Y-108354761D01*
X173941190Y-108307142D01*
X173941190Y-108402380D01*
X174607857Y-107402380D02*
X174703095Y-107402380D01*
X174798333Y-107450000D01*
X174845952Y-107497619D01*
X174893571Y-107592857D01*
X174941190Y-107783333D01*
X174941190Y-108021428D01*
X174893571Y-108211904D01*
X174845952Y-108307142D01*
X174798333Y-108354761D01*
X174703095Y-108402380D01*
X174607857Y-108402380D01*
X174512619Y-108354761D01*
X174465000Y-108307142D01*
X174417380Y-108211904D01*
X174369761Y-108021428D01*
X174369761Y-107783333D01*
X174417380Y-107592857D01*
X174465000Y-107497619D01*
X174512619Y-107450000D01*
X174607857Y-107402380D01*
X157417380Y-110012380D02*
X157417380Y-109012380D01*
X157845952Y-110012380D02*
X157845952Y-109488571D01*
X157798333Y-109393333D01*
X157703095Y-109345714D01*
X157560238Y-109345714D01*
X157465000Y-109393333D01*
X157417380Y-109440952D01*
X158179285Y-109345714D02*
X158560238Y-109345714D01*
X158322142Y-109012380D02*
X158322142Y-109869523D01*
X158369761Y-109964761D01*
X158465000Y-110012380D01*
X158560238Y-110012380D01*
X158750714Y-109345714D02*
X159131666Y-109345714D01*
X158893571Y-109012380D02*
X158893571Y-109869523D01*
X158941190Y-109964761D01*
X159036428Y-110012380D01*
X159131666Y-110012380D01*
X159465000Y-109345714D02*
X159465000Y-110345714D01*
X159465000Y-109393333D02*
X159560238Y-109345714D01*
X159750714Y-109345714D01*
X159845952Y-109393333D01*
X159893571Y-109440952D01*
X159941190Y-109536190D01*
X159941190Y-109821904D01*
X159893571Y-109917142D01*
X159845952Y-109964761D01*
X159750714Y-110012380D01*
X159560238Y-110012380D01*
X159465000Y-109964761D01*
X160322142Y-109964761D02*
X160417380Y-110012380D01*
X160607857Y-110012380D01*
X160703095Y-109964761D01*
X160750714Y-109869523D01*
X160750714Y-109821904D01*
X160703095Y-109726666D01*
X160607857Y-109679047D01*
X160465000Y-109679047D01*
X160369761Y-109631428D01*
X160322142Y-109536190D01*
X160322142Y-109488571D01*
X160369761Y-109393333D01*
X160465000Y-109345714D01*
X160607857Y-109345714D01*
X160703095Y-109393333D01*
X161179285Y-109917142D02*
X161226904Y-109964761D01*
X161179285Y-110012380D01*
X161131666Y-109964761D01*
X161179285Y-109917142D01*
X161179285Y-110012380D01*
X161179285Y-109393333D02*
X161226904Y-109440952D01*
X161179285Y-109488571D01*
X161131666Y-109440952D01*
X161179285Y-109393333D01*
X161179285Y-109488571D01*
X162369761Y-108964761D02*
X161512619Y-110250476D01*
X163417380Y-108964761D02*
X162560238Y-110250476D01*
X164179285Y-109345714D02*
X164179285Y-110155238D01*
X164131666Y-110250476D01*
X164084047Y-110298095D01*
X163988809Y-110345714D01*
X163845952Y-110345714D01*
X163750714Y-110298095D01*
X164179285Y-109964761D02*
X164084047Y-110012380D01*
X163893571Y-110012380D01*
X163798333Y-109964761D01*
X163750714Y-109917142D01*
X163703095Y-109821904D01*
X163703095Y-109536190D01*
X163750714Y-109440952D01*
X163798333Y-109393333D01*
X163893571Y-109345714D01*
X164084047Y-109345714D01*
X164179285Y-109393333D01*
X164655476Y-110012380D02*
X164655476Y-109345714D01*
X164655476Y-109012380D02*
X164607857Y-109060000D01*
X164655476Y-109107619D01*
X164703095Y-109060000D01*
X164655476Y-109012380D01*
X164655476Y-109107619D01*
X164988809Y-109345714D02*
X165369761Y-109345714D01*
X165131666Y-109012380D02*
X165131666Y-109869523D01*
X165179285Y-109964761D01*
X165274523Y-110012380D01*
X165369761Y-110012380D01*
X165703095Y-110012380D02*
X165703095Y-109012380D01*
X166131666Y-110012380D02*
X166131666Y-109488571D01*
X166084047Y-109393333D01*
X165988809Y-109345714D01*
X165845952Y-109345714D01*
X165750714Y-109393333D01*
X165703095Y-109440952D01*
X167036428Y-109345714D02*
X167036428Y-110012380D01*
X166607857Y-109345714D02*
X166607857Y-109869523D01*
X166655476Y-109964761D01*
X166750714Y-110012380D01*
X166893571Y-110012380D01*
X166988809Y-109964761D01*
X167036428Y-109917142D01*
X167512619Y-110012380D02*
X167512619Y-109012380D01*
X167512619Y-109393333D02*
X167607857Y-109345714D01*
X167798333Y-109345714D01*
X167893571Y-109393333D01*
X167941190Y-109440952D01*
X167988809Y-109536190D01*
X167988809Y-109821904D01*
X167941190Y-109917142D01*
X167893571Y-109964761D01*
X167798333Y-110012380D01*
X167607857Y-110012380D01*
X167512619Y-109964761D01*
X168417380Y-109917142D02*
X168465000Y-109964761D01*
X168417380Y-110012380D01*
X168369761Y-109964761D01*
X168417380Y-109917142D01*
X168417380Y-110012380D01*
X169322142Y-109964761D02*
X169226904Y-110012380D01*
X169036428Y-110012380D01*
X168941190Y-109964761D01*
X168893571Y-109917142D01*
X168845952Y-109821904D01*
X168845952Y-109536190D01*
X168893571Y-109440952D01*
X168941190Y-109393333D01*
X169036428Y-109345714D01*
X169226904Y-109345714D01*
X169322142Y-109393333D01*
X169893571Y-110012380D02*
X169798333Y-109964761D01*
X169750714Y-109917142D01*
X169703095Y-109821904D01*
X169703095Y-109536190D01*
X169750714Y-109440952D01*
X169798333Y-109393333D01*
X169893571Y-109345714D01*
X170036428Y-109345714D01*
X170131666Y-109393333D01*
X170179285Y-109440952D01*
X170226904Y-109536190D01*
X170226904Y-109821904D01*
X170179285Y-109917142D01*
X170131666Y-109964761D01*
X170036428Y-110012380D01*
X169893571Y-110012380D01*
X170655476Y-110012380D02*
X170655476Y-109345714D01*
X170655476Y-109440952D02*
X170703095Y-109393333D01*
X170798333Y-109345714D01*
X170941190Y-109345714D01*
X171036428Y-109393333D01*
X171084047Y-109488571D01*
X171084047Y-110012380D01*
X171084047Y-109488571D02*
X171131666Y-109393333D01*
X171226904Y-109345714D01*
X171369761Y-109345714D01*
X171465000Y-109393333D01*
X171512619Y-109488571D01*
X171512619Y-110012380D01*
X159560238Y-110574761D02*
X158703095Y-111860476D01*
X160322142Y-111622380D02*
X160322142Y-111098571D01*
X160274523Y-111003333D01*
X160179285Y-110955714D01*
X159988809Y-110955714D01*
X159893571Y-111003333D01*
X160322142Y-111574761D02*
X160226904Y-111622380D01*
X159988809Y-111622380D01*
X159893571Y-111574761D01*
X159845952Y-111479523D01*
X159845952Y-111384285D01*
X159893571Y-111289047D01*
X159988809Y-111241428D01*
X160226904Y-111241428D01*
X160322142Y-111193809D01*
X160655476Y-110955714D02*
X161036428Y-110955714D01*
X160798333Y-110622380D02*
X160798333Y-111479523D01*
X160845952Y-111574761D01*
X160941190Y-111622380D01*
X161036428Y-111622380D01*
X161512619Y-111622380D02*
X161417380Y-111574761D01*
X161369761Y-111527142D01*
X161322142Y-111431904D01*
X161322142Y-111146190D01*
X161369761Y-111050952D01*
X161417380Y-111003333D01*
X161512619Y-110955714D01*
X161655476Y-110955714D01*
X161750714Y-111003333D01*
X161798333Y-111050952D01*
X161845952Y-111146190D01*
X161845952Y-111431904D01*
X161798333Y-111527142D01*
X161750714Y-111574761D01*
X161655476Y-111622380D01*
X161512619Y-111622380D01*
X162417380Y-111622380D02*
X162322142Y-111574761D01*
X162274523Y-111527142D01*
X162226904Y-111431904D01*
X162226904Y-111146190D01*
X162274523Y-111050952D01*
X162322142Y-111003333D01*
X162417380Y-110955714D01*
X162560238Y-110955714D01*
X162655476Y-111003333D01*
X162703095Y-111050952D01*
X162750714Y-111146190D01*
X162750714Y-111431904D01*
X162703095Y-111527142D01*
X162655476Y-111574761D01*
X162560238Y-111622380D01*
X162417380Y-111622380D01*
X163179285Y-111622380D02*
X163179285Y-110955714D01*
X163179285Y-111050952D02*
X163226904Y-111003333D01*
X163322142Y-110955714D01*
X163465000Y-110955714D01*
X163560238Y-111003333D01*
X163607857Y-111098571D01*
X163607857Y-111622380D01*
X163607857Y-111098571D02*
X163655476Y-111003333D01*
X163750714Y-110955714D01*
X163893571Y-110955714D01*
X163988809Y-111003333D01*
X164036428Y-111098571D01*
X164036428Y-111622380D01*
X164512619Y-110955714D02*
X164512619Y-111622380D01*
X164512619Y-111050952D02*
X164560238Y-111003333D01*
X164655476Y-110955714D01*
X164798333Y-110955714D01*
X164893571Y-111003333D01*
X164941190Y-111098571D01*
X164941190Y-111622380D01*
X165798333Y-111574761D02*
X165703095Y-111622380D01*
X165512619Y-111622380D01*
X165417380Y-111574761D01*
X165369761Y-111479523D01*
X165369761Y-111098571D01*
X165417380Y-111003333D01*
X165512619Y-110955714D01*
X165703095Y-110955714D01*
X165798333Y-111003333D01*
X165845952Y-111098571D01*
X165845952Y-111193809D01*
X165369761Y-111289047D01*
X166131666Y-110955714D02*
X166512619Y-110955714D01*
X166274523Y-110622380D02*
X166274523Y-111479523D01*
X166322142Y-111574761D01*
X166417380Y-111622380D01*
X166512619Y-111622380D01*
X166845952Y-111622380D02*
X166845952Y-110955714D01*
X166845952Y-111050952D02*
X166893571Y-111003333D01*
X166988809Y-110955714D01*
X167131666Y-110955714D01*
X167226904Y-111003333D01*
X167274523Y-111098571D01*
X167274523Y-111622380D01*
X167274523Y-111098571D02*
X167322142Y-111003333D01*
X167417380Y-110955714D01*
X167560238Y-110955714D01*
X167655476Y-111003333D01*
X167703095Y-111098571D01*
X167703095Y-111622380D01*
X168607857Y-111622380D02*
X168607857Y-111098571D01*
X168560238Y-111003333D01*
X168465000Y-110955714D01*
X168274523Y-110955714D01*
X168179285Y-111003333D01*
X168607857Y-111574761D02*
X168512619Y-111622380D01*
X168274523Y-111622380D01*
X168179285Y-111574761D01*
X168131666Y-111479523D01*
X168131666Y-111384285D01*
X168179285Y-111289047D01*
X168274523Y-111241428D01*
X168512619Y-111241428D01*
X168607857Y-111193809D01*
X169084047Y-111622380D02*
X169084047Y-110955714D01*
X169084047Y-111146190D02*
X169131666Y-111050952D01*
X169179285Y-111003333D01*
X169274523Y-110955714D01*
X169369761Y-110955714D01*
X170131666Y-111574761D02*
X170036428Y-111622380D01*
X169845952Y-111622380D01*
X169750714Y-111574761D01*
X169703095Y-111527142D01*
X169655476Y-111431904D01*
X169655476Y-111146190D01*
X169703095Y-111050952D01*
X169750714Y-111003333D01*
X169845952Y-110955714D01*
X170036428Y-110955714D01*
X170131666Y-111003333D01*
X150822142Y-112184761D02*
X149965000Y-113470476D01*
X151155476Y-113232380D02*
X151155476Y-112565714D01*
X151155476Y-112232380D02*
X151107857Y-112280000D01*
X151155476Y-112327619D01*
X151203095Y-112280000D01*
X151155476Y-112232380D01*
X151155476Y-112327619D01*
X152203095Y-113137142D02*
X152155476Y-113184761D01*
X152012619Y-113232380D01*
X151917380Y-113232380D01*
X151774523Y-113184761D01*
X151679285Y-113089523D01*
X151631666Y-112994285D01*
X151584047Y-112803809D01*
X151584047Y-112660952D01*
X151631666Y-112470476D01*
X151679285Y-112375238D01*
X151774523Y-112280000D01*
X151917380Y-112232380D01*
X152012619Y-112232380D01*
X152155476Y-112280000D01*
X152203095Y-112327619D01*
X152631666Y-112708571D02*
X152965000Y-112708571D01*
X153107857Y-113232380D02*
X152631666Y-113232380D01*
X152631666Y-112232380D01*
X153107857Y-112232380D01*
X153965000Y-112565714D02*
X153965000Y-113232380D01*
X153726904Y-112184761D02*
X153488809Y-112899047D01*
X154107857Y-112899047D01*
X154679285Y-112232380D02*
X154774523Y-112232380D01*
X154869761Y-112280000D01*
X154917380Y-112327619D01*
X154965000Y-112422857D01*
X155012619Y-112613333D01*
X155012619Y-112851428D01*
X154965000Y-113041904D01*
X154917380Y-113137142D01*
X154869761Y-113184761D01*
X154774523Y-113232380D01*
X154679285Y-113232380D01*
X154584047Y-113184761D01*
X154536428Y-113137142D01*
X154488809Y-113041904D01*
X154441190Y-112851428D01*
X154441190Y-112613333D01*
X154488809Y-112422857D01*
X154536428Y-112327619D01*
X154584047Y-112280000D01*
X154679285Y-112232380D01*
X155441190Y-113232380D02*
X155441190Y-112232380D01*
X155441190Y-112708571D02*
X156012619Y-112708571D01*
X156012619Y-113232380D02*
X156012619Y-112232380D01*
X156393571Y-112232380D02*
X157060238Y-113232380D01*
X157060238Y-112232380D02*
X156393571Y-113232380D01*
X157584047Y-112660952D02*
X157488809Y-112613333D01*
X157441190Y-112565714D01*
X157393571Y-112470476D01*
X157393571Y-112422857D01*
X157441190Y-112327619D01*
X157488809Y-112280000D01*
X157584047Y-112232380D01*
X157774523Y-112232380D01*
X157869761Y-112280000D01*
X157917380Y-112327619D01*
X157965000Y-112422857D01*
X157965000Y-112470476D01*
X157917380Y-112565714D01*
X157869761Y-112613333D01*
X157774523Y-112660952D01*
X157584047Y-112660952D01*
X157488809Y-112708571D01*
X157441190Y-112756190D01*
X157393571Y-112851428D01*
X157393571Y-113041904D01*
X157441190Y-113137142D01*
X157488809Y-113184761D01*
X157584047Y-113232380D01*
X157774523Y-113232380D01*
X157869761Y-113184761D01*
X157917380Y-113137142D01*
X157965000Y-113041904D01*
X157965000Y-112851428D01*
X157917380Y-112756190D01*
X157869761Y-112708571D01*
X157774523Y-112660952D01*
X158393571Y-113232380D02*
X158393571Y-112232380D01*
X158965000Y-113232380D02*
X158536428Y-112660952D01*
X158965000Y-112232380D02*
X158393571Y-112803809D01*
X159393571Y-112851428D02*
X160155476Y-112851428D01*
X160631666Y-112708571D02*
X160965000Y-112708571D01*
X161107857Y-113232380D02*
X160631666Y-113232380D01*
X160631666Y-112232380D01*
X161107857Y-112232380D01*
X161393571Y-112232380D02*
X161726904Y-113232380D01*
X162060238Y-112232380D01*
X162726904Y-112708571D02*
X162869761Y-112756190D01*
X162917380Y-112803809D01*
X162965000Y-112899047D01*
X162965000Y-113041904D01*
X162917380Y-113137142D01*
X162869761Y-113184761D01*
X162774523Y-113232380D01*
X162393571Y-113232380D01*
X162393571Y-112232380D01*
X162726904Y-112232380D01*
X162822142Y-112280000D01*
X162869761Y-112327619D01*
X162917380Y-112422857D01*
X162917380Y-112518095D01*
X162869761Y-112613333D01*
X162822142Y-112660952D01*
X162726904Y-112708571D01*
X162393571Y-112708571D01*
X163393571Y-112851428D02*
X164155476Y-112851428D01*
X164631666Y-112708571D02*
X164965000Y-112708571D01*
X165107857Y-113232380D02*
X164631666Y-113232380D01*
X164631666Y-112232380D01*
X165107857Y-112232380D01*
X165441190Y-112232380D02*
X166107857Y-113232380D01*
X166107857Y-112232380D02*
X165441190Y-113232380D01*
X166345952Y-112232380D02*
X166917380Y-112232380D01*
X166631666Y-113232380D02*
X166631666Y-112232380D01*
X167203095Y-112327619D02*
X167250714Y-112280000D01*
X167345952Y-112232380D01*
X167584047Y-112232380D01*
X167679285Y-112280000D01*
X167726904Y-112327619D01*
X167774523Y-112422857D01*
X167774523Y-112518095D01*
X167726904Y-112660952D01*
X167155476Y-113232380D01*
X167774523Y-113232380D01*
X168203095Y-113232380D02*
X168203095Y-112232380D01*
X168584047Y-112232380D01*
X168679285Y-112280000D01*
X168726904Y-112327619D01*
X168774523Y-112422857D01*
X168774523Y-112565714D01*
X168726904Y-112660952D01*
X168679285Y-112708571D01*
X168584047Y-112756190D01*
X168203095Y-112756190D01*
X169203095Y-113232380D02*
X169203095Y-112232380D01*
X169536428Y-112946666D01*
X169869761Y-112232380D01*
X169869761Y-113232380D01*
X170536428Y-112232380D02*
X170726904Y-112232380D01*
X170822142Y-112280000D01*
X170917380Y-112375238D01*
X170965000Y-112565714D01*
X170965000Y-112899047D01*
X170917380Y-113089523D01*
X170822142Y-113184761D01*
X170726904Y-113232380D01*
X170536428Y-113232380D01*
X170441190Y-113184761D01*
X170345952Y-113089523D01*
X170298333Y-112899047D01*
X170298333Y-112565714D01*
X170345952Y-112375238D01*
X170441190Y-112280000D01*
X170536428Y-112232380D01*
X171393571Y-113232380D02*
X171393571Y-112232380D01*
X171631666Y-112232380D01*
X171774523Y-112280000D01*
X171869761Y-112375238D01*
X171917380Y-112470476D01*
X171965000Y-112660952D01*
X171965000Y-112803809D01*
X171917380Y-112994285D01*
X171869761Y-113089523D01*
X171774523Y-113184761D01*
X171631666Y-113232380D01*
X171393571Y-113232380D01*
X172393571Y-112851428D02*
X173155476Y-112851428D01*
X174060238Y-113232380D02*
X174060238Y-112708571D01*
X174012619Y-112613333D01*
X173917380Y-112565714D01*
X173726904Y-112565714D01*
X173631666Y-112613333D01*
X174060238Y-113184761D02*
X173965000Y-113232380D01*
X173726904Y-113232380D01*
X173631666Y-113184761D01*
X173584047Y-113089523D01*
X173584047Y-112994285D01*
X173631666Y-112899047D01*
X173726904Y-112851428D01*
X173965000Y-112851428D01*
X174060238Y-112803809D01*
X174965000Y-113232380D02*
X174965000Y-112232380D01*
X174965000Y-113184761D02*
X174869761Y-113232380D01*
X174679285Y-113232380D01*
X174584047Y-113184761D01*
X174536428Y-113137142D01*
X174488809Y-113041904D01*
X174488809Y-112756190D01*
X174536428Y-112660952D01*
X174584047Y-112613333D01*
X174679285Y-112565714D01*
X174869761Y-112565714D01*
X174965000Y-112613333D01*
X175869761Y-113232380D02*
X175869761Y-112708571D01*
X175822142Y-112613333D01*
X175726904Y-112565714D01*
X175536428Y-112565714D01*
X175441190Y-112613333D01*
X175869761Y-113184761D02*
X175774523Y-113232380D01*
X175536428Y-113232380D01*
X175441190Y-113184761D01*
X175393571Y-113089523D01*
X175393571Y-112994285D01*
X175441190Y-112899047D01*
X175536428Y-112851428D01*
X175774523Y-112851428D01*
X175869761Y-112803809D01*
X176345952Y-112565714D02*
X176345952Y-113565714D01*
X176345952Y-112613333D02*
X176441190Y-112565714D01*
X176631666Y-112565714D01*
X176726904Y-112613333D01*
X176774523Y-112660952D01*
X176822142Y-112756190D01*
X176822142Y-113041904D01*
X176774523Y-113137142D01*
X176726904Y-113184761D01*
X176631666Y-113232380D01*
X176441190Y-113232380D01*
X176345952Y-113184761D01*
X177107857Y-112565714D02*
X177488809Y-112565714D01*
X177250714Y-112232380D02*
X177250714Y-113089523D01*
X177298333Y-113184761D01*
X177393571Y-113232380D01*
X177488809Y-113232380D01*
X178203095Y-113184761D02*
X178107857Y-113232380D01*
X177917380Y-113232380D01*
X177822142Y-113184761D01*
X177774523Y-113089523D01*
X177774523Y-112708571D01*
X177822142Y-112613333D01*
X177917380Y-112565714D01*
X178107857Y-112565714D01*
X178203095Y-112613333D01*
X178250714Y-112708571D01*
X178250714Y-112803809D01*
X177774523Y-112899047D01*
X178679285Y-113232380D02*
X178679285Y-112565714D01*
X178679285Y-112756190D02*
X178726904Y-112660952D01*
X178774523Y-112613333D01*
X178869761Y-112565714D01*
X178965000Y-112565714D01*
X152685714Y-100147380D02*
X152114285Y-100147380D01*
X152400000Y-100147380D02*
X152400000Y-99147380D01*
X152304761Y-99290238D01*
X152209523Y-99385476D01*
X152114285Y-99433095D01*
X193722666Y-98512380D02*
X193722666Y-99226666D01*
X193675047Y-99369523D01*
X193579809Y-99464761D01*
X193436952Y-99512380D01*
X193341714Y-99512380D01*
X194627428Y-98845714D02*
X194627428Y-99512380D01*
X194389333Y-98464761D02*
X194151238Y-99179047D01*
X194770285Y-99179047D01*
X193468666Y-75398380D02*
X193468666Y-76112666D01*
X193421047Y-76255523D01*
X193325809Y-76350761D01*
X193182952Y-76398380D01*
X193087714Y-76398380D01*
X194421047Y-75398380D02*
X193944857Y-75398380D01*
X193897238Y-75874571D01*
X193944857Y-75826952D01*
X194040095Y-75779333D01*
X194278190Y-75779333D01*
X194373428Y-75826952D01*
X194421047Y-75874571D01*
X194468666Y-75969809D01*
X194468666Y-76207904D01*
X194421047Y-76303142D01*
X194373428Y-76350761D01*
X194278190Y-76398380D01*
X194040095Y-76398380D01*
X193944857Y-76350761D01*
X193897238Y-76303142D01*
X136318666Y-75422380D02*
X136318666Y-76136666D01*
X136271047Y-76279523D01*
X136175809Y-76374761D01*
X136032952Y-76422380D01*
X135937714Y-76422380D01*
X136747238Y-75517619D02*
X136794857Y-75470000D01*
X136890095Y-75422380D01*
X137128190Y-75422380D01*
X137223428Y-75470000D01*
X137271047Y-75517619D01*
X137318666Y-75612857D01*
X137318666Y-75708095D01*
X137271047Y-75850952D01*
X136699619Y-76422380D01*
X137318666Y-76422380D01*
X135556666Y-98282380D02*
X135556666Y-98996666D01*
X135509047Y-99139523D01*
X135413809Y-99234761D01*
X135270952Y-99282380D01*
X135175714Y-99282380D01*
X135937619Y-98282380D02*
X136556666Y-98282380D01*
X136223333Y-98663333D01*
X136366190Y-98663333D01*
X136461428Y-98710952D01*
X136509047Y-98758571D01*
X136556666Y-98853809D01*
X136556666Y-99091904D01*
X136509047Y-99187142D01*
X136461428Y-99234761D01*
X136366190Y-99282380D01*
X136080476Y-99282380D01*
X135985238Y-99234761D01*
X135937619Y-99187142D01*
X163703095Y-84669380D02*
X163703095Y-85478904D01*
X163750714Y-85574142D01*
X163798333Y-85621761D01*
X163893571Y-85669380D01*
X164084047Y-85669380D01*
X164179285Y-85621761D01*
X164226904Y-85574142D01*
X164274523Y-85478904D01*
X164274523Y-84669380D01*
X165274523Y-85669380D02*
X164703095Y-85669380D01*
X164988809Y-85669380D02*
X164988809Y-84669380D01*
X164893571Y-84812238D01*
X164798333Y-84907476D01*
X164703095Y-84955095D01*
X164298333Y-93542380D02*
X163965000Y-93066190D01*
X163726904Y-93542380D02*
X163726904Y-92542380D01*
X164107857Y-92542380D01*
X164203095Y-92590000D01*
X164250714Y-92637619D01*
X164298333Y-92732857D01*
X164298333Y-92875714D01*
X164250714Y-92970952D01*
X164203095Y-93018571D01*
X164107857Y-93066190D01*
X163726904Y-93066190D01*
X164679285Y-92637619D02*
X164726904Y-92590000D01*
X164822142Y-92542380D01*
X165060238Y-92542380D01*
X165155476Y-92590000D01*
X165203095Y-92637619D01*
X165250714Y-92732857D01*
X165250714Y-92828095D01*
X165203095Y-92970952D01*
X164631666Y-93542380D01*
X165250714Y-93542380D01*
X159202380Y-77255666D02*
X158726190Y-77589000D01*
X159202380Y-77827095D02*
X158202380Y-77827095D01*
X158202380Y-77446142D01*
X158250000Y-77350904D01*
X158297619Y-77303285D01*
X158392857Y-77255666D01*
X158535714Y-77255666D01*
X158630952Y-77303285D01*
X158678571Y-77350904D01*
X158726190Y-77446142D01*
X158726190Y-77827095D01*
X159202380Y-76303285D02*
X159202380Y-76874714D01*
X159202380Y-76589000D02*
X158202380Y-76589000D01*
X158345238Y-76684238D01*
X158440476Y-76779476D01*
X158488095Y-76874714D01*
X163726904Y-89860380D02*
X163726904Y-88860380D01*
X163965000Y-88860380D01*
X164107857Y-88908000D01*
X164203095Y-89003238D01*
X164250714Y-89098476D01*
X164298333Y-89288952D01*
X164298333Y-89431809D01*
X164250714Y-89622285D01*
X164203095Y-89717523D01*
X164107857Y-89812761D01*
X163965000Y-89860380D01*
X163726904Y-89860380D01*
X164679285Y-88955619D02*
X164726904Y-88908000D01*
X164822142Y-88860380D01*
X165060238Y-88860380D01*
X165155476Y-88908000D01*
X165203095Y-88955619D01*
X165250714Y-89050857D01*
X165250714Y-89146095D01*
X165203095Y-89288952D01*
X164631666Y-89860380D01*
X165250714Y-89860380D01*
X155297142Y-77255666D02*
X155344761Y-77303285D01*
X155392380Y-77446142D01*
X155392380Y-77541380D01*
X155344761Y-77684238D01*
X155249523Y-77779476D01*
X155154285Y-77827095D01*
X154963809Y-77874714D01*
X154820952Y-77874714D01*
X154630476Y-77827095D01*
X154535238Y-77779476D01*
X154440000Y-77684238D01*
X154392380Y-77541380D01*
X154392380Y-77446142D01*
X154440000Y-77303285D01*
X154487619Y-77255666D01*
X154487619Y-76874714D02*
X154440000Y-76827095D01*
X154392380Y-76731857D01*
X154392380Y-76493761D01*
X154440000Y-76398523D01*
X154487619Y-76350904D01*
X154582857Y-76303285D01*
X154678095Y-76303285D01*
X154820952Y-76350904D01*
X155392380Y-76922333D01*
X155392380Y-76303285D01*
X170537142Y-77255666D02*
X170584761Y-77303285D01*
X170632380Y-77446142D01*
X170632380Y-77541380D01*
X170584761Y-77684238D01*
X170489523Y-77779476D01*
X170394285Y-77827095D01*
X170203809Y-77874714D01*
X170060952Y-77874714D01*
X169870476Y-77827095D01*
X169775238Y-77779476D01*
X169680000Y-77684238D01*
X169632380Y-77541380D01*
X169632380Y-77446142D01*
X169680000Y-77303285D01*
X169727619Y-77255666D01*
X170632380Y-76303285D02*
X170632380Y-76874714D01*
X170632380Y-76589000D02*
X169632380Y-76589000D01*
X169775238Y-76684238D01*
X169870476Y-76779476D01*
X169918095Y-76874714D01*
X152066666Y-92797380D02*
X152066666Y-93511666D01*
X152019047Y-93654523D01*
X151923809Y-93749761D01*
X151780952Y-93797380D01*
X151685714Y-93797380D01*
X153066666Y-93797380D02*
X152495238Y-93797380D01*
X152780952Y-93797380D02*
X152780952Y-92797380D01*
X152685714Y-92940238D01*
X152590476Y-93035476D01*
X152495238Y-93083095D01*
D11*
X158430000Y-91440000D02*
G75*
G03*
X158430000Y-91440000I-950000J0D01*
G01*
X149930000Y-79940000D02*
X149930000Y-77540000D01*
X152330000Y-79940000D02*
X149930000Y-79940000D01*
X152330000Y-77540000D02*
X152330000Y-79940000D01*
X149930000Y-77540000D02*
X152330000Y-77540000D01*
X177870000Y-79940000D02*
X177870000Y-77540000D01*
X180270000Y-79940000D02*
X177870000Y-79940000D01*
X180270000Y-77540000D02*
X180270000Y-79940000D01*
X177870000Y-77540000D02*
X180270000Y-77540000D01*
X189413800Y-106336200D02*
X189003800Y-106336200D01*
X198043800Y-113046200D02*
X189413800Y-113046200D01*
X186910000Y-104500000D02*
X186470000Y-104500000D01*
X189413800Y-111416200D02*
X189003800Y-111416200D01*
X186910000Y-113940000D02*
X186530000Y-113940000D01*
X198043800Y-107966200D02*
X189413800Y-107966200D01*
X189413800Y-114676200D02*
X189003800Y-114676200D01*
X189413800Y-115646200D02*
X189413800Y-100286200D01*
X186910000Y-114660000D02*
X186530000Y-114660000D01*
X189413800Y-103796200D02*
X189003800Y-103796200D01*
X186910000Y-109580000D02*
X186470000Y-109580000D01*
X186910000Y-101240000D02*
X186470000Y-101240000D01*
X189413800Y-112136200D02*
X189003800Y-112136200D01*
X198043800Y-115646200D02*
X198043800Y-100286200D01*
X198043800Y-115646200D02*
X189413800Y-115646200D01*
X189413800Y-108876200D02*
X189003800Y-108876200D01*
X186910000Y-112120000D02*
X186470000Y-112120000D01*
X186910000Y-108860000D02*
X186470000Y-108860000D01*
X198043800Y-100286200D02*
X189413800Y-100286200D01*
X186910000Y-106320000D02*
X186470000Y-106320000D01*
X189413800Y-101256200D02*
X189003800Y-101256200D01*
X184310000Y-101440000D02*
X184310000Y-100330000D01*
X189413800Y-109596200D02*
X189003800Y-109596200D01*
X186910000Y-103780000D02*
X186470000Y-103780000D01*
X186910000Y-107040000D02*
X186470000Y-107040000D01*
X198043800Y-105426200D02*
X189413800Y-105426200D01*
X189413800Y-107056200D02*
X189003800Y-107056200D01*
X198043800Y-102886200D02*
X189413800Y-102886200D01*
X184310000Y-100330000D02*
X185640000Y-100330000D01*
X189413800Y-101976200D02*
X189003800Y-101976200D01*
X189413800Y-104516200D02*
X189003800Y-104516200D01*
X186910000Y-111400000D02*
X186470000Y-111400000D01*
X186910000Y-101960000D02*
X186470000Y-101960000D01*
X198043800Y-110506200D02*
X189413800Y-110506200D01*
X189413800Y-113956200D02*
X189003800Y-113956200D01*
X189413800Y-83476200D02*
X189003800Y-83476200D01*
X198043800Y-90186200D02*
X189413800Y-90186200D01*
X186910000Y-81640000D02*
X186470000Y-81640000D01*
X189413800Y-88556200D02*
X189003800Y-88556200D01*
X186910000Y-91080000D02*
X186530000Y-91080000D01*
X198043800Y-85106200D02*
X189413800Y-85106200D01*
X189413800Y-91816200D02*
X189003800Y-91816200D01*
X189413800Y-92786200D02*
X189413800Y-77426200D01*
X186910000Y-91800000D02*
X186530000Y-91800000D01*
X189413800Y-80936200D02*
X189003800Y-80936200D01*
X186910000Y-86720000D02*
X186470000Y-86720000D01*
X186910000Y-78380000D02*
X186470000Y-78380000D01*
X189413800Y-89276200D02*
X189003800Y-89276200D01*
X198043800Y-92786200D02*
X198043800Y-77426200D01*
X198043800Y-92786200D02*
X189413800Y-92786200D01*
X189413800Y-86016200D02*
X189003800Y-86016200D01*
X186910000Y-89260000D02*
X186470000Y-89260000D01*
X186910000Y-86000000D02*
X186470000Y-86000000D01*
X198043800Y-77426200D02*
X189413800Y-77426200D01*
X186910000Y-83460000D02*
X186470000Y-83460000D01*
X189413800Y-78396200D02*
X189003800Y-78396200D01*
X184310000Y-78580000D02*
X184310000Y-77470000D01*
X189413800Y-86736200D02*
X189003800Y-86736200D01*
X186910000Y-80920000D02*
X186470000Y-80920000D01*
X186910000Y-84180000D02*
X186470000Y-84180000D01*
X198043800Y-82566200D02*
X189413800Y-82566200D01*
X189413800Y-84196200D02*
X189003800Y-84196200D01*
X198043800Y-80026200D02*
X189413800Y-80026200D01*
X184310000Y-77470000D02*
X185640000Y-77470000D01*
X189413800Y-79116200D02*
X189003800Y-79116200D01*
X189413800Y-81656200D02*
X189003800Y-81656200D01*
X186910000Y-88540000D02*
X186470000Y-88540000D01*
X186910000Y-79100000D02*
X186470000Y-79100000D01*
X198043800Y-87646200D02*
X189413800Y-87646200D01*
X189413800Y-91096200D02*
X189003800Y-91096200D01*
X140786200Y-86703800D02*
X141196200Y-86703800D01*
X132156200Y-79993800D02*
X140786200Y-79993800D01*
X143290000Y-88540000D02*
X143730000Y-88540000D01*
X140786200Y-81623800D02*
X141196200Y-81623800D01*
X143290000Y-79100000D02*
X143670000Y-79100000D01*
X132156200Y-85073800D02*
X140786200Y-85073800D01*
X140786200Y-78363800D02*
X141196200Y-78363800D01*
X140786200Y-77393800D02*
X140786200Y-92753800D01*
X143290000Y-78380000D02*
X143670000Y-78380000D01*
X140786200Y-89243800D02*
X141196200Y-89243800D01*
X143290000Y-83460000D02*
X143730000Y-83460000D01*
X143290000Y-91800000D02*
X143730000Y-91800000D01*
X140786200Y-80903800D02*
X141196200Y-80903800D01*
X132156200Y-77393800D02*
X132156200Y-92753800D01*
X132156200Y-77393800D02*
X140786200Y-77393800D01*
X140786200Y-84163800D02*
X141196200Y-84163800D01*
X143290000Y-80920000D02*
X143730000Y-80920000D01*
X143290000Y-84180000D02*
X143730000Y-84180000D01*
X132156200Y-92753800D02*
X140786200Y-92753800D01*
X143290000Y-86720000D02*
X143730000Y-86720000D01*
X140786200Y-91783800D02*
X141196200Y-91783800D01*
X145890000Y-91600000D02*
X145890000Y-92710000D01*
X140786200Y-83443800D02*
X141196200Y-83443800D01*
X143290000Y-89260000D02*
X143730000Y-89260000D01*
X143290000Y-86000000D02*
X143730000Y-86000000D01*
X132156200Y-87613800D02*
X140786200Y-87613800D01*
X140786200Y-85983800D02*
X141196200Y-85983800D01*
X132156200Y-90153800D02*
X140786200Y-90153800D01*
X145890000Y-92710000D02*
X144560000Y-92710000D01*
X140786200Y-91063800D02*
X141196200Y-91063800D01*
X140786200Y-88523800D02*
X141196200Y-88523800D01*
X143290000Y-81640000D02*
X143730000Y-81640000D01*
X143290000Y-91080000D02*
X143730000Y-91080000D01*
X132156200Y-82533800D02*
X140786200Y-82533800D01*
X140786200Y-79083800D02*
X141196200Y-79083800D01*
X147390000Y-97720000D02*
X147390000Y-95320000D01*
X149790000Y-97720000D02*
X147390000Y-97720000D01*
X149790000Y-95320000D02*
X149790000Y-97720000D01*
X147390000Y-95320000D02*
X149790000Y-95320000D01*
X141040000Y-97720000D02*
X141040000Y-95320000D01*
X143440000Y-97720000D02*
X141040000Y-97720000D01*
X143440000Y-95320000D02*
X143440000Y-97720000D01*
X141040000Y-95320000D02*
X143440000Y-95320000D01*
X140786200Y-109563800D02*
X141196200Y-109563800D01*
X132156200Y-102853800D02*
X140786200Y-102853800D01*
X143290000Y-111400000D02*
X143730000Y-111400000D01*
X140786200Y-104483800D02*
X141196200Y-104483800D01*
X143290000Y-101960000D02*
X143670000Y-101960000D01*
X132156200Y-107933800D02*
X140786200Y-107933800D01*
X140786200Y-101223800D02*
X141196200Y-101223800D01*
X140786200Y-100253800D02*
X140786200Y-115613800D01*
X143290000Y-101240000D02*
X143670000Y-101240000D01*
X140786200Y-112103800D02*
X141196200Y-112103800D01*
X143290000Y-106320000D02*
X143730000Y-106320000D01*
X143290000Y-114660000D02*
X143730000Y-114660000D01*
X140786200Y-103763800D02*
X141196200Y-103763800D01*
X132156200Y-100253800D02*
X132156200Y-115613800D01*
X132156200Y-100253800D02*
X140786200Y-100253800D01*
X140786200Y-107023800D02*
X141196200Y-107023800D01*
X143290000Y-103780000D02*
X143730000Y-103780000D01*
X143290000Y-107040000D02*
X143730000Y-107040000D01*
X132156200Y-115613800D02*
X140786200Y-115613800D01*
X143290000Y-109580000D02*
X143730000Y-109580000D01*
X140786200Y-114643800D02*
X141196200Y-114643800D01*
X145890000Y-114460000D02*
X145890000Y-115570000D01*
X140786200Y-106303800D02*
X141196200Y-106303800D01*
X143290000Y-112120000D02*
X143730000Y-112120000D01*
X143290000Y-108860000D02*
X143730000Y-108860000D01*
X132156200Y-110473800D02*
X140786200Y-110473800D01*
X140786200Y-108843800D02*
X141196200Y-108843800D01*
X132156200Y-113013800D02*
X140786200Y-113013800D01*
X145890000Y-115570000D02*
X144560000Y-115570000D01*
X140786200Y-113923800D02*
X141196200Y-113923800D01*
X140786200Y-111383800D02*
X141196200Y-111383800D01*
X143290000Y-104500000D02*
X143730000Y-104500000D01*
X143290000Y-113940000D02*
X143730000Y-113940000D01*
X132156200Y-105393800D02*
X140786200Y-105393800D01*
X140786200Y-101943800D02*
X141196200Y-101943800D01*
X161055000Y-84110000D02*
X161055000Y-78100000D01*
X167875000Y-81860000D02*
X167875000Y-78100000D01*
X167875000Y-78100000D02*
X166615000Y-78100000D01*
X161055000Y-78100000D02*
X162315000Y-78100000D01*
X164692064Y-92175000D02*
X164237936Y-92175000D01*
X164692064Y-90705000D02*
X164237936Y-90705000D01*
X158015000Y-80237064D02*
X158015000Y-79782936D01*
X159485000Y-80237064D02*
X159485000Y-79782936D01*
X166325000Y-86670000D02*
X163465000Y-86670000D01*
X163465000Y-88590000D02*
X166325000Y-88590000D01*
X166325000Y-88590000D02*
X166325000Y-86670000D01*
X155675000Y-79748748D02*
X155675000Y-80271252D01*
X154205000Y-79748748D02*
X154205000Y-80271252D01*
X169445000Y-80271252D02*
X169445000Y-79748748D01*
X170915000Y-80271252D02*
X170915000Y-79748748D01*
X177225000Y-96847470D02*
X177225000Y-96192530D01*
X153106529Y-96395000D02*
X152963471Y-96395000D01*
X153160000Y-98285000D02*
X177225000Y-98285000D01*
X153160000Y-98285000D02*
X153160000Y-97718471D01*
X151640000Y-98285000D02*
X151640000Y-97155000D01*
X151836529Y-96395000D02*
X151705000Y-96395000D01*
X151705000Y-95577470D02*
X151705000Y-94755000D01*
X177225000Y-98285000D02*
X177225000Y-97462530D01*
X152400000Y-98285000D02*
X151640000Y-98285000D01*
X177225000Y-95577470D02*
X177225000Y-94755000D01*
X151705000Y-96395000D02*
X151705000Y-96192530D01*
X153160000Y-96591529D02*
X153160000Y-96448471D01*
X151705000Y-94755000D02*
X177225000Y-94755000D01*
%LPC*%
D12*
X157480000Y-91440000D03*
D13*
X151130000Y-78740000D03*
X179070000Y-78740000D03*
D14*
X185420000Y-101600000D03*
D15*
X185420000Y-104140000D03*
X185420000Y-106680000D03*
X185420000Y-109220000D03*
X185420000Y-111760000D03*
X185420000Y-114300000D03*
X187960000Y-101600000D03*
X187960000Y-104140000D03*
X187960000Y-106680000D03*
X187960000Y-109220000D03*
X187960000Y-111760000D03*
X187960000Y-114300000D03*
D14*
X185420000Y-78740000D03*
D15*
X185420000Y-81280000D03*
X185420000Y-83820000D03*
X185420000Y-86360000D03*
X185420000Y-88900000D03*
X185420000Y-91440000D03*
X187960000Y-78740000D03*
X187960000Y-81280000D03*
X187960000Y-83820000D03*
X187960000Y-86360000D03*
X187960000Y-88900000D03*
X187960000Y-91440000D03*
D14*
X144780000Y-91440000D03*
D15*
X144780000Y-88900000D03*
X144780000Y-86360000D03*
X144780000Y-83820000D03*
X144780000Y-81280000D03*
X144780000Y-78740000D03*
X142240000Y-91440000D03*
X142240000Y-88900000D03*
X142240000Y-86360000D03*
X142240000Y-83820000D03*
X142240000Y-81280000D03*
X142240000Y-78740000D03*
D13*
X148590000Y-96520000D03*
X142240000Y-96520000D03*
D14*
X144780000Y-114300000D03*
D15*
X144780000Y-111760000D03*
X144780000Y-109220000D03*
X144780000Y-106680000D03*
X144780000Y-104140000D03*
X144780000Y-101600000D03*
X142240000Y-114300000D03*
X142240000Y-111760000D03*
X142240000Y-109220000D03*
X142240000Y-106680000D03*
X142240000Y-104140000D03*
X142240000Y-101600000D03*
D16*
X164465000Y-76860000D03*
D17*
X162165000Y-83160000D03*
X164465000Y-83160000D03*
X166765000Y-83160000D03*
D18*
X165465000Y-91440000D03*
X163465000Y-91440000D03*
D19*
X158750000Y-81010000D03*
X158750000Y-79010000D03*
D20*
X165490000Y-87630000D03*
X163440000Y-87630000D03*
D21*
X154940000Y-78972500D03*
X154940000Y-81047500D03*
D22*
X170180000Y-81047500D03*
X170180000Y-78972500D03*
D23*
X152400000Y-97155000D03*
D24*
X152400000Y-95885000D03*
X153670000Y-97155000D03*
X153670000Y-95885000D03*
X154940000Y-97155000D03*
X154940000Y-95885000D03*
X156210000Y-97155000D03*
X156210000Y-95885000D03*
X157480000Y-97155000D03*
X157480000Y-95885000D03*
X158750000Y-97155000D03*
X158750000Y-95885000D03*
X160020000Y-97155000D03*
X160020000Y-95885000D03*
X161290000Y-97155000D03*
X161290000Y-95885000D03*
X162560000Y-97155000D03*
X162560000Y-95885000D03*
X163830000Y-97155000D03*
X163830000Y-95885000D03*
X165100000Y-97155000D03*
X165100000Y-95885000D03*
X166370000Y-97155000D03*
X166370000Y-95885000D03*
X167640000Y-97155000D03*
X167640000Y-95885000D03*
X168910000Y-97155000D03*
X168910000Y-95885000D03*
X170180000Y-97155000D03*
X170180000Y-95885000D03*
X171450000Y-97155000D03*
X171450000Y-95885000D03*
X172720000Y-97155000D03*
X172720000Y-95885000D03*
X173990000Y-97155000D03*
X173990000Y-95885000D03*
X175260000Y-97155000D03*
X175260000Y-95885000D03*
X176530000Y-97155000D03*
X176530000Y-95885000D03*
M02*
